<?xml version="1.0" encoding="utf-8"?>
<!-- Generator: Adobe Illustrator 17.0.0, SVG Export Plug-In . SVG Version: 6.00 Build 0)  -->
<!DOCTYPE svg PUBLIC "-//W3C//DTD SVG 1.1//EN" "http://www.w3.org/Graphics/SVG/1.1/DTD/svg11.dtd">
<svg version="1.1" id="Layer_1" xmlns:sketch="http://www.bohemiancoding.com/sketch/ns"
	 xmlns="http://www.w3.org/2000/svg" xmlns:xlink="http://www.w3.org/1999/xlink" x="0px" y="0px" width="42.465px"
	 height="41.324px" viewBox="695 44 42.465 41.324" enable-background="new 695 44 42.465 41.324" xml:space="preserve">
<path d="M706.416,59.783l5.146,5.146c0.146,0.147,0.338,0.22,0.53,0.22c0.192,0,0.384-0.073,0.531-0.22
	c0.293-0.293,0.293-0.767,0-1.06l-5.496-5.497c-0.218-0.217-0.544-0.28-0.829-0.157c-2.506,1.088-5.242,0.679-6.969-1.041
	c-1.46-1.463-1.972-3.671-1.417-5.849l3.579,3.577c0.209,0.207,0.517,0.273,0.792,0.172l3.317-1.228
	c0.204-0.076,0.366-0.237,0.442-0.443l1.224-3.307c0.102-0.274,0.034-0.583-0.173-0.79l-3.581-3.585
	c2.182-0.557,4.388-0.044,5.853,1.421c1.72,1.719,2.128,4.454,1.039,6.968c-0.122,0.282-0.059,0.611,0.158,0.828l5.496,5.495
	c0.293,0.293,0.767,0.293,1.061,0c0.293-0.293,0.293-0.768,0-1.06l-5.147-5.146c1.084-2.949,0.5-6.101-1.547-8.146
	c-2.146-2.147-5.519-2.685-8.588-1.37c-0.228,0.098-0.394,0.303-0.441,0.547c-0.047,0.244,0.029,0.496,0.205,0.673l4.092,4.095
	l-0.938,2.533l-2.543,0.941l-4.092-4.088c-0.177-0.176-0.433-0.254-0.672-0.206c-0.245,0.048-0.451,0.214-0.548,0.443
	c-1.309,3.072-0.772,6.442,1.371,8.586C700.321,60.282,703.472,60.865,706.416,59.783L706.416,59.783z M710.146,71.207
	l17.631-17.629l0.595,0.594c0.141,0.142,0.332,0.22,0.531,0.22h0.018c0.204-0.005,0.4-0.093,0.537-0.245l4.291-4.712
	c0.27-0.297,0.258-0.753-0.024-1.036l-1.829-1.825c-0.284-0.285-0.739-0.294-1.036-0.025l-4.711,4.289
	c-0.153,0.138-0.241,0.332-0.246,0.537c-0.005,0.206,0.076,0.403,0.219,0.548l0.594,0.594l-17.63,17.63l-2.67-2.67
	c-0.282-0.281-0.779-0.281-1.061,0l-9.153,9.155c-1.602,1.603-1.603,4.212-0.002,5.816l1.678,1.674
	c0.772,0.775,1.805,1.202,2.906,1.202c1.103,0,2.136-0.428,2.908-1.202l9.155-9.154c0.14-0.14,0.221-0.332,0.221-0.53
	c0-0.199-0.081-0.39-0.221-0.53L710.146,71.207L710.146,71.207z M731.341,48.14l0.816,0.815l-3.279,3.601l-1.138-1.138
	L731.341,48.14L731.341,48.14z M702.629,83.062c-0.979,0.982-2.71,0.982-3.69,0l-1.677-1.675c-1.018-1.018-1.017-2.676,0.001-3.694
	l5.662-5.663l5.346,5.393L702.629,83.062L702.629,83.062z M709.331,76.363l-5.347-5.394l1.902-1.901l5.371,5.37L709.331,76.363
	L709.331,76.363z M735.383,71.041c-2.046-2.046-5.192-2.63-8.146-1.549l-6.314-6.316c-0.293-0.293-0.768-0.293-1.061,0
	c-0.293,0.293-0.293,0.768,0,1.061l6.665,6.664c0.218,0.217,0.547,0.28,0.828,0.158c2.514-1.086,5.249-0.678,6.966,1.043
	c1.469,1.467,1.981,3.676,1.421,5.852l-3.58-3.582c-0.208-0.207-0.517-0.274-0.792-0.172l-3.303,1.226
	c-0.204,0.075-0.367,0.236-0.443,0.441l-1.236,3.311c-0.104,0.276-0.035,0.585,0.173,0.793l3.583,3.582
	c-2.182,0.556-4.39,0.044-5.854-1.421c-1.719-1.72-2.127-4.455-1.041-6.966c0.122-0.282,0.06-0.61-0.158-0.828l-6.664-6.666
	c-0.293-0.293-0.768-0.293-1.061,0c-0.293,0.292-0.293,0.768,0,1.061l6.315,6.316c-1.081,2.946-0.497,6.097,1.549,8.144
	c1.365,1.366,3.227,2.08,5.193,2.08c1.122,0,2.279-0.233,3.396-0.711c0.229-0.098,0.395-0.303,0.442-0.547
	c0.047-0.245-0.031-0.497-0.207-0.673l-4.092-4.091l0.947-2.538l2.532-0.939l4.09,4.09c0.175,0.175,0.427,0.254,0.672,0.206
	c0.243-0.047,0.449-0.212,0.548-0.441C738.069,76.56,737.532,73.189,735.383,71.041L735.383,71.041z" />
</svg>
