<?xml version="1.0" encoding="utf-8"?>
<svg version="1.1" xmlns="http://www.w3.org/2000/svg" xmlns:xlink="http://www.w3.org/1999/xlink" x="0px" y="0px" width="326.062px" height="27.795px" viewBox="58.317 70.595 326.062 27.795" enable-background="new 58.317 70.595 326.062 27.795" xml:space="preserve">
	<path d="M58.317,98v-2.338l3.024-0.52V73.86l-3.024-0.52v-2.356h3.024h3.655h3.024v2.356l-3.024,0.52v21.282h9.389l0.278-3.099
		h3.117V98H58.317z M80.564,98v-2.338l3.024-0.52V73.86l-3.024-0.52v-2.356h20.744v6.494h-3.136l-0.297-3.618H87.244V82.6h10.335
		v2.876H87.244v9.667h10.854l0.297-3.618h3.117V98H80.564z M104.797,98v-2.338l3.024-0.52V73.86l-3.024-0.52v-2.356h20.744v6.494
		h-3.136l-0.297-3.618h-10.632V82.6h10.335v2.876h-10.335v9.667h10.854l0.297-3.618h3.117V98H104.797z M140.348,70.984
		c3.525,0,6.361,1.085,8.507,3.256s3.219,4.976,3.219,8.415v3.692c0,3.451-1.073,6.256-3.219,8.415S143.873,98,140.348,98h-11.318
		v-2.338l3.024-0.52V73.86l-3.024-0.52v-2.356h3.024H140.348z M135.709,73.86v21.282h4.639c2.499,0,4.469-0.823,5.91-2.468
		s2.162-3.754,2.162-6.327v-3.729c0-2.548-0.721-4.645-2.162-6.29s-3.411-2.468-5.91-2.468H135.709z M174.915,78.963h-2.765
		l-0.687-3.859c-0.557-0.47-1.299-0.86-2.227-1.169s-2.004-0.464-3.229-0.464c-1.942,0-3.433,0.411-4.472,1.234
		s-1.559,1.896-1.559,3.219c0,1.175,0.529,2.155,1.586,2.941s2.768,1.475,5.13,2.069c2.845,0.705,5.007,1.744,6.485,3.117
		s2.217,3.074,2.217,5.103c0,2.177-0.888,3.927-2.663,5.251s-4.097,1.985-6.967,1.985c-2.078,0-3.924-0.34-5.539-1.021
		s-2.929-1.571-3.943-2.672v-5.028h2.746l0.705,3.878c0.705,0.581,1.546,1.058,2.523,1.429s2.146,0.557,3.507,0.557
		c1.843,0,3.3-0.39,4.37-1.169s1.605-1.837,1.605-3.173c0-1.237-0.464-2.273-1.392-3.108s-2.567-1.537-4.917-2.106
		c-2.857-0.68-5.09-1.682-6.698-3.006s-2.412-2.987-2.412-4.991c0-2.115,0.897-3.875,2.69-5.279s4.125-2.106,6.995-2.106
		c1.893,0,3.615,0.325,5.167,0.974s2.799,1.438,3.739,2.366V78.963z M199.259,70.984c3.525,0,6.361,1.085,8.507,3.256
		s3.219,4.976,3.219,8.415v3.692c0,3.451-1.073,6.256-3.219,8.415S202.784,98,199.259,98H187.94v-2.338l3.024-0.52V73.86l-3.024-0.52
		v-2.356h3.024H199.259z M194.62,73.86v21.282h4.639c2.499,0,4.469-0.823,5.91-2.468s2.162-3.754,2.162-6.327v-3.729
		c0-2.548-0.721-4.645-2.162-6.29s-3.411-2.468-5.91-2.468H194.62z M212.488,95.662l2.004-0.278l9.444-24.399h3.136l9.277,24.399
		l1.985,0.278V98h-7.756v-2.338l2.041-0.353l-1.781-4.973h-10.817l-1.837,4.973l2.041,0.353V98h-7.737V95.662z M221.153,87.275h8.572
		l-4.193-11.597h-0.111L221.153,87.275z M259.098,70.984v5.975h-3.117l-0.278-3.099h-5.993v21.282l3.024,0.52V98h-9.704v-2.338
		l3.024-0.52V73.86h-6.012l-0.26,3.099h-3.136v-5.975H259.098z M257.465,95.662l2.004-0.278l9.444-24.399h3.136l9.277,24.399
		l1.985,0.278V98h-7.756v-2.338l2.041-0.353l-1.781-4.973h-10.817l-1.837,4.973l2.041,0.353V98h-7.737V95.662z M266.13,87.275h8.572
		l-4.193-11.597h-0.111L266.13,87.275z M321.441,76.365l-0.093-0.019L312.609,98h-2.431l-8.739-21.635l-0.093,0.019l0.371,10.929
		v7.83l3.024,0.52V98h-9.704v-2.338l3.024-0.52V73.86l-3.024-0.52v-2.356h3.024h4.676l8.609,21.95h0.111l8.591-21.95h7.719v2.356
		l-3.024,0.52v21.282l3.024,0.52V98h-9.704v-2.338l3.024-0.52v-7.83L321.441,76.365z M330.366,73.341v-2.356h9.704v2.356l-3.024,0.52
		v21.282l3.024,0.52V98h-9.704v-2.338l3.024-0.52V73.86L330.366,73.341z M342.668,98v-2.338l3.024-0.52V73.86l-3.024-0.52v-2.356
		h3.024h3.655h3.024v2.356l-3.024,0.52v21.282h9.389l0.278-3.099h3.117V98H342.668z M364.915,98v-2.338l3.024-0.52V73.86l-3.024-0.52
		v-2.356h3.024h3.655h3.024v2.356l-3.024,0.52v21.282h9.389l0.278-3.099h3.117V98H364.915z"/>
</svg>