<?xml version="1.0" encoding="utf-8"?>
<!-- Generator: Adobe Illustrator 17.0.0, SVG Export Plug-In . SVG Version: 6.00 Build 0)  -->
<!DOCTYPE svg PUBLIC "-//W3C//DTD SVG 1.1//EN" "http://www.w3.org/Graphics/SVG/1.1/DTD/svg11.dtd">
<svg version="1.1" id="Layer_1" xmlns:sketch="http://www.bohemiancoding.com/sketch/ns"
	 xmlns="http://www.w3.org/2000/svg" xmlns:xlink="http://www.w3.org/1999/xlink" x="0px" y="0px" width="48px" height="48px"
	 viewBox="-1.5 -1.5 48 48" enable-background="new -1.5 -1.5 48 48" xml:space="preserve">
<title>Fill 152</title>
<desc>Created with Sketch.</desc>
<g id="UI" sketch:type="MSPage">
	<g id="Toolbox-Expanded" transform="translate(-447.000000, -208.000000)" sketch:type="MSArtboardGroup">
		<g id="Add-a-story-_x2B_-Fill-152" transform="translate(417.000000, 208.000000)" sketch:type="MSLayerGroup">
			<path id="Fill-152" sketch:type="MSShapeGroup" d="M56.348,12.39c-0.945,0-1.715,0.77-1.715,1.716s0.77,1.715,1.715,1.715
				c0.946,0,1.716-0.769,1.716-1.715S57.294,12.39,56.348,12.39L56.348,12.39z M56.133,14.106c0-0.119,0.097-0.216,0.215-0.216
				c0.119,0,0.216,0.097,0.216,0.216C56.564,14.344,56.133,14.346,56.133,14.106L56.133,14.106z M71.785,6.46h-1.971
				c-0.414,0-0.75,0.336-0.75,0.75s0.336,0.75,0.75,0.75h1.947c0.7,0.021,1.249,0.586,1.249,1.283v21.913
				c0,0.699-0.549,1.264-1.225,1.285h-4.81c-0.414,0-0.75,0.336-0.75,0.75v9.396L55.046,32.64c-0.137-0.121-0.314-0.188-0.498-0.189
				l-5.761-0.01c0,0,0,0-0.001,0c-0.414,0-0.749,0.335-0.75,0.749c-0.001,0.414,0.335,0.751,0.748,0.751l5.478,0.01l12.214,10.867
				c0.141,0.124,0.319,0.19,0.499,0.19c0.104,0,0.208-0.022,0.308-0.067c0.269-0.12,0.442-0.389,0.442-0.683V33.941h4.083
				c1.516-0.048,2.702-1.27,2.702-2.785V9.243C74.51,7.73,73.324,6.508,71.785,6.46L71.785,6.46z M41.445,12.39
				c-0.946,0-1.716,0.77-1.716,1.716s0.77,1.715,1.716,1.715s1.715-0.769,1.715-1.715S42.391,12.39,41.445,12.39L41.445,12.39z
				 M41.229,14.106c0-0.119,0.097-0.216,0.216-0.216s0.215,0.097,0.215,0.216C41.66,14.344,41.23,14.344,41.229,14.106
				L41.229,14.106z M65.121,27.483c1.537,0,2.788-1.25,2.788-2.785V2.785C67.909,1.249,66.658,0,65.121,0L32.703,0.002
				C31.187,0.05,30,1.271,30,2.785v21.913c0,1.516,1.187,2.738,2.726,2.784h4.06v10.317c0,0.295,0.173,0.563,0.443,0.684
				c0.099,0.044,0.203,0.066,0.307,0.066c0.18,0,0.358-0.065,0.498-0.19l12.215-10.867L65.121,27.483L65.121,27.483z M49.464,26.181
				l-11.178,9.947v-9.396c0-0.414-0.336-0.75-0.75-0.75l-4.787,0.001c-0.701-0.021-1.249-0.586-1.249-1.285V2.785
				c0-0.698,0.548-1.262,1.226-1.283L65.121,1.5c0.711,0,1.288,0.576,1.288,1.285v21.913c0,0.708-0.577,1.285-1.288,1.285
				l-15.159,0.009C49.779,25.992,49.601,26.059,49.464,26.181L49.464,26.181z M48.896,12.39c-0.946,0-1.716,0.77-1.716,1.716
				s0.77,1.715,1.716,1.715c0.944,0,1.712-0.769,1.712-1.715S49.84,12.39,48.896,12.39L48.896,12.39z M48.68,14.106
				c0-0.119,0.097-0.216,0.216-0.216c0.116,0,0.212,0.097,0.212,0.216C49.108,14.349,48.679,14.344,48.68,14.106L48.68,14.106z"/>
		</g>
	</g>
</g>
</svg>
