<svg xmlns:sketch="http://www.bohemiancoding.com/sketch/ns" xmlns="http://www.w3.org/2000/svg" width="48" height="48" viewBox="-1.5 -1.5 48 48" enable-background="new -1.5 -1.5 48 48"><title>Fill 152</title><desc>Created with Sketch.</desc><path sketch:type="MSShapeGroup" d="M26.348 12.39c-.945 0-1.715.77-1.715 1.716s.77 1.715 1.715 1.715c.946 0 1.716-.769 1.716-1.715s-.77-1.716-1.716-1.716zm-.215 1.716c0-.119.097-.216.215-.216.119 0 .216.097.216.216 0 .238-.431.24-.431 0zm15.652-7.646h-1.971c-.414 0-.75.336-.75.75s.336.75.75.75h1.947c.7.021 1.249.586 1.249 1.283v21.913c0 .699-.549 1.264-1.225 1.285h-4.81c-.414 0-.75.336-.75.75v9.396l-11.179-9.947c-.137-.121-.314-.188-.498-.189l-5.761-.01h-.001c-.414 0-.749.335-.75.749-.001.414.335.751.748.751l5.478.01 12.214 10.867c.141.124.319.19.499.19.104 0 .208-.022.308-.067.269-.12.442-.389.442-.683v-10.317h4.083c1.516-.048 2.702-1.27 2.702-2.785v-21.913c0-1.513-1.186-2.735-2.725-2.783zm-30.34 5.93c-.946 0-1.716.77-1.716 1.716s.77 1.715 1.716 1.715 1.715-.769 1.715-1.715-.769-1.716-1.715-1.716zm-.216 1.716c0-.119.097-.216.216-.216s.215.097.215.216c0 .238-.43.238-.431 0zm23.892 13.377c1.537 0 2.788-1.25 2.788-2.785v-21.913c0-1.536-1.251-2.785-2.788-2.785l-32.418.002c-1.516.048-2.703 1.269-2.703 2.783v21.913c0 1.516 1.187 2.738 2.726 2.784h4.06v10.317c0 .295.173.563.443.684.099.044.203.066.307.066.18 0 .358-.065.498-.19l12.215-10.867 14.872-.009zm-15.657-1.302l-11.178 9.947v-9.396c0-.414-.336-.75-.75-.75l-4.787.001c-.701-.021-1.249-.586-1.249-1.285v-21.913c0-.698.548-1.262 1.226-1.283l32.395-.002c.711 0 1.288.576 1.288 1.285v21.913c0 .708-.577 1.285-1.288 1.285l-15.159.009c-.183 0-.361.067-.498.189zm-.568-13.791c-.946 0-1.716.77-1.716 1.716s.77 1.715 1.716 1.715c.944 0 1.712-.769 1.712-1.715s-.768-1.716-1.712-1.716zm-.216 1.716c0-.119.097-.216.216-.216.116 0 .212.097.212.216 0 .243-.429.238-.428 0z"/></svg>