<?xml version="1.0" encoding="utf-8"?>
<!-- Generator: Adobe Illustrator 17.0.0, SVG Export Plug-In . SVG Version: 6.00 Build 0)  -->
<!DOCTYPE svg PUBLIC "-//W3C//DTD SVG 1.1//EN" "http://www.w3.org/Graphics/SVG/1.1/DTD/svg11.dtd">
<svg version="1.1" id="Layer_1" xmlns="http://www.w3.org/2000/svg" xmlns:xlink="http://www.w3.org/1999/xlink" x="0px" y="0px"
	 width="48px" height="48px" viewBox="-4 -4 48 48" enable-background="new -4 -4 48 48" xml:space="preserve">
<path d="M20.224,0.303l-0.36-0.002c-10.538,0-19.266,8.576-19.456,19.113c-0.101,5.201,1.837,10.122,5.446,13.87
	c3.609,3.743,8.463,5.859,13.664,5.952l0.36,0.002c10.538,0,19.266-8.576,19.456-19.113c0.097-5.202-1.838-10.122-5.446-13.868
	C30.276,2.51,25.425,0.402,20.224,0.303L20.224,0.303z M19.878,37.84l-0.336-0.005c-4.824-0.085-9.329-2.047-12.678-5.523
	c-3.353-3.474-5.148-8.047-5.061-12.871C1.981,9.657,10.079,1.699,19.865,1.699l0.332,0.003c4.827,0.084,9.329,2.047,12.68,5.524
	c3.349,3.474,5.148,8.045,5.061,12.868C37.763,29.88,29.659,37.84,19.878,37.84L19.878,37.84z"/>
<path d="M29.103,19.237l-16.752-0.303l8.17-7.884c0.28-0.266,0.286-0.711,0.02-0.985c-0.266-0.278-0.712-0.285-0.989-0.019
	l-9.888,9.535l0.482,0.503c0.003,0,0.003,0.003,0.003,0.003l9.053,9.389c0.136,0.14,0.32,0.211,0.503,0.211
	c0.174,0,0.349-0.063,0.486-0.196c0.276-0.268,0.283-0.711,0.017-0.987l-7.884-8.173l16.752,0.303h0.014
	c0.38,0,0.689-0.305,0.699-0.684C29.795,19.562,29.49,19.244,29.103,19.237L29.103,19.237z"/>
</svg>