<svg xmlns="http://www.w3.org/2000/svg" width="48" height="48" viewBox="-4 -4 48 48" enable-background="new -4 -4 48 48"><path d="M20.224.303l-.36-.002c-10.538 0-19.266 8.576-19.456 19.113-.101 5.201 1.837 10.122 5.446 13.87 3.609 3.743 8.463 5.859 13.664 5.952l.36.002c10.538 0 19.266-8.576 19.456-19.113.097-5.202-1.838-10.122-5.446-13.868-3.612-3.747-8.463-5.855-13.664-5.954zm-.346 37.537l-.336-.005c-4.824-.085-9.329-2.047-12.678-5.523-3.353-3.474-5.148-8.047-5.061-12.871.178-9.784 8.276-17.742 18.062-17.742l.332.003c4.827.084 9.329 2.047 12.68 5.524 3.349 3.474 5.148 8.045 5.061 12.868-.175 9.786-8.279 17.746-18.06 17.746zM29.103 19.237l-16.752-.303 8.17-7.884c.28-.266.286-.711.02-.985-.266-.278-.712-.285-.989-.019l-9.888 9.535.482.503.003.003 9.053 9.389c.136.14.32.211.503.211.174 0 .349-.063.486-.196.276-.268.283-.711.017-.987l-7.884-8.173 16.752.303h.014c.38 0 .689-.305.699-.684.006-.388-.299-.706-.686-.713z"/></svg>