<svg xmlns="http://www.w3.org/2000/svg" width="48" height="48" viewBox="9 -4 48 48" enable-background="new 9 -4 48 48"><path d="M44.026 8.723c1.658 0 3.007-1.363 3.007-3.038s-1.349-3.038-3.007-3.038c-1.657 0-3.007 1.363-3.007 3.038s1.35 3.038 3.007 3.038zm0-4.558c.829 0 1.504.682 1.504 1.52s-.675 1.52-1.504 1.52-1.504-.682-1.504-1.52.675-1.52 1.504-1.52zm-7.547 2.259c2.105 2.543 4.096 4.946 7.547 4.946 3.45 0 5.946-2.979 7.597-4.949l.16-.191c.225-.268.239-.659.031-.943-1.805-2.461-4.322-5.287-7.788-5.287-2.896 0-5.114 1.989-7.76 5.198-.232.281-.231.691.003.973l.21.253zm7.547-4.906c2.592 0 4.663 2.147 6.222 4.192-1.537 1.83-3.6 4.142-6.222 4.142-2.659 0-4.254-1.821-6.201-4.168 2.234-2.647 4.013-4.166 6.201-4.166zm9.955 37.553c-.297-1.301-1.728-6.832-2.881-8.371-1.737-2.895-5.336-2.537-5.408-2.522h-2.784c-.122 0-3.05-.077-4.764 2.411-.26.374-.544 1-.873 1.914l-.018.122c-.813-2.618-1.77-5.233-2.586-6.31-2.456-4.125-7.598-3.608-7.734-3.588h-4.15c-.182-.003-4.33-.113-6.763 3.421-1.349 1.953-3.313 9.39-4.002 12.483-.091.409.162.815.568.907.403.096.807-.164.898-.573.721-3.237 2.629-10.297 3.77-11.95 1.956-2.842 5.444-2.763 5.502-2.77l4.259-.004c.042-.004 4.437-.431 6.385 2.89l.057.085c1.206 1.538 3.227 8.469 3.972 11.753.079.35.389.589.732.589l.168-.019c.404-.093.657-.501.563-.91-.253-1.112-.782-3.168-1.427-5.312.071.067.156.122.256.158.389.142.821-.06.963-.454.366-1.019.591-1.418.693-1.565 1.238-1.797 3.393-1.755 3.503-1.76l2.892-.005c.028-.001 2.822-.284 4.058 1.826l.058.084c.787 1.003 2.128 5.617 2.625 7.811.083.35.391.588.734.588l.168-.018c.405-.094.658-.501.566-.911zm-9.632-24.518c-3.631 0-6.584 2.984-6.584 6.652s2.953 6.652 6.584 6.652c3.632 0 6.588-2.984 6.588-6.652s-2.956-6.652-6.588-6.652zm0 11.785c-2.802 0-5.081-2.303-5.081-5.133s2.28-5.133 5.081-5.133c2.804 0 5.085 2.303 5.085 5.133s-2.282 5.133-5.085 5.133zm-19.412-4.826c5.197 0 9.423-4.269 9.423-9.517 0-5.246-4.227-9.514-9.423-9.514-5.194 0-9.419 4.268-9.419 9.514 0 5.247 4.225 9.517 9.419 9.517zm0-17.513c4.367 0 7.92 3.587 7.92 7.996 0 4.411-3.553 7.999-7.92 7.999-4.365 0-7.916-3.588-7.916-7.999 0-4.409 3.551-7.996 7.916-7.996z"/></svg>