<?xml version="1.0" encoding="utf-8"?>
<!-- Generator: Adobe Illustrator 17.0.0, SVG Export Plug-In . SVG Version: 6.00 Build 0)  -->
<!DOCTYPE svg PUBLIC "-//W3C//DTD SVG 1.1//EN" "http://www.w3.org/Graphics/SVG/1.1/DTD/svg11.dtd">
<svg version="1.1" id="Layer_1" xmlns="http://www.w3.org/2000/svg" xmlns:xlink="http://www.w3.org/1999/xlink" x="0px" y="0px"
	 width="48px" height="48px" viewBox="9 -4 48 48" enable-background="new 9 -4 48 48" xml:space="preserve">
<path d="M44.026,8.723c1.658,0,3.007-1.363,3.007-3.038s-1.349-3.038-3.007-3.038c-1.657,0-3.007,1.363-3.007,3.038
	S42.369,8.723,44.026,8.723L44.026,8.723z M44.026,4.165c0.829,0,1.504,0.682,1.504,1.52s-0.675,1.52-1.504,1.52
	c-0.829,0-1.504-0.682-1.504-1.52S43.197,4.165,44.026,4.165L44.026,4.165z M36.479,6.424c2.105,2.543,4.096,4.946,7.547,4.946
	c3.45,0,5.946-2.979,7.597-4.949l0.16-0.191c0.225-0.268,0.239-0.659,0.031-0.943C50.009,2.826,47.492,0,44.026,0
	c-2.896,0-5.114,1.989-7.76,5.198c-0.232,0.281-0.231,0.691,0.003,0.973L36.479,6.424L36.479,6.424z M44.026,1.518
	c2.592,0,4.663,2.147,6.222,4.192c-1.537,1.83-3.6,4.142-6.222,4.142c-2.659,0-4.254-1.821-6.201-4.168
	C40.059,3.037,41.838,1.518,44.026,1.518L44.026,1.518z M53.981,39.071c-0.297-1.301-1.728-6.832-2.881-8.371
	c-1.737-2.895-5.336-2.537-5.408-2.522h-2.784c-0.122,0-3.05-0.077-4.764,2.411c-0.26,0.374-0.544,1-0.873,1.914
	c-0.015,0.04-0.011,0.081-0.018,0.122c-0.813-2.618-1.77-5.233-2.586-6.31c-2.456-4.125-7.598-3.608-7.734-3.588h-4.15
	c-0.182-0.003-4.33-0.113-6.763,3.421c-1.349,1.953-3.313,9.39-4.002,12.483c-0.091,0.409,0.162,0.815,0.568,0.907
	c0.403,0.096,0.807-0.164,0.898-0.573c0.721-3.237,2.629-10.297,3.77-11.95c1.956-2.842,5.444-2.763,5.502-2.77l4.259-0.004
	c0.042-0.004,4.437-0.431,6.385,2.89c0.017,0.029,0.037,0.058,0.057,0.085c1.206,1.538,3.227,8.469,3.972,11.753
	c0.079,0.35,0.389,0.589,0.732,0.589c0.054,0,0.111-0.006,0.168-0.019c0.404-0.093,0.657-0.501,0.563-0.91
	c-0.253-1.112-0.782-3.168-1.427-5.312c0.071,0.067,0.156,0.122,0.256,0.158c0.389,0.142,0.821-0.06,0.963-0.454
	c0.366-1.019,0.591-1.418,0.693-1.565c1.238-1.797,3.393-1.755,3.503-1.76l2.892-0.005c0.028-0.001,2.822-0.284,4.058,1.826
	c0.018,0.028,0.036,0.057,0.058,0.084c0.787,1.003,2.128,5.617,2.625,7.811C52.596,39.762,52.904,40,53.247,40
	c0.056,0,0.113-0.006,0.168-0.018C53.82,39.888,54.073,39.481,53.981,39.071L53.981,39.071z M44.349,14.553
	c-3.631,0-6.584,2.984-6.584,6.652s2.953,6.652,6.584,6.652c3.632,0,6.588-2.984,6.588-6.652S47.981,14.553,44.349,14.553
	L44.349,14.553z M44.349,26.338c-2.802,0-5.081-2.303-5.081-5.133s2.28-5.133,5.081-5.133c2.804,0,5.085,2.303,5.085,5.133
	S47.152,26.338,44.349,26.338L44.349,26.338z M24.937,21.512c5.197,0,9.423-4.269,9.423-9.517c0-5.246-4.227-9.514-9.423-9.514
	c-5.194,0-9.419,4.268-9.419,9.514C15.518,17.242,19.743,21.512,24.937,21.512L24.937,21.512z M24.937,3.999
	c4.367,0,7.92,3.587,7.92,7.996c0,4.411-3.553,7.999-7.92,7.999c-4.365,0-7.916-3.588-7.916-7.999
	C17.021,7.586,20.572,3.999,24.937,3.999L24.937,3.999z"/>
</svg>
