<?xml version="1.0" encoding="utf-8"?>
<!-- Generator: Adobe Illustrator 17.0.0, SVG Export Plug-In . SVG Version: 6.00 Build 0)  -->
<!DOCTYPE svg PUBLIC "-//W3C//DTD SVG 1.1//EN" "http://www.w3.org/Graphics/SVG/1.1/DTD/svg11.dtd">
<svg version="1.1" id="Layer_1" xmlns="http://www.w3.org/2000/svg" xmlns:xlink="http://www.w3.org/1999/xlink" x="0px" y="0px"
	 width="48px" height="48px" viewBox="51.5 -5.501 48 48" enable-background="new 51.5 -5.501 48 48" xml:space="preserve">
<path d="M58.167,28.241H54.67V1.701h35.591v4.445c0,0.469,0.375,0.85,0.835,0.85c0.462,0,0.836-0.381,0.836-0.85V0.85
	c0-0.469-0.374-0.85-0.836-0.85H53.835C53.374,0,53,0.381,53,0.85v28.241c0,0.469,0.374,0.85,0.835,0.85h4.331
	c0.462,0,0.836-0.381,0.836-0.85S58.629,28.241,58.167,28.241L58.167,28.241z M97.165,7.059H59.897c-0.461,0-0.835,0.381-0.835,0.85
	v28.24c0,0.471,0.374,0.85,0.835,0.85h37.268C97.626,37,98,36.62,98,36.15V7.909C98,7.44,97.626,7.059,97.165,7.059L97.165,7.059z
	 M60.732,8.76h35.599v26.539H60.732V8.76z"/>
</svg>