<?xml version="1.0" encoding="UTF-8" standalone="no"?>
<svg width="30px" height="91px" viewBox="0 0 30 91" version="1.1" xmlns="http://www.w3.org/2000/svg" xmlns:xlink="http://www.w3.org/1999/xlink" xmlns:sketch="http://www.bohemiancoding.com/sketch/ns">
    <!-- Generator: Sketch 3.3 (11970) - http://www.bohemiancoding.com/sketch -->
    <title>Hour </title>
    <desc>Created with Sketch.</desc>
    <defs></defs>
    <g id="Stories" stroke="none" stroke-width="1" fill="none" fill-rule="evenodd" sketch:type="MSPage">
        <g id="Artboard-1" sketch:type="MSArtboardGroup" transform="translate(-2084.000000, -2199.000000)" fill="#EC9E3F">
            <g id="Clock-Hands" sketch:type="MSLayerGroup" transform="translate(1958.000000, 2150.000000)">
                <path d="M158.874888,100.316225 C158.61546,99.2911308 158.878808,98.3719861 159.302633,97.4557409 C159.597174,96.82139 160.044627,96.2118013 160.160085,95.5516484 C160.303873,94.7284473 160.445004,93.730482 160.106437,93.0484978 C159.44609,91.7205954 159.866542,90.6959433 160.963714,89.8713884 C161.361955,89.5728283 161.830698,89.3614145 162.211072,89.0435626 C162.828661,88.5281939 163.527333,88.0413767 163.969572,87.3971162 C167.579326,82.1436869 171.843002,77.5543575 177.385968,74.2437699 C177.966725,73.8977034 178.694063,73.8101848 179.314092,73.5181544 C180.147915,73.1255684 180.98845,72.714304 181.741314,72.1908157 C182.22741,71.8509532 182.205555,71.2606571 181.85793,70.7844258 C181.503468,70.2986838 181.008482,70.0380731 180.41607,70.3639528 C179.776063,70.71462 179.034859,71.0321993 178.597207,71.5701859 C177.946898,72.3668744 177.111722,72.780428 176.251157,73.2059487 C174.985407,73.831758 173.716161,74.4515112 172.433626,75.0412546 C168.806453,76.7074421 165.084698,78.1375464 161.068597,78.2652964 C158.998034,78.3316182 157.202565,78.7532062 155.526928,80.0490087 C154.276004,81.0175097 153.484413,80.7653033 152.652287,79.4289138 C152.021395,78.4177613 151.116417,77.8945713 149.930745,77.8362432 C149.144154,77.7978225 148.353662,77.824906 147.565292,77.809045 C146.585654,77.7905662 145.667437,77.6383826 144.871488,76.9916844 C144.622224,76.7883829 144.065317,76.6792604 143.820629,76.8218766 C143.567867,76.9691548 143.369005,77.501163 143.417253,77.8178293 C143.539352,78.6167164 143.30864,79.2357486 142.747013,79.7874424 C142.515709,80.0138453 142.292678,80.2475841 142.061801,80.4723949 C141.33303,81.179804 140.911564,81.9439589 141.056041,83.0286912 C141.12649,83.5586329 140.847996,84.2254388 140.532245,84.7065033 C140.137517,85.3071834 139.531404,85.7701694 139.035354,86.3095725 C138.326949,87.0778964 138.449622,87.9733487 139.37489,88.4431048 C139.855932,88.6888876 140.41439,88.7890404 140.939009,88.9517948 C141.173088,89.0239012 141.409143,89.0854457 141.750745,89.18295 C140.697987,91.9305671 138.997073,94.0753533 136.676786,95.6531764 C134.283286,97.2813442 131.485198,97.4581708 128.716166,97.310036 C126.887449,97.2125035 125.0783,96.8668146 123.2601,96.6313226 C122.691789,96.5583915 122.132365,96.4682178 122.021698,97.2951746 C121.967972,97.6962857 121.913446,98.1449615 121.701821,98.4730488 C120.647425,100.105952 119.950852,101.810843 120.184485,103.763277 C117.497986,101.145068 113.487945,100.068874 109.678808,101.321989 C104.225942,103.114992 101.259652,108.988765 103.053664,114.441049 C104.847676,119.893332 110.720866,122.858613 116.172723,121.066193 C121.529732,119.302964 124.475694,113.603768 122.876198,108.23432 C123.634026,108.663477 124.294311,109.068203 125.007973,109.318299 C126.057109,109.685587 127.181973,109.853041 128.276963,110.096958 C128.674902,110.184815 129.111287,110.173764 129.476126,110.327834 C130.268947,110.661423 130.661904,110.474923 130.96003,109.639325 C131.506588,108.105829 132.035163,106.559837 132.692355,105.068784 C134.069712,101.944003 136.071975,99.3305046 139.259456,97.7768653 C141.657025,96.6079546 144.114894,96.2870684 146.764755,97.137874 C146.581669,97.7065309 146.433845,98.1754272 146.28008,98.641025 C145.811688,100.067485 145.949219,100.43623 147.310459,101.062052 C147.522104,101.160568 147.949394,101.119779 148.109472,100.968142 C148.940102,100.183083 149.869811,100.091772 150.88212,100.402267 C151.603461,100.623705 152.299769,101.00225 153.035779,101.076603 C153.935648,101.166706 154.911478,101.173926 155.766272,100.913232 C156.486656,100.692458 156.958418,100.574852 157.523743,101.146103 C157.747815,101.37337 158.34441,101.499952 158.59865,101.359896 C158.824046,101.235146 158.955249,100.63723 158.874888,100.316225 L158.874888,100.316225 Z M165.427195,80.0594259 C165.608743,80.0218986 165.989216,80.3755392 166.122904,80.628073 C166.284138,80.9306472 166.45317,81.4588489 166.31943,81.6491105 C165.470568,82.8524701 164.538282,83.9882568 163.700832,85.0598692 C163.18669,84.3931231 162.700207,83.7696226 162.223079,83.1366839 C162.140341,83.0283412 162.083918,82.8886559 162.044155,82.7568474 C161.869752,82.1913725 161.705599,81.6226716 161.528,81.0213594 C162.76073,80.7066512 164.08329,80.3400787 165.427195,80.0594259 L165.427195,80.0594259 Z M157.761028,80.9326019 C159.28827,85.1069838 159.28827,85.1069838 161.72829,86.8810328 C161.481167,87.9052023 160.102926,88.7534159 159.105049,88.404982 C157.719431,87.9210847 156.350793,87.3547112 154.960887,86.8167667 C155.193881,85.4441199 155.367076,84.1800167 155.629741,82.9450058 C155.918032,81.5888821 156.639915,80.9581218 157.761028,80.9326019 L157.761028,80.9326019 Z M145.406551,88.2982846 C145.625745,87.7222389 145.842566,87.1327593 145.951906,86.5272783 C146.197751,85.1512493 145.677698,84.455617 144.302793,84.2023939 C142.798544,83.9256047 142.579714,83.5768823 143.349197,82.2080629 C143.795969,81.413148 144.504065,80.7701613 145.096354,80.0594567 C147.212076,79.0317375 149.476213,79.2587386 151.243923,80.7843869 C152.713856,82.0553409 153.146112,85.7597105 152.019157,87.4277759 C150.678632,89.4089028 147.77365,90.1884529 145.742644,89.139154 C145.338533,88.9310486 145.246364,88.7177956 145.406551,88.2982846 L145.406551,88.2982846 Z M114.675838,114.326703 C112.959955,115.317369 110.765049,114.730098 109.773801,113.013206 C108.783135,111.297323 109.371415,109.101834 111.087298,108.111169 C112.80419,107.119921 114.998669,107.708783 115.989335,109.424666 C116.980583,111.141558 116.39273,113.335455 114.675838,114.326703 L114.675838,114.326703 Z M129.35281,105.00241 C128.187742,106.357378 127.056599,106.46809 125.900606,105.60803 C124.714592,104.726275 124.157713,102.642862 124.86126,101.49783 C125.054445,101.184426 125.422563,100.905949 125.771079,100.770677 C126.325242,100.555703 126.92439,100.411653 127.515372,100.349028 C129.329358,100.157645 131.149651,100.019145 132.966094,99.8599887 C133.027853,99.931995 133.090622,100.003418 133.152965,100.076434 C131.893212,101.724274 130.702241,103.430644 129.35281,105.00241 L129.35281,105.00241 Z M141.572528,93.7996253 C142.050752,92.763151 142.55016,91.6794549 143.06474,90.56143 C144.204348,90.6961477 145.384455,90.8357447 146.644978,90.9840911 C146.153419,92.207255 145.662869,93.4298362 145.177594,94.6359138 C144.163019,94.4007467 142.876238,94.1020276 141.572528,93.7996253 L141.572528,93.7996253 Z M152.148145,98.2151809 C152.184216,97.485124 152.266178,96.8671879 152.231232,96.2588798 C152.172864,95.2603571 151.6055,94.7508429 150.604727,94.6934263 C150.464323,94.6856668 150.321514,94.6900613 150.180142,94.692281 C148.493383,94.7240781 148.319519,94.506852 148.695503,92.8457445 C149.109796,91.0225564 150.781767,89.5525724 152.655315,89.3617922 C152.966706,89.3300475 153.276931,89.2962842 153.586418,89.25891 C155.813936,88.9889236 156.610178,89.2142207 157.813973,91.7840976 C158.731408,93.741437 158.235852,95.8201398 156.691284,97.0725681 C155.364796,98.1479482 153.883312,98.6331914 152.148145,98.2151809 L152.148145,98.2151809 Z" id="Hour-" sketch:type="MSShapeGroup" transform="translate(142.321760, 95.904073) rotate(-60.000000) translate(-142.321760, -95.904073) "></path>
            </g>
        </g>
    </g>
</svg>