<?xml version="1.0" encoding="UTF-8" standalone="no"?>
<svg width="13px" height="39px" viewBox="0 0 26 78" version="1.1" xmlns="http://www.w3.org/2000/svg" xmlns:xlink="http://www.w3.org/1999/xlink" xmlns:sketch="http://www.bohemiancoding.com/sketch/ns">
    <!-- Generator: Sketch 3.3 (11970) - http://www.bohemiancoding.com/sketch -->
    <title>Fill 1</title>
    <desc>Created with Sketch.</desc>
    <defs></defs>
    <g id="Page-1" stroke="none" stroke-width="1" fill="none" fill-rule="evenodd" sketch:type="MSPage">
        <path d="M13.5504447,42.9162831 C11.9403949,41.1114361 9.95939688,40.2679754 7.64871836,40.0863669 C4.57666037,39.8448216 1.92525571,40.9185894 -0.483452528,42.6519618 C-1.63250193,43.47879 -2.71036857,44.402566 -3.79559894,45.3106086 C-4.38669205,45.8049374 -4.76300956,45.7713728 -5.20943597,45.1714054 C-5.41500689,44.8952465 -5.74683518,44.7113904 -6.00594658,44.4698451 C-6.71823449,43.8051459 -7.48667086,43.1840508 -8.11013372,42.4465284 C-8.63633391,41.823785 -8.99040681,41.0624377 -9.51246491,40.2131332 C-10.426335,43.0812592 -12.1206076,45.1005301 -15.052141,45.9074293 C-16.8890859,46.4129963 -18.7031726,46.2866795 -20.4578892,45.5663889 C-23.8923043,44.1563756 -25.7226525,40.6377855 -24.9941031,36.893833 C-24.332134,33.4913705 -21.2783319,30.9951524 -17.6800738,30.8274792 C-14.0032691,30.6562098 -10.8324143,32.6582489 -9.62015953,36.6982892 C-9.49835108,36.522075 -9.3814518,36.402501 -9.32238851,36.2600013 C-8.64814657,34.6336161 -7.34783379,33.6424112 -5.80543823,32.8680277 C-5.50168418,32.7154885 -5.26374351,32.403967 -5.04682017,32.1273586 C-4.59885965,31.5564606 -4.21978073,31.8711288 -3.82689482,32.1762071 C-2.56861668,33.153177 -1.3661802,34.2101626 -0.040094346,35.0892857 C1.96759718,36.4203322 4.14097274,37.5222704 6.65077892,37.3580435 C9.08341929,37.1989113 11.3026648,36.3424144 13.3025323,34.7495938 C13.0894443,34.5264791 12.9394082,34.3754383 12.7962756,34.2185537 C12.4748793,33.8659755 12.10163,33.543965 11.8491152,33.1486818 C11.3637224,32.3889828 11.6670162,31.6643468 12.5354767,31.4006249 C13.1446723,31.21557 13.8032663,31.1361537 14.3630635,30.8605943 C14.8119445,30.6397271 15.3139057,30.2631742 15.4947775,29.8356749 C15.8654188,28.959249 16.5169559,28.5728064 17.3748309,28.3643762 C17.6474425,28.2979962 17.9174461,28.2212771 18.1899043,28.1535485 C18.853254,27.9885724 19.2998339,27.6265541 19.560326,26.9745915 C19.6638785,26.7153649 20.0469461,26.4050421 20.3014552,26.406091 C20.5473732,26.4072897 20.9160202,26.7349942 21.0132828,26.9964685 C21.3239404,27.8318377 21.9451021,28.3508904 22.6695095,28.7963707 C23.2532388,29.1552423 23.8572185,29.4839957 24.4291352,29.8594998 C25.2916126,30.4259026 25.7384992,31.2160195 25.7648859,32.2520272 C25.7994034,33.6187362 26.2808076,34.156669 27.6444792,33.9836015 C29.4702251,33.7517959 31.0003478,34.2269449 32.5801756,35.0904844 C35.6433358,36.764819 39.060262,37.3351177 42.5115523,37.6863474 C43.7316311,37.8105664 44.9552383,37.9054164 46.1786921,37.9950219 C47.0104873,38.0558578 47.8186571,38.114446 48.6565888,37.8036737 C49.2211417,37.5943444 49.9159408,37.6830509 50.5504492,37.7023805 C51.1367866,37.7200618 51.39329,38.1337756 51.4445293,38.6528284 C51.4950016,39.1628906 51.2507711,39.6149639 50.7371506,39.6543724 C49.9424809,39.7150584 49.1321633,39.6530238 48.3345788,39.5791517 C47.7416447,39.5243095 47.1579154,39.2689787 46.5711178,39.2725749 C40.9611794,39.3074881 35.7450474,40.8641968 30.7271225,43.2069766 C30.1110234,43.4946733 29.3735761,43.5507142 28.6838396,43.664744 C28.2590442,43.7350199 27.8150724,43.6863212 27.3849075,43.73487 C26.2005736,43.8682294 25.4339781,44.4502158 25.3425451,45.7361599 C25.2957547,46.3956146 24.749611,47.0806923 24.2798661,47.6331598 C23.9023213,48.0769918 23.2983417,48.335769 22.7982214,48.6814545 C22.076422,49.1802785 21.4748969,49.7532744 21.216706,50.6346451 C21.1357049,50.9109538 20.7735012,51.2999436 20.5496744,51.2939499 C20.2973131,51.2873569 19.9068817,50.9290847 19.8389206,50.6604179 C19.6675604,49.9837314 19.2624015,49.863708 18.6258987,49.7111688 C17.8714228,49.5301596 17.1431801,49.0938197 16.5097455,48.6299088 C15.9912159,48.2500593 15.6369896,47.659532 15.1943985,47.1761416 C14.57293,46.4973573 13.8368633,46.155268 12.8683788,46.377184 C12.6821377,46.419889 12.3438662,46.2619555 12.2283476,46.0954811 C11.4858377,45.026658 11.5450544,44.6901128 12.5245845,43.828821 C12.8450603,43.5469681 13.162468,43.2615191 13.5504447,42.9162831 L13.5504447,42.9162831 Z M19.8290197,29.3926399 C19.0728919,29.6644659 18.2587064,29.8333463 17.5736571,30.2312882 C16.393969,30.9169178 16.4042325,31.2748946 17.4085222,32.1455773 C18.3264148,32.9411502 18.4091354,33.6913152 17.6182343,34.6128486 C17.2701949,35.0182549 16.8474006,35.3637911 16.4292019,35.6987528 C16.1248206,35.942743 16.1001576,36.1427248 16.3104824,36.4767535 C17.3690001,38.1579378 19.8878432,38.8542974 21.7645292,37.9615327 C23.34434,37.2101237 24.6536237,34.2455415 24.1124164,32.6459983 C23.4619871,30.7240894 21.8668577,29.5562331 19.8290197,29.3926399 L19.8290197,29.3926399 Z M17.1059903,46.0963829 C18.220835,47.1737989 19.5446294,47.4634081 21.011882,47.2431829 C22.7207561,46.9867384 24.0074237,45.6482233 24.1835534,43.7782003 C24.4149279,41.3234316 23.9177253,40.8032697 22.1314789,40.0237541 C21.8828776,39.9152415 21.6354644,39.8038198 21.3890907,39.6906526 C19.9017896,39.00714 18.0016381,39.3713697 16.88813,40.5540981 C15.8736764,41.6319505 15.9087241,41.8707944 17.1854417,42.5908172 C17.292664,42.6513283 17.4009259,42.7106756 17.5029504,42.7788959 C18.2273693,43.2632749 18.4272602,43.8942768 18.0307456,44.667974 C17.7891241,45.1394071 17.4545371,45.5650206 17.1059903,46.0963829 L17.1059903,46.0963829 Z M-14.065238,38.3638306 C-14.0554928,36.7393882 -15.3822594,35.3962279 -17.0260605,35.3662348 C-18.6868372,35.3360863 -20.1030399,36.6964966 -20.1127851,38.3315065 C-20.1225303,39.9585907 -18.7063276,41.3530346 -17.058597,41.3387374 C-15.4242268,41.3245956 -14.0749832,39.9837663 -14.065238,38.3638306 L-14.065238,38.3638306 Z M2.06188316,39.1160585 C2.0473591,39.0346361 2.03283504,38.9533604 2.01831098,38.8719379 C0.587316756,38.1900435 -0.83604111,37.4920113 -2.27916368,36.8357907 C-2.7490245,36.6220385 -3.26155911,36.465502 -3.77154826,36.3820257 C-4.09182624,36.3295046 -4.49041436,36.3763042 -4.77251053,36.5259454 C-5.80446744,37.0733094 -6.30622131,38.8783931 -5.80671343,40.0617322 C-5.32008256,41.2148497 -4.42423256,41.6309109 -2.95490679,41.1294662 C-1.25080035,40.5477727 0.392364943,39.7947254 2.06188316,39.1160585 L2.06188316,39.1160585 Z M24.2366014,38.8013253 C25.0408524,39.8162491 25.8154313,40.8437638 26.64017,41.8172491 C27.2338915,42.5180374 28.6389286,42.4901461 29.2763101,41.8330276 C28.2307274,39.4283213 28.2307274,39.4283213 28.9277355,35.6296885 C28.0764333,35.1541024 27.2581942,35.308381 26.4441939,36.1970768 C25.7035257,37.0057645 25.0161257,37.8764506 24.2366014,38.8013253 L24.2366014,38.8013253 Z M11.1333588,38.1284482 C11.9761327,38.9289553 12.8084609,39.7197035 13.4649541,40.3433292 C14.3591649,39.6541015 15.2661953,38.9551148 16.1730675,38.2561282 C15.295,37.5889937 14.4723261,36.9640126 13.6789316,36.3612603 C12.800231,36.9711963 11.9485942,37.5625632 11.1333588,38.1284482 L11.1333588,38.1284482 Z M31.5561177,41.3388464 C32.654766,40.9055276 33.8536389,40.4654358 35.0195283,39.9388341 C35.2042643,39.855249 35.3101513,39.3856023 35.3233164,39.0877437 C35.3342165,38.8396052 35.2052552,38.4073639 35.0526534,38.3556428 C33.9225787,37.9726598 32.7711284,37.6646417 31.7087195,37.3567775 C31.576927,37.8847646 31.4490982,38.3828887 31.3301877,38.8834758 C31.3024419,39.0004642 31.2830481,39.1288436 31.2966379,39.2469095 C31.3752038,39.9306757 31.4648114,40.6129027 31.5561177,41.3388464 L31.5561177,41.3388464 Z" id="Fill-1" fill="#F6A623" sketch:type="MSShapeGroup" transform="translate(13.149242, 38.850053) rotate(-91.000000) translate(-13.149242, -38.850053) "></path>
    </g>
</svg>