<svg width="10" height="69" viewBox="0 0 21 138" xmlns="http://www.w3.org/2000/svg"><title>Minute</title><path d="M18.47 120.402c-1.248-1.526-2.842-2.594-4.574-3.207.083-.202.17-.392.29-.556 1.78-2.45 2.258-5.174 1.688-8.107-.38-1.957.135-3.28 1.916-4.396-.588-.57-1.187-1.092-1.717-1.68-.557-.617-1.063-1.284-1.564-1.95-.622-.828-1.223-1.625-.008-2.534.33-.25.474-.906.503-1.388.048-.795-.084-1.6-.107-2.4-.022-.76-.216-1.612.06-2.248.276-.638 1.037-1.06 1.657-1.645-.23-.197-.54-.483-.87-.744-1.527-1.207-1.528-1.204-.702-2.866-.193-.09-.377-.217-.58-.26-1.026-.23-1.327-.72-.893-1.79.45-1.108.694-2.302 1.035-3.456.612-2.063.678-4.155-.182-6.12-.783-1.79-1.806-3.474-2.77-5.177-1.2-2.114-2.692-4.093-3.614-6.32-1.58-3.813.92-8.378 4.827-9.323.35-.085.687-.236 1.297-.453-1.735-.682-1.777-1.865-1.445-3.178-1.937.38-1.93.38-1.825-1.572.138-2.554.254-5.11.39-7.663.115-2.18.244-4.362.37-6.593h2.138c-.022-.197-.008-.348-.057-.47-1.992-5.07-2.605-10.39-2.743-15.784-.147-5.698-.214-11.397-.328-17.096-.01-.474-.124-.946-.19-1.42-.12 0-.238-.002-.357-.004-.11.615-.3 1.23-.316 1.847-.16 6.135-.342 12.27-.42 18.406-.063 4.85-.382 9.64-2.172 14.21-.047.118-.027.264-.04.432.17-.015.284.005.37-.036 1.615-.76 1.768-.66 1.882 1.18.475 7.634-1.066 14.9-3.944 21.9-.545 1.328-.615 2.603-.342 3.954.115.572.26 1.14.376 1.71.254 1.242.228 2.413-.963 3.322 1.656 1.517-.278 2.222-.805 3.33.823.117 1.492.235 2.165.303 3.222.324 6.88 5.02 6.143 8.666-.703 3.472-2.44 6.112-5.126 8.2-.786.612-1.683 1.08-2.492 1.593.672 1.082 1.333 2.15 2 3.227-2.093 2.506-1.622 5.25-.777 8.094l-1.926.17c.29 1.37 2.432 2.175.75 3.823 1.19.608 1.116 1.457.64 2.433-.452.924-.928 1.924-.36 2.92.49.863 1.006 1.568.037 2.455-.228.21-.286.802-.19 1.15.328 1.172.733 2.324 1.165 3.46.097.25.233.49.397.755-.596.268-1.174.595-1.726.983l-.14.01v.094c-.153.112-.31.217-.46.338-4.444 3.632-5.103 10.178-1.472 14.622 3.632 4.445 10.178 5.105 14.623 1.473 4.444-3.632 5.104-10.178 1.472-14.623zm-7.852-26.684c.557.142 1.257.7 1.418 1.22.234.757-.47 1.268-1.176 1.404-1.088.21-1.052.86-.657 1.59.722 1.334 1.524 2.625 2.285 3.94.24.418.456.85.833 1.56-.782-.144-1.274-.166-1.717-.328-2.225-.812-4.17-3.587-4.23-5.972-.05-2.06 1.575-3.84 3.245-3.414zm-3.246 17.83c.24-.33.467-.61.658-.91.624-.983.48-1.487-.495-2.133-.335-.22-.574-.59-.857-.89.336-.24.64-.57 1.013-.702 2.963-1.06 5.89.95 5.958 4.148.02.923-.164 1.904-.49 2.766-1.064 2.82-3.948 2.91-5.74 2.128-.895-.39-.954-.906-.268-1.435 1.62-1.253 1.62-1.253.222-2.97zm3.05 19.067c-1.98 0-3.59-1.607-3.59-3.588 0-1.983 1.608-3.59 3.59-3.59 1.982 0 3.588 1.607 3.588 3.59 0 1.98-1.606 3.588-3.588 3.588z" fill="#EC9E3F" fill-rule="evenodd"/></svg>