<?xml version="1.0" encoding="UTF-8" standalone="no"?>
<svg width="131px" height="131px" viewBox="0 0 262 262" version="1.1" xmlns="http://www.w3.org/2000/svg" xmlns:xlink="http://www.w3.org/1999/xlink" xmlns:sketch="http://www.bohemiancoding.com/sketch/ns">
    <!-- Generator: Sketch 3.3 (11970) - http://www.bohemiancoding.com/sketch -->
    <title>Group</title>
    <desc>Created with Sketch.</desc>
    <defs></defs>
    <g id="Page-1" stroke="none" stroke-width="1" fill="none" fill-rule="evenodd" sketch:type="MSPage">
        <g id="Group" sketch:type="MSLayerGroup" transform="translate(1.000000, 1.000000)">
            <g id="Rectangle-81-Copy-5-+-Imported-Layers-+-Oval-52-+-Oval-52-Copy-+-Oval-54-+-Imported-Layers" sketch:type="MSShapeGroup">
                <g id="Rectangle-81-Copy-5-+-Imported-Layers-+-Oval-52-+-Oval-52-Copy">
                    <g id="Rectangle-81-Copy-5-+-Imported-Layers" transform="translate(10.322709, 10.322709)" fill="#FFFFFF">
                        <g id="Imported-Layers">
                            <g id="Group" transform="translate(0.675208, 0.177291)">
                                <path d="M108.867665,0.383642764 C108.478692,0.63830127 108.30756,0.8011793 108.103046,0.87318173 C107.734129,1.00309635 107.321011,1.02752805 106.969906,1.18756218 C106.2611,1.51073287 106.016871,2.04189623 106.213864,2.77937175 C106.301739,3.10810098 106.445559,3.43553753 106.628434,3.72432286 C107.969914,5.84445188 109.327623,7.9547565 110.743784,10.1671831 C111.022847,9.90192457 111.255333,9.73167825 111.423167,9.51360266 C112.772827,7.75981994 114.110349,5.99711771 115.451434,4.23700085 C115.530337,4.13358622 115.610295,4.03068867 115.685107,3.92443015 C116.957185,2.1170011 116.578768,1.22724754 114.384266,0.849137831 C114.188065,0.815269542 114.000571,0.73215004 113.572411,0.597452495 C113.956766,0.367742766 114.129217,0.194135469 114.325155,0.163240351 C114.668475,0.109335479 115.026176,0.140101329 115.377809,0.140101329 C124.34608,0.139584256 133.314219,0.138808646 142.282357,0.141781817 C142.790212,0.141911085 143.298067,0.173323276 143.805921,0.190128153 C143.828088,0.276350094 143.850123,0.362572035 143.872157,0.448793976 C143.697463,0.570693961 143.538074,0.7583915 143.345039,0.8011793 C142.919518,0.895803679 142.466684,0.876025633 142.043538,0.977242694 C141.154495,1.19001828 140.560481,1.72105236 140.448856,2.64919859 C140.361509,3.37465217 140.265189,4.10488867 140.26321,4.83331541 C140.248036,10.3466074 140.252391,15.8600287 140.25912,21.3733208 C140.25978,21.9317597 140.282606,22.4945938 140.354516,23.0479913 C140.532509,24.4181058 141.130614,25.0131277 142.518274,25.2348228 C142.942344,25.3024301 143.373539,25.326991 144.021255,25.3940813 C143.734539,25.6797642 143.606421,25.9189105 143.432386,25.9571739 C143.096191,26.0309861 142.734004,25.9978934 142.382635,25.9978934 C132.88619,25.9990568 123.389877,25.9990568 113.893432,25.9977641 C113.542064,25.9977641 113.183307,26.0205153 112.842494,25.9575617 C112.692341,25.929769 112.578473,25.7133739 112.32514,25.4591032 C112.899362,25.3196227 113.312744,25.2419325 113.711217,25.1179642 C114.699614,24.8105643 115.092808,24.0752863 114.781947,23.1025425 C114.691301,22.8187987 114.543127,22.5455255 114.381891,22.2915133 C112.849751,19.8784624 111.31009,17.4700651 109.767394,15.0634776 C109.700103,14.9585118 109.581749,14.8850874 109.409297,14.7242777 C108.981269,15.2903434 108.566963,15.8379239 108.153053,16.3860214 C106.924121,18.0131212 105.693475,19.6389283 104.46771,21.2683549 C104.155001,21.684211 103.832265,22.0960597 103.558084,22.5359597 C102.696222,23.9180961 103.062764,24.7809618 104.658897,25.1987569 C104.926877,25.2689496 105.184696,25.3768886 105.695454,25.5528227 C105.273231,25.77943 105.078481,25.974108 104.881884,25.9757885 C102.332187,25.9976349 99.7822269,26.0003495 97.2325305,25.9779861 C97.0212873,25.9761763 96.8120232,25.7577129 96.4148701,25.5352422 C96.8199399,25.3500008 96.96244,25.2547301 97.1193221,25.2176301 C98.899386,24.7973789 100.372283,23.8482912 101.485631,22.4757206 C103.916577,19.4783771 106.259253,16.4122628 108.572769,13.4575778 C108.540178,13.225412 108.555352,13.1249705 108.512998,13.0609827 C106.574864,10.1360294 104.675522,7.18483464 102.664292,4.30874474 C102.005493,3.36689607 101.129117,2.52872056 100.210915,1.81852064 C99.6219143,1.36297923 98.7757539,1.22492071 98.0422742,0.950871965 C97.7444753,0.839571978 97.4402112,0.744947599 97.1525721,0.401481786 C97.3651348,0.316293991 97.5775655,0.157811083 97.790524,0.157035474 C101.263568,0.143979378 104.736613,0.149408645 108.209657,0.158328156 C108.330123,0.158715961 108.450324,0.237440342 108.867665,0.383642764 L108.867665,0.383642764 Z M111.712257,11.6373512 C114.064565,15.2103264 116.318705,18.6517065 118.596728,22.0778329 C119.002985,22.6887548 119.482999,23.2581815 119.973569,23.8084766 C120.974237,24.930913 122.291835,25.3282837 123.766579,25.2493008 C124.968462,25.1849252 125.987602,24.5464692 126.044206,23.2028547 C126.073234,22.5155353 126.173907,21.8297671 126.175359,21.143094 C126.186574,15.7156361 126.183803,10.2881782 126.178525,4.86084955 C126.177998,4.30163498 126.166387,3.73905944 126.103053,3.18423999 C125.925456,1.62836701 125.265469,1.00917196 123.658516,0.849913441 C121.566932,0.642696392 119.807847,1.34914753 118.523499,2.93268393 C116.229379,5.7612031 114.030391,8.66392227 111.712257,11.6373512 L111.712257,11.6373512 Z M136.752693,13.025951 C136.752693,10.2735709 136.759818,7.5211907 136.747548,4.76881054 C136.744645,4.12557159 136.681443,3.48220337 136.63711,2.8394815 C136.564277,1.78335967 135.923818,1.11504268 134.924074,1.00464757 C133.763094,0.876413437 132.565037,0.891537826 131.40221,1.01615245 C130.563307,1.10612317 130.003862,1.7160109 129.887882,2.58598641 C129.797105,3.26632535 129.701973,3.95286917 129.700125,4.63682763 C129.68548,10.3135148 129.689966,15.9904604 129.695771,21.6671476 C129.696299,22.1389768 129.718202,22.6145548 129.781931,23.0817303 C129.964542,24.4225009 130.592598,25.0756935 131.974454,25.2253862 C132.797524,25.3145813 133.644212,25.3048862 134.470317,25.2314618 C135.807047,25.1126642 136.416367,24.5176424 136.612304,23.2098352 C136.707568,22.5746109 136.743457,21.9259427 136.746756,21.2830915 C136.760874,18.5308406 136.752693,15.7783312 136.752693,13.025951 L136.752693,13.025951 Z" id="Fill-3"></path>
                                <path d="M5.34178663,162.9069 C5.56576872,162.921806 5.81099972,162.866495 5.92780184,162.961819 C6.12465483,163.122261 6.22648918,163.38901 6.39207021,163.592341 C7.10464332,164.467644 7.79182467,164.683005 8.85547234,164.284843 C9.5175292,164.036923 10.1648856,163.731861 10.7799008,163.386133 C15.7978482,160.564737 20.807777,157.729481 25.8166368,154.892786 C26.2782323,154.631267 26.7324777,154.351573 27.162133,154.04285 C28.3125136,153.21645 28.5109703,152.519372 28.0044714,151.219623 C27.8113604,150.724045 27.8113604,150.724045 27.9687893,150.21866 C28.0104853,150.211991 28.0536513,150.195777 28.0936099,150.201269 C28.1361077,150.207153 28.1955779,150.222321 28.2136194,150.252788 C32.6427451,157.705813 37.0694652,165.160277 41.4921761,172.616964 C41.5994897,172.797804 41.6628355,173.003619 41.82561,173.380599 C41.456093,173.314827 41.2111293,173.33261 41.0531658,173.226564 C40.8821055,173.111626 40.8043265,172.871683 40.6648055,172.702873 C39.911071,171.790303 39.2009034,171.583833 38.0743109,172.029331 C37.4166642,172.289542 36.7810682,172.615918 36.1651174,172.962561 C31.2246818,175.743029 26.2903937,178.53422 21.357041,181.326587 C20.8949109,181.588237 20.4563016,181.889114 19.9981807,182.157825 C19.050266,182.713683 18.6121912,183.503078 18.8834822,184.577658 C19.158916,185.668061 19.9464616,186.340557 21.0308236,186.461771 C21.9868904,186.568732 22.9993536,186.520351 23.9452637,186.335719 C31.3209032,184.896319 38.6859851,183.405531 46.0558781,181.937757 C46.5602387,181.837333 47.0767607,181.795229 47.5875361,181.725926 C47.6495454,181.811443 47.7115548,181.89709 47.7735642,181.982738 C47.5445037,182.314344 47.3457797,182.671448 47.081839,182.974025 C42.1949934,188.574451 37.300263,194.168208 32.4080717,199.764057 C32.0318726,200.194387 31.6754524,200.642107 31.2870921,201.061452 C30.4114771,202.006712 30.0906054,203.069786 30.4617261,204.321154 C30.5214636,204.522262 30.4244403,204.767828 30.393302,205.052884 C29.6854063,204.577312 26.6477493,199.841205 25.9031024,198.112958 C25.8334755,197.95147 25.8937476,197.736371 25.8937476,197.223663 C26.3912925,197.646932 26.6706019,197.878637 26.9433629,198.117666 C27.8140332,198.881301 28.3944355,198.960672 29.3144192,198.271177 C29.9452041,197.79822 30.5215972,197.235432 31.0421284,196.645314 C34.5047633,192.720047 37.9461493,188.776866 41.3916781,184.837216 C41.5021991,184.710772 41.5817155,184.558568 41.8169234,184.207479 C40.7258793,184.405448 39.8401077,184.551507 38.9607507,184.728032 C34.6449525,185.594051 30.3298225,186.463602 26.0169644,187.343874 C25.3205619,187.486009 24.6277676,187.659658 23.9491393,187.868219 C22.5602097,188.294887 22.1993794,188.879251 22.349859,190.311197 C22.3854075,190.649341 22.7475742,191.092223 22.1015543,191.268879 C21.3506262,190.560556 5.75420235,164.206648 5.34178663,162.9069 L5.34178663,162.9069 Z M17.4275986,179.848875 C17.9491989,179.621092 18.7506432,179.348197 19.4743085,178.942712 C24.7642149,175.97905 30.0395546,172.990543 35.3154288,170.002952 C35.7378676,169.763793 36.1402602,169.486452 36.533298,169.202051 C37.3169681,168.634555 37.5420193,167.812209 37.2065807,166.992739 C36.8652619,166.158494 36.3592976,165.362169 35.7911903,164.651884 C35.3303966,164.075889 34.6075331,163.875173 33.8571396,164.194488 C33.1243867,164.506218 32.3790716,164.804742 31.688282,165.192575 C26.7104269,167.986903 21.7435304,170.800061 16.7778367,173.61505 C16.2397985,173.919981 15.7207374,174.260217 15.2137039,174.612483 C14.9639291,174.786001 14.7011912,174.989593 14.5484397,175.24039 C14.0369961,176.079735 14.2111301,176.913718 14.6923709,177.706774 C15.2757133,178.667986 15.701894,179.810562 17.4275986,179.848875 L17.4275986,179.848875 Z M12.6714537,172.20991 C13.358635,171.905371 14.15313,171.62633 14.8742561,171.222022 C20.1561442,168.259798 25.4300137,165.283845 30.6919893,162.288146 C33.159267,160.883529 33.3499725,160.045099 31.8485174,157.695352 C31.7310471,157.511374 31.606761,157.328311 31.4617607,157.164992 C30.8252292,156.447254 30.1143935,156.241569 29.1921378,156.602204 C28.4937307,156.875229 27.8173742,157.216381 27.1644049,157.583815 C22.1951029,160.379843 17.2322156,163.186856 12.2725357,165.99936 C11.6584559,166.347572 11.0113668,166.681009 10.5003241,167.14782 C10.1452404,167.472234 9.80485707,168.008217 9.79216118,168.458683 C9.75126708,169.90279 10.5369417,171.004046 11.6589905,171.871243 C11.8849772,172.045937 12.2328444,172.069605 12.6714537,172.20991 L12.6714537,172.20991 Z" id="Fill-4"></path>
                                <path d="M236.781399,138.607907 C236.661469,138.395361 236.46367,138.193938 236.433589,137.96866 C236.067549,135.23223 235.66036,134.789045 232.979841,134.772428 C227.079053,134.735708 221.177875,134.739192 215.277087,134.773232 C212.777309,134.787571 212.278708,135.312638 211.970354,137.858501 C211.941185,138.09986 211.837923,138.331704 211.687913,138.84672 C211.485165,138.390938 211.347786,138.196082 211.316273,137.984474 C211.270827,137.678788 211.300908,137.361041 211.300908,137.048521 C211.300647,126.777826 211.299605,116.507265 211.304033,106.236705 C211.304293,105.736833 211.353515,105.236961 211.379949,104.737089 C211.471752,104.722481 211.563555,104.707874 211.655489,104.693132 C211.755886,104.848991 211.915011,104.993592 211.945482,105.162717 C212.024133,105.600139 212.01619,106.054178 212.096274,106.491197 C212.304751,107.629244 212.875883,108.209524 213.990021,108.382134 C214.502035,108.46147 215.027981,108.470181 215.547678,108.470717 C221.361871,108.476346 227.176065,108.474604 232.990389,108.472594 C233.337287,108.47246 233.685097,108.465089 234.030954,108.439894 C235.526627,108.331075 236.186828,107.67387 236.379289,106.116092 C236.497656,105.157625 236.497656,105.157625 236.842732,104.700637 C237.314508,105.008869 237.126996,105.49869 237.129339,105.89832 C237.148742,109.247328 237.150304,112.596337 237.149653,115.945345 C237.148221,123.045136 237.142231,130.144926 237.138064,137.244717 C237.137804,137.667263 237.138064,138.089809 237.138064,138.512489 C237.019176,138.54425 236.900288,138.576145 236.781399,138.607907 L236.781399,138.607907 Z M224.24019,130.985194 C224.24019,130.976349 224.24019,130.967504 224.24032,130.958793 C227.489498,130.958793 230.739196,130.99176 233.987852,130.944185 C235.505272,130.922073 236.221466,130.213273 236.35624,128.67801 C236.441663,127.706543 236.43411,126.714169 236.350251,125.741898 C236.241259,124.478013 235.612961,123.85793 234.369909,123.660126 C233.773124,123.56511 233.164359,123.507484 232.560803,123.506278 C226.928392,123.495288 221.295982,123.497299 215.663571,123.505072 C215.145567,123.505876 214.623267,123.542059 214.110472,123.616571 C212.894635,123.793336 212.347853,124.292537 212.11789,125.539403 C211.99796,126.188701 211.999783,126.867213 211.995876,127.532861 C211.979469,130.251065 212.625215,130.950484 215.271748,130.977957 C218.261012,131.009048 221.250796,130.985194 224.24019,130.985194 L224.24019,130.985194 Z M224.253993,119.728157 L224.253993,119.700818 C227.50317,119.700818 230.752999,119.734321 234.001525,119.686076 C235.51022,119.663696 236.221987,118.945247 236.359105,117.407035 C236.441793,116.479257 236.433329,115.533386 236.365095,114.603463 C236.26626,113.253675 235.651375,112.600089 234.356106,112.402418 C233.673768,112.298424 232.977237,112.249911 232.287086,112.248302 C226.871357,112.236375 221.455498,112.237983 216.039768,112.246962 C215.391808,112.248034 214.738509,112.276177 214.09719,112.364358 C212.889426,112.530402 212.342123,113.046355 212.115155,114.296035 C211.997178,114.946003 211.998871,115.624114 211.995095,116.289761 C211.979208,118.990544 212.635242,119.694385 215.285551,119.721188 C218.274815,119.751475 221.264469,119.728157 224.253993,119.728157 L224.253993,119.728157 Z" id="Fill-5"></path>
                                <path d="M44.7748617,213.711158 C45.0181261,213.737293 45.283932,213.708006 45.5008764,213.798231 C47.3018411,214.547352 47.901989,214.386732 48.9992198,212.776597 C49.3426826,212.272674 49.6495319,211.742223 49.9533845,211.212428 C52.6246027,206.55538 55.2938664,201.89702 57.956485,197.23485 C58.3024234,196.629145 58.6406744,196.014641 58.9235491,195.377679 C59.4365283,194.222479 59.2250563,193.416754 58.2506955,192.592118 C57.9887986,192.370429 57.7171294,192.160166 57.4544507,191.939265 C57.4312579,191.919696 57.4412908,191.85994 57.4186191,191.688814 C57.6218824,191.658345 57.8458628,191.562997 58.0319269,191.612378 C58.2751914,191.676863 58.4893996,191.854555 58.7149436,191.985625 C63.4881125,194.76173 68.2615421,197.537571 73.0336686,200.315515 C73.2958261,200.468123 73.5809159,200.605759 73.7886092,200.816942 C73.8856805,200.915704 73.8232682,201.173772 73.8400765,201.487131 C73.3229279,201.268463 72.9380306,201.088143 72.5408854,200.941576 C71.5696518,200.582907 70.8743872,200.73788 70.2129998,201.538219 C69.798916,202.039384 69.4377328,202.593738 69.1125116,203.159124 C66.216922,208.191519 63.33345,213.230875 60.4507599,218.270625 C60.212577,218.68708 59.9854694,219.112335 59.7888513,219.549803 C59.130591,221.014816 59.7355598,222.358741 61.2543013,222.860037 C62.0875504,223.135047 62.9193663,223.097486 63.6378238,222.622194 C64.6854114,221.929152 65.7185361,221.196318 66.6712675,220.378117 C71.957155,215.838612 77.212553,211.263122 82.4944013,206.718889 C82.8832075,206.384385 83.1927931,205.784459 83.9958133,205.995904 C83.9748355,206.383991 83.9903408,206.765512 83.9291012,207.134162 C82.6888044,214.594237 81.4393867,222.052736 80.1927053,229.511761 C80.1206511,229.943056 80.079347,230.380919 79.9830575,230.806304 C79.6558818,232.252405 79.9468349,233.493628 81.112211,234.470741 C81.2045916,234.548227 81.2500652,234.682449 81.4380838,234.983988 C81.0808095,235.011962 80.8009316,235.121493 80.6148675,235.032319 C80.0287917,234.751267 79.4776355,234.396407 78.91358,234.068864 C77.3720365,233.173308 75.8289295,232.280248 74.2907738,231.378782 C73.9361054,231.170883 73.5990271,230.932515 73.2881386,230.730657 C73.527885,230.046284 73.8796868,230.290824 74.1999568,230.372776 C75.8977263,230.807355 76.5313605,230.527354 76.9447927,228.791008 C77.4499541,226.669333 77.7853385,224.505238 78.158509,222.353093 C78.7857586,218.735279 79.3859065,215.112606 79.9923086,211.491115 C80.0194103,211.32997 79.9958266,211.160157 79.9958266,210.857961 C79.6616149,211.105523 79.4135294,211.265092 79.1926761,211.456575 C75.3108687,214.823675 71.4297129,218.191695 67.5565051,221.569039 C67.098381,221.968552 66.6579772,222.397484 66.2623956,222.858855 C65.4397006,223.818501 65.449994,224.550941 66.2097557,225.555897 C66.4438993,225.86571 66.95753,226.074791 66.6641012,226.695206 C66.4921092,226.677738 66.3070875,226.71136 66.1823933,226.638995 C59.0079815,222.479304 51.8386513,218.310682 44.6688,214.142979 C44.7041104,213.999039 44.7395512,213.855098 44.7748617,213.711158 L44.7748617,213.711158 Z M67.4629519,199.007838 C67.2578645,198.597293 67.1536269,198.02928 66.8177213,197.785396 C65.9156754,197.130572 64.950696,196.533929 63.939331,196.073084 C63.322896,195.792164 62.6380551,196.063759 62.1851428,196.619033 C61.7735347,197.123612 61.3767804,197.651831 61.0520804,198.215509 C58.0903,203.356911 55.1435037,208.507111 52.1998345,213.65915 C51.9408042,214.11251 51.7030122,214.583993 51.5096515,215.069004 C51.1164152,216.055967 51.2729019,216.884018 52.1125356,217.529385 C52.7947705,218.053927 53.564565,218.492709 54.3514284,218.841265 C55.2655919,219.246163 56.0187084,219.013704 56.6602907,218.201151 C57.1171119,217.622631 57.5142571,216.989084 57.8832581,216.348182 C60.5602093,211.696782 63.2254339,207.038683 65.8881827,202.379141 C66.2991394,201.659965 66.6961543,200.931332 67.0628099,200.188648 C67.2331081,199.843769 67.3151952,199.454499 67.4629519,199.007838 L67.4629519,199.007838 Z" id="Fill-6"></path>
                                <path d="M74.8849877,8.51040183 C74.3940836,8.85449864 74.0869315,9.06798749 73.7815771,9.28391402 C72.4818304,10.2025319 72.2304074,11.0308276 72.8545991,12.4658473 C73.075461,12.9737814 73.3424214,13.4642669 73.6192692,13.9450017 C76.3297071,18.649711 79.0456666,23.3512128 81.7635522,28.0515599 C81.9987958,28.4583947 82.2423859,28.8624069 82.5107588,29.2476876 C83.3854747,30.502961 84.2734166,30.7490377 85.7172372,30.1479588 C86.0959126,29.9902798 86.4654711,29.8110467 87.1005775,29.523273 C86.9431492,29.9729595 86.9255573,30.2097987 86.7985617,30.3407916 C86.6259812,30.5184851 86.371348,30.6181731 86.1490736,30.7463434 C80.702773,33.8874778 75.2580132,37.0314347 69.8046502,40.160509 C69.4540961,40.3616811 69.100717,40.8224014 68.4536687,40.3274254 C68.7817514,40.0287463 69.0469141,39.7886996 69.3105359,39.5469851 C70.3022315,38.6376047 70.2404672,37.6681806 69.1409088,36.88851 C69.0713116,36.8391151 68.9991463,36.7916446 68.9230003,36.7535399 C66.2124339,35.3937032 63.501354,34.0351494 60.7011588,32.6316912 C60.5957358,32.9451246 60.4832503,33.164002 60.4506347,33.394298 C60.0620718,36.1450197 59.6846804,38.897281 59.3072891,41.6495424 C59.2782688,41.8611067 59.2650428,42.0753654 59.2551554,42.2887259 C59.1761844,44.0111345 59.8840982,44.5552488 61.5400489,44.0475713 C62.037887,43.894896 62.037887,43.894896 62.6598958,44.2908254 C60.0144324,45.8174503 57.4525626,47.295835 54.8908213,48.7743479 C54.8104378,48.727134 54.7300544,48.6800484 54.6496709,48.6329628 C54.7057852,48.4075422 54.686524,48.1002671 54.8293138,47.969146 C56.4543182,46.476007 57.2372223,44.5660259 57.5735231,42.449869 C58.0899804,39.200194 58.5654755,35.9441041 59.0527842,32.6898104 C59.090151,32.4396282 59.0832169,32.1827744 59.0945169,31.9709534 C59.014005,31.8576658 58.9804905,31.7568231 58.9141035,31.7251333 C55.670772,30.1819579 52.4389973,28.6135077 49.1721671,27.1215234 C47.7618611,26.4773362 46.2628251,26.0796106 44.6812227,26.4547556 C44.2256308,26.5626547 43.7891717,26.7495858 43.3343503,26.8614622 C43.1259439,26.9127816 42.8944242,26.8701865 42.5989571,26.8701865 C43.0975658,26.1019345 49.4712296,22.1816428 52.180255,20.921879 C52.3714546,20.8329681 52.6210799,20.8696615 52.9806226,21.0798146 C52.7308689,21.3240951 52.486123,21.5736358 52.2307194,21.8118863 C51.0204731,22.9406573 51.0587388,23.8334872 52.5305522,24.6297082 C54.7818028,25.8475184 57.1002108,26.9413922 59.477815,28.1317465 C59.6018572,27.7531373 59.7298801,27.4912799 59.7709707,27.216336 C60.1115089,24.9336476 60.4365098,22.648778 60.7645924,20.364165 C60.7888616,20.1950675 60.8068387,20.0243021 60.8153136,19.8537932 C60.8963391,18.2197824 59.9823304,17.5707199 58.4582548,18.1471654 C58.1145063,18.2771319 57.773326,18.7565837 57.2554562,18.2073375 C57.9805767,17.3196395 59.0657534,17.0026137 59.9665362,16.4330963 C60.941924,15.8162367 61.9608422,15.2682734 62.9612696,14.6909297 C63.9245871,14.135012 64.8888034,13.5806338 65.8519924,13.0245877 C66.8153099,12.4685416 67.7777285,11.9109559 68.7409176,11.3547815 C69.7412166,10.7773096 70.742286,10.2011206 71.7427134,9.62403358 C74.0281206,8.30576558 74.0279922,8.30563728 74.8849877,8.51040183 L74.8849877,8.51040183 Z M61.1218237,28.9264279 C64.9872924,30.7880405 68.715878,32.5925601 72.4548647,34.3756539 C73.0305181,34.6500846 73.644694,34.8533095 74.2555313,35.0429348 C75.8996685,35.5531783 77.3863773,35.1535282 78.7165567,34.1444598 C79.6927149,33.4039204 79.89316,32.5787039 79.4150967,31.42979 C79.1536578,30.8013835 78.8337932,30.1929916 78.493897,29.6021766 C75.8529279,25.0130644 73.2018145,20.4299822 70.5505728,15.8467717 C70.2941418,15.4033718 70.0314189,14.9620247 69.7442984,14.5382544 C68.7614629,13.0870691 67.8516916,12.873067 66.2492871,13.6134782 C64.2149177,14.5536502 63.0968685,16.1775255 62.6857058,18.3163913 C62.4038501,19.7824592 62.1878677,21.2619985 61.9731694,22.73987 C61.6795001,24.7607011 61.4149794,26.785766 61.1218237,28.9264279 L61.1218237,28.9264279 Z" id="Fill-7"></path>
                                <path d="M10.3669695,113.958791 C10.084747,113.801519 9.83934735,113.701939 9.63805722,113.546722 C7.82735684,112.149519 6.02589472,110.74088 4.21766655,109.340721 C3.94533284,109.12974 3.66662343,108.919016 3.36527375,108.753649 C2.17405774,108.100019 1.20390957,108.565154 0.992860701,109.88385 C0.94575855,110.178863 0.978027427,110.490838 0.898135933,110.774287 C0.853505994,110.93233 0.65299656,111.047586 0.494774969,111.210897 C0.148925471,110.260969 0.0543308187,104.145216 0.320418939,102.243688 C0.686176252,102.067014 0.908805481,102.19846 0.950312625,102.579048 C1.14574752,104.367119 2.17718054,105.673994 3.51503778,106.749072 C6.20051098,108.907195 8.93165506,111.009938 11.698451,113.178212 C13.1359775,112.233423 14.5050627,111.344527 15.8626976,110.438799 C17.9098195,109.072819 19.963057,107.714805 21.9871483,106.31606 C23.6051463,105.198066 25.1396094,103.993469 25.3329625,101.825581 C25.3394683,101.752213 25.4122034,101.667152 25.4783025,101.62141 C25.5423198,101.577081 25.637565,101.57631 25.7192782,101.557165 C25.7611757,101.569757 25.8064562,101.575025 25.8435394,101.595069 C25.8769793,101.612929 25.9260332,101.646722 25.9262934,101.673962 C25.960514,105.009185 25.9927829,108.344407 26.0168545,111.67963 C26.0186761,111.923119 25.9586924,112.166994 25.9009207,112.617738 C25.6259847,112.342511 25.4194899,112.217619 25.3425911,112.038503 C25.2443532,111.809405 25.2688151,111.53238 25.2089615,111.283366 C24.9284304,110.118216 24.0716137,109.699081 22.9441547,110.177707 C22.7068223,110.278443 22.4792487,110.408861 22.2629952,110.549558 C19.9097092,112.079749 17.5588955,113.613537 15.2106841,115.151309 C15.0760136,115.239453 14.9697085,115.369486 14.7815601,115.543718 C15.6729878,116.238466 16.5170532,116.901218 17.3665834,117.55729 C18.8350776,118.691602 20.3051331,119.82373 21.7784415,120.952003 C22.0864272,121.187912 22.3972753,121.424848 22.7299831,121.623751 C24.0073362,122.388011 24.8890052,122.016802 25.2163781,120.591717 C25.358205,119.974321 25.3583352,119.974321 25.7937048,119.649369 C26.077749,120.518863 26.1460601,137.25331 25.8400262,138.815623 C25.6373048,138.582671 25.428598,138.444929 25.3801947,138.265043 C25.2926264,137.938677 25.316828,137.584943 25.2655621,137.246757 C25.0591975,135.88386 24.4557174,135.307967 23.056185,135.167913 C22.539883,135.116259 22.016945,135.113304 21.4971298,135.113047 C15.8600953,135.109578 10.2231908,135.110863 4.58628643,135.111634 C4.32605355,135.111634 4.06582067,135.114332 3.80584802,135.122684 C1.72593673,135.189499 1.12531924,135.751515 0.927021783,137.785517 C0.89384209,138.125631 1.0704101,138.586397 0.533809901,138.696898 C0.457952016,138.676597 0.41176068,138.672871 0.375458193,138.652184 C0.342929083,138.633553 0.303243569,138.599246 0.297778678,138.566738 C0.262387006,138.358198 0.209819965,138.148245 0.209819965,137.938806 C0.210470547,130.874152 0.215935437,123.809499 0.227515801,116.744846 C0.227645917,116.635372 0.314303466,116.526027 0.454048523,116.195421 C0.681622177,116.508938 0.924809803,116.691137 0.943676687,116.893638 C1.13637913,118.968756 2.26227669,119.471153 4.16314777,118.201412 C6.03018856,116.954285 7.91193252,115.728745 9.78391775,114.488813 C9.91845815,114.399769 10.0260644,114.271279 10.3669695,113.958791 L10.3669695,113.958791 Z M13.310854,116.270331 C10.0729064,118.521995 6.92148618,120.705816 3.78203671,122.906084 C3.39676193,123.17617 3.06210245,123.522195 2.72575145,123.854471 C1.12050493,125.440041 0.722738972,127.398104 1.00886502,129.532971 C1.14535717,130.552027 1.75300094,131.145267 2.76881999,131.312304 C3.44906874,131.424091 4.14532181,131.490263 4.8345486,131.491934 C10.422269,131.505682 16.0101195,131.502598 21.5978399,131.49399 C22.1587719,131.49309 22.7245182,131.455057 23.2794648,131.37565 C24.4243594,131.211825 25.0394198,130.734226 25.1746108,129.604797 C25.2725884,128.786571 25.1907452,127.888809 24.9441745,127.101292 C24.4738036,125.598726 23.4812754,124.377041 22.2610434,123.388693 C19.349558,121.030383 16.3979966,118.720256 13.310854,116.270331 L13.310854,116.270331 Z" id="Fill-8"></path>
                                <path d="M201.503358,161.017782 C200.848623,160.442506 201.347238,160.103734 201.524051,159.794071 C202.942884,157.308444 204.388567,154.837761 205.829796,152.364609 C206.061619,151.966841 206.31204,151.579729 206.802927,151.23511 C206.847589,151.437047 206.974895,151.664974 206.920148,151.835335 C206.802403,152.202176 206.55971,152.527953 206.423629,152.890895 C205.992465,154.040406 206.228479,154.883113 207.213135,155.631607 C207.696296,155.998968 208.214688,156.326954 208.741986,156.63012 C213.57385,159.407868 218.410429,162.177299 223.248056,164.945301 C223.663372,165.182974 224.086809,165.410251 224.520985,165.611539 C225.952784,166.275439 226.840521,166.041924 227.802912,164.760256 C228.049927,164.43136 228.279655,164.089859 228.648213,163.569162 C228.780627,163.971608 228.920376,164.169127 228.87663,164.311029 C228.789271,164.594444 228.606433,164.850309 228.45398,165.112283 C225.378336,170.398008 222.304656,175.684773 219.217748,180.963871 C219.00138,181.33383 218.926464,181.89741 218.294649,181.89845 C217.892037,181.423493 218.287445,181.048726 218.399035,180.673569 C218.860191,179.122781 218.489537,178.385202 216.892842,178.007316 C215.920628,177.77731 214.918683,177.65503 213.923548,177.538727 C209.157433,176.982164 204.389353,176.442364 199.621141,175.903864 C199.325273,175.870467 199.022201,175.899575 198.58475,175.899575 C198.813953,176.260568 198.968109,176.554898 199.169546,176.812973 C202.242571,180.749848 205.31756,184.685294 208.404337,188.611643 C208.8596,189.190687 209.345117,189.754007 209.873202,190.267298 C210.808481,191.176278 211.621039,191.174978 212.625342,190.315898 C212.949239,190.038981 213.246155,189.731137 213.682558,189.316866 C213.786681,189.667723 213.966246,189.940352 213.891984,190.071988 C212.680613,192.220272 211.437284,194.350754 210.034168,196.773226 C209.835088,196.280467 209.625531,196.02759 209.675432,195.844235 C210.178107,193.995738 209.35494,192.540072 208.292224,191.17017 C204.459292,186.229064 200.609334,181.300823 196.766318,176.367385 C195.912373,175.271021 195.053712,174.178167 194.211292,173.073227 C193.962181,172.746411 193.463173,172.401271 193.824529,171.971277 C194.00645,171.754785 194.529295,171.721648 194.88122,171.759463 C198.177686,172.113179 201.470221,172.50185 204.764329,172.877007 C209.575499,173.424734 214.385098,173.985975 219.199019,174.508102 C221.355231,174.741877 222.86771,173.80197 223.634165,171.859912 C224.095322,170.691558 223.900303,169.881209 222.907788,169.104255 C222.430259,168.730398 221.911998,168.400462 221.384831,168.097556 C216.476741,165.278225 211.563149,162.467991 206.649296,159.658536 C206.2717,159.442694 205.887817,159.233609 205.491885,159.054152 C204.200882,158.468741 203.395004,158.635853 202.47531,159.700639 C202.141066,160.087751 201.864713,160.523983 201.503358,161.017782" id="Fill-9"></path>
                                <path d="M126.105189,217.384164 C125.877698,217.857142 125.710377,218.154777 125.586071,218.470582 C123.734016,223.174105 121.885931,227.87922 120.042454,232.586325 C119.834294,233.117928 119.635224,233.656031 119.474432,234.204346 C118.94328,236.014424 119.307623,236.718056 121.035371,237.268493 C121.238409,237.33322 121.481006,237.325792 121.64487,237.442644 C121.780571,237.539468 121.82717,237.770121 121.984377,238.083141 L103.65932,238.083141 C103.893339,237.782191 103.996139,237.571566 104.161283,237.46307 C104.287638,237.380173 104.493109,237.429911 104.662991,237.414791 C106.754185,237.22857 107.351011,236.634628 107.363044,234.401708 C107.397098,228.079898 107.392873,221.75769 107.365477,215.43588 C107.356644,213.397138 106.766219,212.798951 104.797411,212.545087 C104.458032,212.501317 104.121597,212.432877 103.784779,212.376109 C103.821008,212.137896 103.821392,212.091739 103.836243,212.051285 C103.8493,212.015473 103.878233,211.957777 103.900636,211.957511 C107.307484,211.91666 110.714332,211.878328 114.12118,211.849015 C114.272755,211.847689 114.42497,211.929658 114.780735,212.030726 C114.465168,212.264165 114.307576,212.472801 114.12246,212.503705 C111.34201,212.968062 111.018506,213.303099 110.999943,216.240447 C110.968834,221.147566 110.981508,226.055083 110.992646,230.962334 C110.995846,232.375434 110.998151,233.793176 111.107863,235.199909 C111.213735,236.557301 111.826691,237.16265 113.114565,237.355105 C114.531354,237.566658 115.780565,237.172863 116.611154,235.932323 C117.188777,235.069661 117.672434,234.116276 118.060716,233.144588 C120.816714,226.247139 123.532002,219.332183 126.281343,212.431816 C126.45865,211.986824 126.424981,211.234647 127.117181,211.263429 C127.759837,211.290089 127.762654,212.008974 127.95353,212.461394 C130.976449,219.625573 133.980804,226.798373 136.993737,233.967194 C137.231724,234.53368 137.476369,235.100167 137.763132,235.640922 C138.295564,236.645106 139.178129,237.134797 140.233135,237.336536 C140.557792,237.398609 140.937241,237.380703 140.915606,237.892677 C140.026,238.22652 131.951827,238.279309 130.635277,237.948649 C130.69519,237.790149 130.714009,237.594114 130.818089,237.50485 C130.935482,237.40418 131.127127,237.376194 131.290864,237.356961 C133.0743,237.14806 133.890038,236.422809 133.118082,234.129009 C132.977901,233.712003 132.830167,233.296588 132.661054,232.891519 C130.595335,227.945273 128.525264,223.001016 126.453913,218.057289 C126.386703,217.896933 126.294657,217.747718 126.105189,217.384164" id="Fill-10"></path>
                                <path d="M205.835806,88.1027211 C202.132468,81.5424909 198.428323,74.9826688 194.737233,68.4153623 C194.704124,68.3564389 194.845981,68.196815 195.017581,67.8762063 C195.332922,68.3047278 195.581642,68.6345901 195.821882,68.9707121 C196.84287,70.3987542 197.683241,70.6314541 199.282018,69.8944352 C199.77044,69.6693559 200.244595,69.4087593 200.710002,69.1375483 C205.641595,66.2639095 210.570764,63.385916 215.498453,60.5053369 C215.924964,60.2560351 216.347976,59.9972076 216.752011,59.7129328 C218.073939,58.7829499 218.337733,57.8317383 217.710281,56.3220471 C217.556043,55.950816 217.392518,55.5835313 217.239625,55.2117558 C217.227781,55.1831787 217.266812,55.1332367 217.324147,54.984091 C217.484307,55.0099466 217.737602,54.9744292 217.84137,55.0837029 C218.053482,55.3072853 218.192242,55.6046239 218.348904,55.8788287 C221.733535,61.8049179 225.119917,67.7299184 228.49109,73.6639004 C228.685974,74.0070986 229.13375,74.3460783 228.70522,74.9641617 C228.483015,74.7803152 228.274268,74.6563447 228.130931,74.4783498 C227.849237,74.1286196 227.641567,73.7127537 227.336186,73.3888791 C226.65961,72.6713199 225.843599,72.3945295 224.897038,72.8131171 C224.323422,73.0667735 223.744692,73.3200217 223.203242,73.6347789 C218.074612,76.6160584 212.953115,79.6098575 207.830946,82.6025679 C207.520854,82.7838288 207.215742,82.9758402 206.920724,83.1813237 C205.507275,84.1661475 205.253845,85.0610213 205.934594,86.6705965 C206.057608,86.9614033 206.257741,87.225538 206.338628,87.525054 C206.381024,87.6825006 206.242263,87.8898892 206.185198,88.0746883 C206.068778,88.0839418 205.952359,88.0933315 205.835806,88.1027211 L205.835806,88.1027211 Z M223.746576,67.8679053 C223.409028,65.8364766 222.563812,64.3290988 221.228828,63.1186514 C220.689263,62.6294374 219.973791,62.615421 219.318748,62.8848629 C218.616465,63.1737645 217.929257,63.5149215 217.271522,63.896903 C212.340738,66.7603358 207.41749,69.6371045 202.495992,72.5168671 C201.954273,72.8339376 201.433954,73.189111 200.911885,73.5391134 C200.007854,74.1454938 199.654963,75.0433613 200.070034,76.0149852 C200.578644,77.2057007 201.205692,78.3698803 201.949293,79.4245141 C202.545386,80.269718 203.492351,80.4717994 204.479557,79.9907504 C205.124236,79.6766736 205.778202,79.376069 206.397444,79.0158605 C211.287986,76.1718875 216.173549,73.3193413 221.05346,70.4568611 C221.710117,70.0717497 222.387366,69.6833723 222.940391,69.1702079 C223.332851,68.8060531 223.532311,68.2294746 223.746576,67.8679053 L223.746576,67.8679053 Z" id="Fill-11"></path>
                                <path d="M31.9964599,88.1027211 C31.9523565,87.8607921 31.8168223,87.5911351 31.878206,87.3812705 C32.4803078,85.3188943 32.277071,83.2902908 31.5509123,81.3284446 C30.3089243,77.9729765 28.9867248,74.6482588 27.6931538,71.312634 C27.6476318,71.1952833 27.5467872,71.1001412 27.4206669,70.9228667 C26.652726,70.9764827 25.84584,71.0287846 25.0395988,71.0900224 C22.5985655,71.2755759 20.1543083,71.427225 17.7177885,71.6623207 C15.0601069,71.918705 12.4792838,72.4041401 11.0077517,75.0034648 C10.245356,74.7186955 10.5507269,74.3510054 10.7360386,74.0216875 C11.6757507,72.3513126 12.6225554,70.6851428 13.5674258,69.0177903 C14.4452383,67.4689712 15.3235667,65.9205464 16.1834542,64.4040546 C16.6671731,64.4317825 16.8121211,64.6221981 16.6731051,65.0127539 C16.570842,65.30002 16.4483325,65.5824239 16.3749558,65.8774433 C16.0619764,67.1346597 16.5300915,67.792507 17.81283,67.9216848 C17.8556439,67.9260213 17.8988446,67.9312778 17.9415294,67.9289124 C20.5935369,67.7777889 23.2456734,67.6260083 25.9918197,67.4687084 C25.8654415,67.0241424 25.8059922,66.7292544 25.6992155,66.4532897 C24.8964562,64.3781665 24.0853146,62.3063286 23.2737861,60.2346221 C23.1783577,59.9911161 23.0724837,59.7511582 22.9578406,59.5163254 C22.1541785,57.868816 21.0487563,57.7811644 19.9439789,59.2718995 C19.7698865,59.5068637 19.5799323,59.7298695 19.2704347,60.1170085 C19.1755221,59.7363087 19.0215471,59.48045 19.0896365,59.3263039 C19.3176331,58.8099871 19.6235199,58.3292829 19.9021967,57.8363573 C20.9097403,56.0542824 21.9105781,54.2681337 22.9341125,52.4956517 C23.1027887,52.2037862 23.1854503,51.692463 23.8448091,51.9491102 C23.8217258,52.1329553 23.8374586,52.3426885 23.7670479,52.5158892 C23.1946063,53.9230464 23.2007962,55.3771175 23.6987005,56.7564154 C24.9561634,60.2402728 26.3131814,63.6869406 27.6386048,67.1701409 C28.3342007,67.1701409 28.925599,67.205622 29.51171,67.1642273 C33.0243788,66.9169104 36.5364027,66.6580292 40.0473949,66.3866639 C40.6447253,66.3405384 41.2365105,66.2168799 41.8306169,66.1268629 C43.0246328,65.9460403 44.0263734,65.4114572 44.8097891,64.46227 C45.043073,64.1796033 45.2561105,63.7309635 45.7037214,64.2132447 C45.1925345,65.6363027 40.8949025,73.1035135 40.1157423,73.8400765 C40.0642884,73.5492622 39.9711812,73.3278334 40.0032915,73.1271676 C40.0435262,72.8749885 40.2094943,72.6467262 40.2806788,72.3962554 C40.5936582,71.2967332 40.0798922,70.4855283 38.9597688,70.3210008 C38.6647145,70.2776349 38.3586987,70.28276 38.0596467,70.3008948 C35.2732656,70.4713358 32.4871425,70.6483475 29.7012773,70.8290387 C29.581218,70.836792 29.4645117,70.8997382 29.2767498,70.9588735 C29.357606,71.2594122 29.4073836,71.5550887 29.514934,71.8269796 C30.5414343,74.4235447 31.5769617,77.0164303 32.6122311,79.6093158 C32.709207,79.8521648 32.8073436,80.0968535 32.9306268,80.3262984 C33.6266095,81.6200473 34.6010111,81.7441 35.604557,80.6832128 C35.8330694,80.441678 36.0878891,80.2248486 36.3443852,80.0141955 C36.3749481,79.9889644 36.4925572,80.073725 36.5694158,80.1073664 C36.4212438,81.0288257 34.2067885,85.1484532 31.9964599,88.1027211" id="Fill-12"></path>
                                <path d="M188.522875,216.146237 C187.782913,217.00469 180.929367,220.966925 179.099101,221.641845 C179.219954,221.276701 179.237162,221.002812 179.382317,220.833249 C179.660279,220.508734 180.042411,220.269705 180.32497,219.948138 C180.90362,219.289624 180.940138,218.668021 180.395643,217.974902 C180.053314,217.539268 179.648062,217.127088 179.198542,216.798984 C174.645143,213.475012 170.077163,210.170138 165.510102,206.864109 C165.412369,206.793362 165.278117,206.770805 164.997528,206.663018 C165.087511,207.408428 165.15398,208.058868 165.246065,208.705847 C165.937817,213.565241 166.633115,218.42425 167.333274,223.282491 C167.381747,223.619182 167.462403,223.953437 167.555408,224.281541 C167.959608,225.705972 168.574513,226.081497 170.057064,225.809017 C170.356438,225.753906 170.645566,225.61664 170.944546,225.59921 C171.111901,225.589469 171.289633,225.747882 171.483918,225.840802 C170.800967,226.570448 166.02399,229.328056 164.439108,229.891856 C164.513853,229.549014 164.481669,229.223473 164.631028,229.086336 C165.853351,227.963991 165.985895,226.529563 165.81079,225.056814 C165.447968,222.005835 165.01894,218.962289 164.598976,215.918231 C163.963184,211.309144 163.308607,206.702749 162.673866,202.093534 C162.623949,201.731595 162.667298,201.35748 162.667298,201.040655 C163.413566,200.673332 163.758391,201.18766 164.1509,201.470137 C169.220946,205.117983 174.280613,208.779414 179.343828,212.436103 C180.75032,213.451815 182.17586,214.443174 183.563305,215.482981 C184.804544,216.413078 186.113172,216.742848 187.612537,216.15726 C187.817067,216.077284 188.08255,216.146237 188.522875,216.146237" id="Fill-13"></path>
                                <path d="M162.888312,36.5967291 C163.379729,36.8125225 163.860669,37.0550758 164.364906,37.2389681 C165.619846,37.6966557 166.448156,37.4857398 167.267506,36.4610838 C167.712193,35.9049248 168.104362,35.3055281 168.471856,34.6988812 C171.348679,29.9494498 174.215026,25.1943501 177.080545,20.4387231 C177.355408,19.9826174 177.624343,19.5208433 177.858128,19.0448324 C178.56348,17.6084949 178.317703,16.7007654 176.972475,15.7347704 C176.625243,15.4854942 176.254165,15.2668007 175.900869,15.0384842 C176.237899,14.3849085 176.570105,14.651849 176.875294,14.8193953 C178.74709,15.8468195 180.615853,16.8795167 182.485305,17.9110274 C183.519417,18.4816868 184.559457,19.0429869 185.581853,19.6324969 C185.821427,19.7706468 186.000212,20.0055545 186.453032,20.4225089 C185.873394,20.3846759 185.622103,20.4167087 185.409684,20.34447 C184.936738,20.1837784 184.496324,19.9309429 184.018829,19.7881792 C183.147236,19.5273026 182.370618,19.7375594 181.786707,20.4119631 C181.378273,20.8836239 180.992169,21.3833628 180.671404,21.9122345 C177.561762,27.0397327 174.467282,32.1756675 171.371699,37.311075 C171.211523,37.5768291 171.088979,37.8631475 170.934731,38.1324607 C170.22097,39.3780512 170.414504,40.2343698 171.7618,41.3455013 C172.104345,41.6279969 172.478869,41.8750322 172.834509,42.1434227 C172.856978,42.1604278 172.842366,42.222648 172.846915,42.2915911 C172.590799,42.7806525 172.260799,42.4963114 171.958781,42.3302151 C169.729829,41.1045299 167.50391,39.8737036 165.277301,38.6440637 C164.521911,38.2269774 163.756597,37.8249189 163.020091,37.3789636 C162.846131,37.2737692 162.77073,37.0197474 162.64984,36.8340095 C162.729376,36.754916 162.808913,36.6758226 162.888312,36.5967291" id="Fill-14"></path>
                            </g>
                        </g>
                    </g>
                    <circle id="Oval-52-Copy" stroke="#FFFFFF" stroke-width="2" cx="130" cy="130" r="130"></circle>
                </g>
                <circle id="Oval-54" fill="#000000" cx="130" cy="130" r="9.51219512"></circle>
            </g>
            <text id="•-2015-•" sketch:type="MSTextLayer" font-family="Letra Pro" font-size="7" font-weight="bold" fill="#FFFFFF">
                <tspan x="116" y="192">• 2015 •</tspan>
            </text>
            <text id="HEBE-OF-LEEDS" sketch:type="MSTextLayer" font-family="Letra Pro" font-size="6" font-weight="bold" fill="#FFFFFF">
                <tspan x="105" y="184">HEBE OF LEEDS</tspan>
            </text>
            <circle id="Oval-3" stroke="#979797" fill="#D8D8D8" sketch:type="MSShapeGroup" cx="129" cy="129" r="2"></circle>
        </g>
    </g>
</svg>