<?xml version="1.0" encoding="UTF-8" standalone="no"?>
<svg width="22px" height="122px" viewBox="0 0 22 122" version="1.1" xmlns="http://www.w3.org/2000/svg" xmlns:xlink="http://www.w3.org/1999/xlink" xmlns:sketch="http://www.bohemiancoding.com/sketch/ns">
    <!-- Generator: Sketch 3.3 (11970) - http://www.bohemiancoding.com/sketch -->
    <title>Second</title>
    <desc>Created with Sketch.</desc>
    <defs></defs>
    <g id="Stories" stroke="none" stroke-width="1" fill="none" fill-rule="evenodd" sketch:type="MSPage">
        <g id="Artboard-1" sketch:type="MSArtboardGroup" transform="translate(-2060.000000, -2150.000000)" fill="#EC9E3F">
            <g id="Clock-Hands" sketch:type="MSLayerGroup" transform="translate(1958.000000, 2150.000000)">
                <path d="M114.993144,100.917897 C114.494315,100.814168 113.997817,100.760556 113.50365,100.729088 L113.50365,39.6283331 C114.973331,39.3334645 116.080545,38.0374408 116.080545,36.4815132 C116.080545,34.9255855 114.973331,33.6295619 113.50365,33.3346932 L113.50365,0.885151902 C113.50365,0.536670728 113.218105,0.251125953 112.869624,0.251125953 C112.521142,0.251125953 112.235598,0.536670728 112.235598,0.885151902 L112.235598,33.3346932 C110.765916,33.6295619 109.658702,34.9255855 109.658702,36.4815132 C109.658702,38.0374408 110.765916,39.3334645 112.235598,39.6283331 L112.235598,100.726757 C107.673874,101.004143 103.676247,104.278001 102.697237,108.966763 C101.523589,114.585585 105.127281,120.091354 110.746103,121.263836 C116.364925,122.436318 121.869529,118.832626 123.043176,113.21497 C124.215658,107.596148 120.611966,102.090379 114.993144,100.917897 L114.993144,100.917897 Z M112.869624,114.730105 C110.888292,114.730105 109.281083,113.122896 109.281083,111.141565 C109.281083,109.159069 110.888292,107.553025 112.869624,107.553025 C114.85212,107.553025 116.458164,109.159069 116.458164,111.141565 C116.458164,113.122896 114.85212,114.730105 112.869624,114.730105 L112.869624,114.730105 Z" id="Second" sketch:type="MSShapeGroup"></path>
            </g>
        </g>
    </g>
</svg>