<svg width="131" height="131" viewBox="0 0 262 262" xmlns="http://www.w3.org/2000/svg"><title>Group</title><g fill="none" fill-rule="evenodd"><g id="Group" transform="translate(1 1)"><g fill="#FFF"><path d="M119.866 10.884c-.39.254-.56.417-.765.49-.368.13-.78.154-1.132.314-.71.323-.953.854-.756 1.59.088.33.232.658.414.946 1.342 2.12 2.7 4.23 4.116 6.443.28-.265.51-.435.68-.653 1.35-1.754 2.686-3.517 4.027-5.277.078-.103.158-.206.233-.313 1.272-1.807.894-2.697-1.3-3.075-.197-.035-.384-.118-.813-.253.385-.23.557-.403.753-.434.343-.054.7-.023 1.053-.023 8.968 0 17.936 0 26.904.002.508 0 1.016.03 1.524.048l.066.26c-.175.12-.334.308-.527.35-.425.096-.878.076-1.3.177-.89.213-1.485.744-1.596 1.672-.087.725-.184 1.455-.186 2.183-.014 5.514-.01 11.027-.003 16.54 0 .56.024 1.122.096 1.675.178 1.37.776 1.965 2.163 2.187.424.067.856.092 1.503.16-.287.285-.416.524-.59.562-.336.074-.698.04-1.05.04-9.496.002-18.992.002-28.49 0-.35 0-.71.024-1.05-.04-.15-.027-.264-.244-.517-.498.574-.14.988-.218 1.386-.342.988-.307 1.38-1.043 1.07-2.015-.09-.284-.24-.557-.4-.81-1.532-2.415-3.072-4.823-4.615-7.23-.067-.104-.185-.178-.358-.34l-1.256 1.663c-1.228 1.627-2.46 3.253-3.684 4.882-.313.416-.636.828-.91 1.268-.862 1.382-.495 2.245 1.1 2.663.27.07.527.177 1.037.353-.422.226-.617.42-.813.423-2.55.022-5.1.024-7.65.002-.21-.002-.42-.22-.817-.443.405-.185.547-.28.704-.317 1.78-.42 3.253-1.37 4.367-2.742 2.43-2.998 4.773-6.064 7.087-9.018-.032-.233-.017-.333-.06-.397-1.937-2.924-3.836-5.875-5.848-8.75-.66-.943-1.535-1.78-2.453-2.49-.59-.457-1.436-.595-2.17-.87-.298-.11-.602-.205-.89-.55.213-.084.426-.242.64-.243 3.472-.013 6.945-.008 10.418 0 .12.002.24.08.658.227zm2.844 11.253c2.353 3.573 4.607 7.015 6.885 10.44.406.612.886 1.18 1.377 1.73 1 1.124 2.318 1.52 3.793 1.442 1.2-.065 2.22-.704 2.277-2.047.03-.687.13-1.373.13-2.06.013-5.427.01-10.855.005-16.282 0-.558-.013-1.12-.076-1.676-.177-1.556-.837-2.175-2.443-2.334-2.092-.207-3.85.5-5.136 2.083-2.293 2.828-4.492 5.73-6.81 8.704zm25.04 1.39c0-2.753.008-5.506-.004-8.258-.003-.644-.067-1.288-.11-1.93-.074-1.057-.714-1.725-1.714-1.835-1.16-.13-2.36-.113-3.522.01-.84.09-1.398.7-1.514 1.57-.09.68-.186 1.368-.188 2.052-.015 5.677-.01 11.353-.004 17.03 0 .472.022.948.086 1.415.183 1.34.81 1.994 2.192 2.143.824.09 1.67.08 2.496.006 1.337-.117 1.946-.712 2.142-2.02.096-.635.13-1.284.135-1.927.014-2.752.006-5.505.006-8.257zM16.34 173.407c.224.015.47-.04.586.055.197.16.298.427.464.63.713.876 1.4 1.09 2.463.693.663-.248 1.31-.553 1.925-.9 5.018-2.82 10.028-5.656 15.037-8.492.46-.262.915-.54 1.345-.85 1.15-.827 1.35-1.524.842-2.823-.193-.496-.193-.496-.035-1 .04-.008.085-.024.125-.02.042.007.102.022.12.053 4.43 7.453 8.855 14.907 13.278 22.364.107.18.17.387.334.764-.37-.065-.615-.047-.773-.153-.17-.115-.248-.355-.387-.524-.754-.913-1.464-1.12-2.59-.674-.658.26-1.294.586-1.91.933-4.94 2.78-9.875 5.57-14.808 8.364-.462.26-.9.562-1.36.83-.947.557-1.385 1.346-1.114 2.42.277 1.09 1.064 1.764 2.15 1.885.955.107 1.967.058 2.913-.126 7.376-1.44 14.74-2.93 22.11-4.398.505-.1 1.022-.143 1.533-.212l.186.257c-.23.33-.428.688-.692.99-4.887 5.6-9.782 11.195-14.674 16.79-.376.43-.733.88-1.12 1.298-.877.947-1.197 2.01-.826 3.26.06.202-.038.448-.07.733-.707-.476-3.744-5.212-4.49-6.94-.07-.162-.008-.377-.008-.89.497.424.777.656 1.05.895.87.763 1.45.843 2.37.153.63-.472 1.208-1.035 1.728-1.625 3.463-3.925 6.904-7.868 10.35-11.808.11-.126.19-.278.425-.63-1.09.198-1.977.345-2.856.52-4.317.867-8.632 1.737-12.945 2.617-.696.142-1.39.316-2.068.524-1.39.427-1.75 1.01-1.6 2.443.036.34.4.782-.247.96-.75-.71-16.348-27.063-16.76-28.363zm12.086 16.942c.52-.23 1.323-.502 2.046-.907 5.29-2.964 10.566-5.952 15.84-8.94.424-.24.826-.517 1.22-.8.783-.568 1.008-1.39.673-2.21-.342-.835-.848-1.63-1.416-2.34-.462-.577-1.184-.778-1.935-.46-.733.313-1.478.612-2.17 1-4.977 2.794-9.943 5.607-14.91 8.422-.537.305-1.056.645-1.563.997-.25.174-.513.378-.666.628-.51.84-.337 1.674.144 2.467.584.96 1.01 2.104 2.736 2.142zm-4.757-7.64c.687-.305 1.48-.584 2.202-.988 5.282-2.962 10.556-5.938 15.818-8.934 2.467-1.404 2.658-2.243 1.157-4.593-.118-.184-.242-.367-.387-.53-.637-.718-1.348-.923-2.27-.563-.698.273-1.375.614-2.028.982-4.97 2.796-9.932 5.603-14.89 8.415-.616.348-1.263.68-1.774 1.148-.355.324-.695.86-.708 1.31-.04 1.445.745 2.546 1.867 3.413.226.176.574.2 1.012.34zM247.78 149.108c-.12-.213-.318-.414-.348-.64-.366-2.736-.774-3.18-3.454-3.196-5.9-.036-11.802-.033-17.703 0-2.5.016-2.998.54-3.307 3.087-.03.24-.132.472-.282.987-.203-.456-.34-.65-.372-.863-.045-.305-.015-.623-.015-.935 0-10.272-.002-20.543.002-30.813 0-.5.05-1 .076-1.5l.275-.044c.1.156.26.3.29.47.08.437.07.89.15 1.328.21 1.14.78 1.72 1.895 1.892.512.08 1.038.088 1.558.09 5.814.004 11.628.003 17.442 0 .347 0 .695-.007 1.04-.032 1.497-.11 2.157-.766 2.35-2.324.118-.958.118-.958.463-1.415.473.31.285.8.287 1.198.02 3.35.02 6.698.02 10.047 0 7.1-.007 14.2-.01 21.3v1.267l-.358.096zm-12.542-7.623v-.026c3.25 0 6.5.032 9.748-.016 1.517-.022 2.233-.73 2.368-2.266.086-.97.078-1.964-.006-2.936-.11-1.264-.737-1.884-1.98-2.082-.597-.095-1.206-.153-1.81-.154-5.632-.01-11.264-.01-16.896 0-.518 0-1.04.036-1.554.11-1.215.177-1.762.677-1.992 1.923-.12.65-.118 1.327-.122 1.993-.017 2.718.63 3.417 3.276 3.445 2.99.03 5.98.007 8.968.007zm.014-11.257v-.027c3.25 0 6.5.034 9.748-.014 1.508-.022 2.22-.74 2.357-2.28.083-.927.074-1.873.006-2.803-.1-1.35-.714-2.003-2.01-2.2-.68-.105-1.378-.153-2.068-.155-5.416-.012-10.832-.01-16.247 0-.648 0-1.3.028-1.943.116-1.208.166-1.755.682-1.982 1.932-.118.65-.116 1.328-.12 1.994-.016 2.7.64 3.404 3.29 3.43 2.99.03 5.98.008 8.97.008zM55.773 224.21c.243.027.51-.002.726.088 1.8.75 2.4.59 3.497-1.02.344-.505.65-1.036.954-1.566 2.673-4.657 5.342-9.315 8.004-13.977.346-.606.685-1.22.968-1.857.513-1.156.3-1.96-.673-2.786-.263-.222-.535-.432-.798-.653-.023-.02-.013-.08-.035-.25.203-.032.427-.127.613-.078.243.065.457.243.683.374 4.773 2.776 9.547 5.552 14.32 8.33.26.152.546.29.754.5.097.1.034.358.05.67-.516-.218-.9-.398-1.298-.544-.972-.36-1.668-.204-2.33.596-.413.5-.774 1.056-1.1 1.62-2.895 5.034-5.78 10.073-8.66 15.113-.24.417-.467.842-.663 1.28-.658 1.465-.053 2.81 1.465 3.31.834.275 1.665.237 2.384-.238 1.047-.693 2.08-1.426 3.033-2.244 5.285-4.54 10.54-9.115 15.822-13.66.39-.334.7-.934 1.502-.722-.02.388-.006.77-.067 1.138-1.24 7.46-2.49 14.92-3.736 22.378-.07.43-.113.87-.21 1.294-.326 1.446-.035 2.688 1.13 3.665.093.078.138.212.326.514-.357.028-.637.137-.823.048-.586-.28-1.137-.636-1.7-.963-1.543-.897-3.086-1.79-4.624-2.69-.356-.21-.693-.447-1.004-.65.24-.684.592-.44.912-.357 1.698.434 2.33.154 2.745-1.582.505-2.12.84-4.285 1.214-6.437.627-3.618 1.227-7.24 1.833-10.862.027-.16.004-.33.004-.632-.334.248-.582.407-.803.6-3.88 3.366-7.762 6.734-11.635 10.11-.46.4-.9.83-1.295 1.29-.822.96-.812 1.693-.052 2.698.234.31.748.52.454 1.14-.172-.018-.357.015-.482-.057-7.174-4.16-14.343-8.33-21.513-12.497l.106-.432zM78.46 209.51c-.204-.41-.308-.98-.644-1.223-.902-.654-1.867-1.25-2.88-1.712-.615-.28-1.3-.01-1.753.546-.41.504-.808 1.032-1.133 1.596-2.962 5.14-5.908 10.29-8.852 15.443-.26.453-.497.924-.69 1.41-.394.986-.237 1.814.603 2.46.683.524 1.453.963 2.24 1.31.914.406 1.667.174 2.308-.64.457-.577.854-1.21 1.223-1.852 2.678-4.65 5.343-9.31 8.006-13.97.41-.718.808-1.447 1.175-2.19.17-.344.253-.734.4-1.18zM85.883 19.01c-.49.344-.798.558-1.103.774-1.3.92-1.552 1.747-.927 3.182.22.508.487.998.764 1.48 2.71 4.704 5.427 9.405 8.145 14.106.235.406.478.81.747 1.196.873 1.255 1.76 1.5 3.205.9.38-.158.748-.337 1.384-.625-.16.45-.176.687-.303.818-.173.178-.428.278-.65.406-5.446 3.14-10.89 6.285-16.344 9.415-.35.202-.704.662-1.35.167.327-.298.592-.538.856-.78.99-.91.928-1.88-.17-2.658-.07-.05-.143-.098-.22-.136-2.71-1.36-5.42-2.72-8.22-4.122-.106.313-.22.532-.25.762-.39 2.75-.767 5.503-1.145 8.256-.03.21-.042.425-.052.64-.08 1.72.63 2.265 2.285 1.758.498-.153.498-.153 1.12.243l-7.77 4.484-.24-.14c.056-.226.037-.534.18-.665 1.624-1.494 2.407-3.404 2.744-5.52.516-3.25.99-6.506 1.48-9.76.036-.25.03-.507.04-.72-.08-.112-.114-.213-.18-.245-3.243-1.543-6.475-3.11-9.742-4.603-1.41-.645-2.91-1.042-4.49-.667-.456.108-.893.295-1.348.406-.208.053-.44.01-.735.01.5-.768 6.872-4.688 9.58-5.948.192-.09.442-.052.802.158-.25.244-.496.494-.75.732-1.212 1.13-1.173 2.02.3 2.818 2.25 1.218 4.568 2.31 6.946 3.502.124-.38.252-.64.293-.916.34-2.282.665-4.567.993-6.852.024-.17.042-.34.05-.51.08-1.634-.833-2.283-2.357-1.707-.343.13-.685.61-1.203.06.726-.887 1.81-1.204 2.712-1.774.975-.617 1.994-1.165 2.994-1.742l2.89-1.665 2.89-1.67c1-.578 2-1.154 3-1.73 2.286-1.32 2.286-1.32 3.143-1.115zM72.12 39.426c3.865 1.862 7.594 3.667 11.333 5.45.576.274 1.19.477 1.8.667 1.645.51 3.13.11 4.462-.9.976-.74 1.176-1.564.698-2.713-.26-.63-.58-1.237-.92-1.828-2.642-4.59-5.293-9.172-7.944-13.755-.258-.444-.52-.885-.808-1.31-.983-1.45-1.892-1.664-3.495-.924-2.034.94-3.152 2.565-3.563 4.703-.282 1.466-.498 2.946-.713 4.424-.292 2.02-.557 4.046-.85 6.186zM21.365 124.46c-.282-.158-.528-.258-.73-.413-1.81-1.397-3.61-2.806-5.42-4.206-.272-.21-.55-.42-.852-.586-1.19-.654-2.16-.19-2.372 1.13-.046.295-.014.607-.094.89-.044.158-.245.274-.403.437-.346-.95-.44-7.065-.175-8.966.366-.177.59-.046.63.335.196 1.787 1.227 3.094 2.565 4.17 2.686 2.157 5.417 4.26 8.183 6.428 1.438-.945 2.807-1.833 4.165-2.74 2.048-1.365 4.1-2.723 6.125-4.122 1.618-1.118 3.153-2.323 3.346-4.49.007-.074.08-.16.146-.205.064-.043.16-.044.24-.063.043.013.088.018.126.038.033.018.082.052.082.08.035 3.334.067 6.67.09 10.005.003.243-.057.487-.115.938-.276-.275-.483-.4-.56-.58-.098-.23-.073-.506-.133-.755-.28-1.165-1.137-1.584-2.265-1.105-.237.1-.465.23-.68.372-2.354 1.53-4.705 3.064-7.053 4.6-.136.09-.242.22-.43.394.89.694 1.735 1.357 2.585 2.013 1.468 1.135 2.938 2.267 4.41 3.395.31.236.62.473.953.672 1.277.764 2.16.393 2.486-1.032.142-.618.142-.618.578-.943.284.87.352 17.603.046 19.166-.203-.233-.41-.37-.46-.55-.087-.327-.063-.68-.114-1.02-.207-1.362-.81-1.938-2.21-2.078-.516-.052-1.04-.055-1.56-.055-5.636-.003-11.273-.002-16.91 0-.26 0-.52 0-.78.01-2.08.066-2.68.63-2.88 2.663-.032.34.144.8-.392.91-.076-.02-.122-.023-.16-.044-.03-.018-.07-.053-.076-.085-.036-.21-.088-.42-.088-.628 0-7.066.006-14.13.018-21.195 0-.11.086-.22.226-.55.228.314.47.496.49.7.192 2.074 1.318 2.576 3.22 1.306 1.866-1.246 3.748-2.47 5.62-3.71.134-.09.242-.22.583-.53zm2.944 2.31c-3.24 2.252-6.39 4.436-9.53 6.636-.385.27-.72.616-1.056.948-1.605 1.586-2.003 3.544-1.717 5.68.136 1.018.744 1.61 1.76 1.778.68.112 1.376.178 2.066.18 5.587.014 11.175.01 16.763.002.56 0 1.127-.04 1.68-.118 1.146-.164 1.76-.642 1.897-1.77.098-.82.016-1.717-.23-2.505-.47-1.5-1.464-2.723-2.684-3.71-2.912-2.36-5.864-4.67-8.95-7.12zM212.5 171.518c-.653-.575-.155-.914.022-1.224 1.42-2.486 2.865-4.956 4.306-7.43.232-.397.482-.784.973-1.13.046.203.173.43.118.6-.118.368-.36.694-.496 1.057-.432 1.15-.196 1.993.79 2.742.482.367 1 .695 1.528.998 4.832 2.778 9.668 5.547 14.506 8.315.415.238.84.465 1.273.667 1.43.663 2.32.43 3.28-.852.248-.33.478-.67.846-1.19.133.402.272.6.23.74-.09.284-.272.54-.424.802-3.076 5.286-6.15 10.573-9.236 15.852-.217.37-.292.933-.923.934-.403-.475-.008-.85.104-1.224.46-1.55.09-2.29-1.506-2.667-.97-.23-1.973-.352-2.968-.468-4.767-.558-9.535-1.098-14.303-1.636-.297-.034-.6-.004-1.037-.004.23.36.383.655.585.913 3.073 3.937 6.148 7.872 9.234 11.8.456.578.94 1.14 1.47 1.654.934.91 1.747.908 2.75.05.325-.278.622-.586 1.06-1 .103.35.282.623.208.755-1.21 2.148-2.455 4.28-3.858 6.7-.2-.492-.408-.744-.36-.928.504-1.848-.32-3.304-1.382-4.674-3.833-4.94-7.683-9.87-11.526-14.803-.854-1.096-1.712-2.19-2.555-3.294-.25-.327-.75-.672-.387-1.102.18-.215.704-.248 1.056-.21 3.296.353 6.588.742 9.882 1.117 4.81.548 9.62 1.11 14.435 1.63 2.156.235 3.67-.705 4.435-2.647.46-1.168.266-1.98-.726-2.756-.478-.374-.996-.704-1.523-1.006-4.908-2.82-9.822-5.63-14.736-8.44-.377-.215-.76-.424-1.157-.604-1.29-.585-2.097-.418-3.017.647-.334.388-.61.824-.972 1.318M137.103 227.884c-.227.473-.395.77-.52 1.087-1.85 4.704-3.7 9.41-5.543 14.116-.208.532-.407 1.07-.568 1.618-.53 1.81-.166 2.514 1.56 3.064.204.065.447.058.61.175.137.096.183.327.34.64h-18.325c.234-.3.337-.51.502-.62.126-.083.33-.033.5-.048 2.092-.186 2.69-.78 2.7-3.013.035-6.322.03-12.644.003-18.966-.008-2.04-.6-2.637-2.568-2.89-.34-.045-.675-.113-1.012-.17.036-.238.036-.284.05-.325.014-.035.043-.092.066-.092 3.405-.04 6.812-.08 10.22-.11.15 0 .303.082.66.183-.317.234-.474.443-.66.474-2.78.464-3.103.8-3.122 3.736-.03 4.908-.018 9.815-.007 14.722.004 1.413.006 2.83.116 4.238.106 1.357.72 1.963 2.007 2.155 1.416.212 2.666-.182 3.496-1.423.577-.862 1.06-1.816 1.45-2.787 2.755-6.898 5.47-13.813 8.22-20.713.177-.445.143-1.197.835-1.17.643.028.646.747.837 1.2 3.022 7.164 6.027 14.336 9.04 21.505.238.567.482 1.133.77 1.674.532 1.005 1.414 1.495 2.47 1.697.324.062.703.044.682.556-.89.334-8.964.386-10.28.056.06-.16.078-.356.182-.445.117-.1.31-.13.473-.148 1.782-.21 2.598-.934 1.826-3.228-.14-.418-.288-.833-.457-1.238-2.067-4.947-4.137-9.89-6.208-14.835-.067-.16-.16-.31-.35-.673M216.834 98.603c-3.704-6.56-7.408-13.12-11.1-19.688-.032-.06.11-.218.282-.54.315.43.564.76.804 1.096 1.02 1.43 1.86 1.66 3.46.924.488-.225.963-.485 1.428-.756 4.932-2.874 9.86-5.752 14.788-8.633.427-.25.85-.508 1.254-.792 1.322-.93 1.586-1.88.958-3.39-.154-.372-.317-.74-.47-1.11-.012-.03.027-.08.084-.23.16.027.414-.01.517.1.21.224.35.522.507.796 3.385 5.925 6.77 11.85 10.142 17.784.194.343.642.682.213 1.3-.222-.184-.43-.308-.574-.486-.283-.35-.49-.765-.796-1.09-.676-.717-1.492-.993-2.44-.575-.573.254-1.15.507-1.693.822-5.127 2.98-10.25 5.975-15.37 8.968-.31.18-.616.373-.91.578-1.415.986-1.668 1.88-.987 3.49.123.29.323.556.404.855.042.158-.097.365-.154.55l-.35.028zm17.91-20.235c-.337-2.032-1.182-3.54-2.517-4.75-.54-.49-1.255-.503-1.91-.233-.703.29-1.39.63-2.047 1.012-4.93 2.863-9.855 5.74-14.776 8.62-.542.317-1.062.672-1.584 1.022-.904.605-1.257 1.503-.842 2.475.51 1.19 1.136 2.355 1.88 3.41.595.845 1.542 1.047 2.53.566.644-.313 1.298-.614 1.917-.974 4.89-2.844 9.777-5.697 14.656-8.56.658-.384 1.335-.773 1.888-1.286.393-.364.592-.94.807-1.302zM42.994 98.603c-.044-.242-.18-.512-.118-.722.602-2.06.4-4.09-.327-6.052-1.243-3.355-2.565-6.68-3.86-10.015-.044-.118-.145-.213-.27-.39-.77.053-1.576.106-2.382.167-2.44.186-4.886.337-7.322.572-2.658.257-5.24.742-6.71 3.34-.763-.283-.457-.65-.272-.98.94-1.67 1.887-3.337 2.83-5.004.88-1.55 1.758-3.097 2.617-4.614.485.028.63.218.49.61-.1.286-.224.568-.297.863-.313 1.258.155 1.916 1.438 2.045.044.004.087.01.13.007l8.05-.46c-.127-.446-.186-.74-.293-1.017-.803-2.075-1.614-4.147-2.425-6.218-.096-.244-.202-.484-.316-.72-.804-1.646-1.91-1.734-3.014-.243-.174.235-.364.458-.674.845-.094-.38-.248-.637-.18-.79.228-.517.534-.998.812-1.49 1.008-1.783 2.01-3.57 3.032-5.34.17-.293.25-.805.91-.548-.022.183-.007.393-.077.566-.572 1.407-.566 2.86-.068 4.24 1.257 3.484 2.614 6.93 3.94 10.414.695 0 1.287.036 1.873-.006 3.512-.247 7.024-.506 10.535-.777.598-.046 1.19-.17 1.784-.26 1.193-.18 2.194-.716 2.978-1.665.233-.282.446-.73.894-.25-.51 1.424-4.81 8.892-5.588 9.628-.052-.29-.145-.512-.113-.713.042-.252.207-.48.28-.73.312-1.1-.202-1.91-1.322-2.076-.295-.042-.6-.037-.9-.02-2.787.17-5.573.348-8.36.53-.12.007-.235.07-.423.13.08.3.13.595.238.867 1.026 2.597 2.062 5.19 3.097 7.782.097.242.195.487.32.716.695 1.294 1.67 1.418 2.673.357.228-.24.483-.458.74-.67.03-.024.148.06.224.094-.148.922-2.362 5.04-4.573 7.996M199.52 226.646c-.74.86-7.593 4.82-9.423 5.496.12-.365.138-.64.283-.81.278-.323.66-.562.943-.884.58-.658.615-1.28.07-1.973-.342-.436-.747-.848-1.196-1.176-4.554-3.325-9.122-6.63-13.69-9.936-.097-.07-.23-.093-.51-.2.09.744.155 1.395.247 2.042.692 4.86 1.387 9.718 2.087 14.576.05.337.13.67.223 1 .405 1.424 1.02 1.8 2.502 1.527.3-.056.59-.193.888-.21.167-.01.345.148.54.24-.684.73-5.46 3.488-7.046 4.052.075-.343.043-.67.192-.806 1.22-1.122 1.354-2.556 1.18-4.03-.364-3.05-.793-6.094-1.213-9.138-.636-4.61-1.29-9.215-1.925-13.824-.05-.362-.007-.737-.007-1.053.747-.367 1.09.148 1.484.43 5.07 3.648 10.13 7.31 15.192 10.966 1.406 1.016 2.832 2.007 4.22 3.047 1.24.93 2.55 1.26 4.05.674.203-.08.47-.01.91-.01M173.886 47.097c.492.216.973.458 1.477.642 1.255.457 2.083.246 2.903-.78.444-.555.836-1.154 1.204-1.76 2.877-4.75 5.743-9.506 8.61-14.26.273-.457.542-.92.776-1.395.705-1.437.46-2.344-.886-3.31-.347-.25-.718-.468-1.07-.697.336-.653.668-.386.973-.22 1.872 1.03 3.74 2.062 5.61 3.093 1.034.572 2.074 1.133 3.097 1.722.24.14.418.374.87.79-.58-.037-.83-.005-1.042-.078-.473-.16-.914-.413-1.39-.556-.873-.26-1.65-.05-2.233.624-.41.472-.795.97-1.116 1.5-3.11 5.128-6.205 10.264-9.3 15.4-.16.265-.283.55-.437.82-.714 1.246-.52 2.102.827 3.214.342.282.717.53 1.073.797.022.017.007.08.012.15-.256.488-.586.203-.888.037-2.23-1.225-4.455-2.456-6.682-3.686-.755-.417-1.52-.82-2.257-1.265-.174-.106-.25-.36-.37-.546l.238-.237"/></g><circle stroke="#FFF" stroke-width="2" cx="130" cy="130" r="130"/><circle fill="#000" cx="130" cy="130" r="9.512"/><text font-family="Letra Pro" font-size="7" font-weight="bold" fill="#FFF"><tspan x="116" y="192">• 2015 •</tspan></text><text font-family="Letra Pro" font-size="6" font-weight="bold" fill="#FFF"><tspan x="105" y="184">HEBE OF LEEDS</tspan></text><circle stroke="#979797" fill="#D8D8D8" cx="129" cy="129" r="2"/></g></g></svg>