<?xml version="1.0" encoding="UTF-8" standalone="no"?>
<svg width="10px" height="55px" viewBox="0 0 20 125" version="1.1" xmlns="http://www.w3.org/2000/svg" xmlns:xlink="http://www.w3.org/1999/xlink" xmlns:sketch="http://www.bohemiancoding.com/sketch/ns">
    <!-- Generator: Sketch 3.3 (11970) - http://www.bohemiancoding.com/sketch -->
    <title>Fill 2 + Oval 54 Copy</title>
    <desc>Created with Sketch.</desc>
    <defs></defs>
    <g id="Page-1" stroke="none" stroke-width="1" fill="none" fill-rule="evenodd" sketch:type="MSPage">
        <g id="Fill-2-+-Oval-54-Copy" sketch:type="MSLayerGroup" transform="translate(10.000000, 62.500000) rotate(50.000000) translate(-10.000000, -62.500000) translate(-44.000000, 15.000000)">
            <path d="M57.0092934,87.6955508 C57.5546021,87.7612234 57.8846867,87.834277 58.2145855,87.8337092 C58.8162093,87.8323844 58.9115547,88.1736168 58.9044921,88.6921839 C58.8968719,89.2540912 58.5690176,89.2845618 58.1651471,89.2654467 C58.0415513,89.2595797 57.8982544,89.2234314 57.7973332,89.27226 C57.5250506,89.4041729 57.2706104,89.5745051 57.0092934,89.7295075 C57.1905054,89.9405303 57.3358467,90.2100338 57.5594344,90.3517881 C58.3445006,90.8497262 59.2297444,91.2104521 59.9456712,91.7909066 C62.8894834,94.1776404 64.2665087,97.2721995 63.6219516,101.115463 C63.0011843,104.816973 60.9264463,107.336945 57.404986,108.554631 C52.5936681,110.217831 47.0738576,107.706566 45.2899881,103.055737 C43.4453429,98.2463108 45.5814142,92.7406037 50.0728697,90.6669028 C50.5616775,90.4413072 51.4268486,90.4645859 51.2755598,89.6596713 C51.2341134,89.4386178 50.3027767,89.383733 49.7764255,89.2682856 C49.5719812,89.2234314 49.358244,89.2224851 49.0889351,89.1954212 L49.0889351,87.8717501 C49.7264296,87.8303026 50.3178312,87.7916939 51.1439721,87.7379446 C50.7993905,87.1467024 50.5155846,86.7797309 50.3568615,86.3635524 C49.9827284,85.3831955 49.6335003,84.3894012 49.3511813,83.3785738 C49.2671733,83.0780319 49.3179127,82.5664673 49.5143651,82.3864829 C50.3499847,81.6211232 49.904482,81.0126584 49.480353,80.2677386 C48.9911735,79.4086961 49.4013631,78.5464362 49.7905507,77.7490919 C50.2022272,76.9061364 50.266906,76.1737075 49.240038,75.6494626 C50.6901057,74.2266203 48.8426726,73.5328002 48.591392,72.3506941 C49.1439492,72.3022441 49.6678842,72.2562543 50.2529666,72.2049654 C49.5238439,69.7504772 49.1171855,67.38248 50.9222429,65.2205848 C50.347011,64.2915169 49.7762396,63.3700192 49.1971047,62.4345165 C49.8951891,61.9929774 50.6676168,61.5883436 51.3469295,61.0597457 C53.6632835,59.2578194 55.1629754,56.9804768 55.7681306,53.9839535 C56.4035806,50.8373485 53.2467747,46.7862791 50.4668897,46.5080697 C49.8857103,46.4499674 49.3088056,46.3477681 48.599198,46.247272 C49.0538078,45.2905724 50.7211441,44.6819184 49.2926359,43.374145 C50.3195039,42.5894809 50.3416211,41.5786534 50.1226798,40.5080204 C50.0217587,40.0142461 49.8974194,39.5253924 49.7976134,39.0314288 C49.5619448,37.8659775 49.6217913,36.765631 50.092199,35.6204303 C52.5745246,29.579312 53.9037843,23.3093807 53.4924796,16.7209281 C53.3936029,15.1341883 53.2618292,15.0473188 51.8688201,15.7038551 C51.7942908,15.7388679 51.6963434,15.7224024 51.5484001,15.735272 C51.560295,15.5904895 51.5430102,15.4646329 51.5831556,15.362055 C53.1280111,11.4199982 53.4021524,7.28660155 53.455122,3.10134814 C53.5224028,-2.19352545 53.6777805,-7.48726349 53.8168026,-12.7810015 C53.830742,-13.3145201 53.9944833,-13.843875 54.0887135,-14.3751224 C54.1914932,-14.3737976 54.294273,-14.3726621 54.3970527,-14.3713373 C54.4535537,-13.9631076 54.5518728,-13.5556349 54.5602364,-13.1464589 C54.6602283,-8.22915521 54.718402,-3.31090521 54.8453433,1.60564146 C54.9657796,6.26044419 55.4956621,10.8512777 57.2152245,15.2229503 C57.2574144,15.3300704 57.2457053,15.4593337 57.2648488,15.6298552 L55.419646,15.6298552 C55.3109188,17.5559348 55.1994037,19.4375387 55.0999694,21.3195212 C54.983622,23.5236209 54.883816,25.7284776 54.76561,27.9323881 C54.675097,29.6158388 54.6697071,29.6175421 56.3398312,29.2882331 C56.0526799,30.4220783 56.0891081,31.4431257 57.587499,32.0309613 C57.059661,32.2175698 56.7706511,32.3491042 56.4678877,32.4221578 C53.0971586,33.2367246 50.9393419,37.1766995 52.3026137,40.4677085 C53.0986455,42.3890566 54.3873881,44.0959753 55.4207611,45.9190985 C56.2535929,47.388309 57.1369781,48.8416219 57.8135029,50.3857787 C58.5560075,52.0809634 58.4983914,53.8862963 57.9711109,55.6658901 C57.6761535,56.661577 57.4672486,57.692655 57.0786186,58.6484084 C56.7035562,59.5712308 56.9639439,59.995926 57.8506746,60.1919974 C58.0244523,60.2302275 58.1831754,60.3396187 58.3500763,60.4170252 C57.6371232,61.8514123 57.638796,61.8491412 58.955789,62.8900607 C59.24071,63.1152778 59.508718,63.3626382 59.7064714,63.5324027 C59.1706414,64.0373433 58.5143752,64.400908 58.2762905,64.9518383 C58.0391351,65.500119 58.206036,66.23709 58.2251794,66.890409 C58.245438,67.5817688 58.3597409,68.2759674 58.3182945,68.9616495 C58.2932036,69.377828 58.1697936,69.9454131 57.8841291,70.1592747 C56.836445,70.9443173 57.353875,71.6322704 57.8906342,72.3461519 C58.322941,72.921118 58.7595225,73.4964626 59.2401525,74.0288456 C59.697736,74.535868 60.2149801,74.9870593 60.7218161,75.4783733 C59.1853242,76.4407507 58.7411225,77.5829233 59.0693485,79.271484 C59.5615018,81.8030002 59.1503828,84.1528286 57.6127758,86.2666522 C57.3443962,86.6358948 57.2416164,87.1300477 57.0092934,87.6955508 L57.0092934,87.6955508 Z M51.7329575,81.8760538 C52.9412234,83.3581339 52.9412234,83.3581339 51.5422667,84.4376621 C50.9503075,84.8945311 51.0019762,85.3389091 51.7732888,85.6755992 C53.3201888,86.3508721 55.8084619,86.2727085 56.7273461,83.8394172 C57.0081782,83.0958222 57.1657862,82.2483245 57.1488731,81.4534405 C57.0905135,78.6933005 54.564697,76.9591286 52.0076563,77.87457 C51.6864929,77.9894497 51.4242466,78.2742831 51.1346791,78.4801959 C51.3785254,78.7400473 51.5852,79.0581901 51.8732807,79.248773 C52.7148478,79.8059488 52.8395588,80.2408639 52.300941,81.0893079 C52.1360845,81.34897 51.9413049,81.5891385 51.7329575,81.8760538 L51.7329575,81.8760538 Z M56.8658106,74.8714226 C56.5401866,74.2591727 56.3550716,73.8844417 56.1463525,73.5237158 C55.4900863,72.3898705 54.7977635,71.2766545 54.1745801,70.1244512 C53.834645,69.4961143 53.8032349,68.9342071 54.7412626,68.7532763 C55.3510642,68.6355578 55.9582638,68.1953435 55.7558639,67.5406998 C55.6170276,67.0923473 55.0133594,66.611064 54.5329152,66.4888033 C53.0910253,66.1214533 51.6894666,67.6591753 51.7333292,69.435741 C51.7838827,71.493355 53.4638574,73.8874698 55.3834036,74.587914 C55.7657144,74.7273972 56.1902151,74.7467015 56.8658106,74.8714226 L56.8658106,74.8714226 Z" id="Fill-2" fill="#F6A623" sketch:type="MSShapeGroup" transform="translate(54.202531, 47.346944) rotate(-50.000000) translate(-54.202531, -47.346944) "></path>
            <ellipse id="Oval-54-Copy" fill="#FFFFFF" sketch:type="MSShapeGroup" transform="translate(93.848533, 80.708914) rotate(-50.000000) translate(-93.848533, -80.708914) " cx="93.8485331" cy="80.7089142" rx="4.84099297" ry="4.81926676"></ellipse>
        </g>
    </g>
</svg>