<?xml version="1.0" encoding="UTF-8" standalone="no"?>
<svg width="21px" height="138px" viewBox="0 0 21 138" version="1.1" xmlns="http://www.w3.org/2000/svg" xmlns:xlink="http://www.w3.org/1999/xlink" xmlns:sketch="http://www.bohemiancoding.com/sketch/ns">
    <!-- Generator: Sketch 3.3 (11970) - http://www.bohemiancoding.com/sketch -->
    <title>Minute</title>
    <desc>Created with Sketch.</desc>
    <defs></defs>
    <g id="Stories" stroke="none" stroke-width="1" fill="none" fill-rule="evenodd" sketch:type="MSPage">
        <g id="Artboard-1" sketch:type="MSArtboardGroup" transform="translate(-2012.000000, -2164.000000)" fill="#EC9E3F">
            <g id="Clock-Hands" sketch:type="MSLayerGroup" transform="translate(1958.000000, 2150.000000)">
                <path d="M110.691475,100.826246 C108.746709,101.14343 107.023947,101.989835 105.627074,103.183195 C105.493833,103.010717 105.373016,102.840029 105.290138,102.654909 C104.060525,99.8872772 101.940033,98.1125822 99.1145544,97.1393832 C97.2298928,96.4900011 96.3408523,95.3818738 96.2653445,93.2819113 C95.479082,93.5062409 94.7263563,93.7633909 93.9524988,93.9289388 C93.1389951,94.1025502 92.3087399,94.2072752 91.4808156,94.3079628 C90.4535793,94.4321941 89.4630753,94.5534085 89.2830075,93.0471325 C89.2335169,92.6363545 88.735925,92.1835375 88.3326256,91.9170477 C87.6681462,91.4782329 86.9058494,91.190195 86.1997666,90.8094537 C85.5326215,90.4498473 84.6970469,90.1908294 84.2834733,89.6344459 C83.8694731,89.0764705 83.8846231,88.206416 83.6879529,87.3769078 C83.4031561,87.4762552 82.9992649,87.6023947 82.6082554,87.757504 C80.8001902,88.4766028 80.8016262,88.4787776 79.7754689,86.9321599 C79.6010139,87.0548395 79.3989219,87.1507966 79.2597521,87.3032686 C78.5495324,88.0788646 77.9726588,88.0943663 77.2634456,87.1829219 C76.5300919,86.238699 75.6167262,85.4314426 74.7882208,84.5587881 C73.3076245,82.9974254 71.5290703,81.8938666 69.3972527,81.6562546 C67.4552976,81.4394376 65.4851474,81.483575 63.5279849,81.4679214 C61.0989848,81.4490103 58.6386248,81.7524786 56.2498289,81.437827 C52.1566306,80.8981642 49.4536037,76.4495042 50.5893953,72.5941635 C50.6911193,72.247811 50.7277351,71.8813634 50.8453554,71.2440772 C49.3871833,72.4060834 48.3417214,71.8509342 47.370274,70.9065184 C46.7323907,72.7735945 46.7338685,72.766373 45.0966753,71.7000179 C42.9539687,70.3041224 40.798754,68.9252296 38.6548819,67.5313527 C36.8230835,66.3405302 34.9992875,65.1381783 33.1293321,63.9132136 L34.1986681,62.0610693 C34.017017,61.981763 33.8938047,61.8944768 33.7623391,61.8750983 C28.3778056,61.0662926 23.4636313,58.9369787 18.7220361,56.3595665 C13.7139325,53.6377061 8.74502892,50.8456184 3.75223281,48.0949137 C3.33618552,47.8668208 2.87087541,47.7287156 2.42786573,47.5496539 C2.36741645,47.6520241 2.30696717,47.7543943 2.24550856,47.8561818 C2.72366367,48.2587491 3.16060007,48.7303784 3.68739343,49.0533637 C8.91957337,52.2612291 14.1424294,55.485244 19.4169935,58.6220288 C23.5869936,61.1009063 27.5757212,63.7725459 30.6372502,67.607255 C30.7168934,67.7070686 30.8529679,67.7627528 30.9913204,67.8587801 C31.0638624,67.702831 31.1381302,67.6138221 31.1459262,67.5187347 C31.2939263,65.7402625 31.4580787,65.6587374 33.1079309,66.4793925 C39.9578964,69.8851393 45.480179,74.8539117 50.1034969,80.8459426 C50.9804141,81.982061 52.0496707,82.680144 53.3558614,83.1193586 C53.9091405,83.3055611 54.4729508,83.4641991 55.0258033,83.6488096 C56.2277919,84.0493957 57.2293612,84.6572594 57.4210839,86.1433486 C59.562319,85.4672227 59.2061984,87.4942831 59.9026831,88.5046961 C60.415035,87.8503744 60.8524833,87.3304514 61.2472687,86.7818597 C63.1381451,84.1524466 69.03344,83.3330057 71.8233797,85.7943178 C74.4788175,88.1389473 75.8961074,90.9637938 76.3611975,94.3330153 C76.4987594,95.3208454 76.4563848,96.3312934 76.4950617,97.2876023 C77.7694115,97.248173 79.0243857,97.2096695 80.2903484,97.1707811 C81.4144096,100.235452 84.026841,101.200041 86.9121276,101.890164 C86.6244468,102.507321 86.3672668,103.059995 86.0952058,103.643106 C87.4278792,104.076077 89.1948274,102.624008 89.7817209,104.903481 C90.90358,104.177135 91.6005033,104.66698 92.2079902,105.568141 C92.7828771,106.420873 93.4111337,107.33268 94.5563264,107.339803 C95.5501677,107.345674 96.4183932,107.252104 96.7022426,108.534337 C96.7692798,108.83547 97.2528888,109.181971 97.6030502,109.272436 C98.781191,109.574469 99.9816436,109.800562 101.181951,109.994271 C101.447328,110.035786 101.721415,110.036572 102.033712,110.027121 C101.967496,110.677936 101.96208,111.342321 102.022553,112.013794 C102.002271,112.055916 101.98098,112.097455 101.960698,112.139577 L102.042455,112.186779 C102.06243,112.375956 102.0746,112.564664 102.105563,112.753456 C103.028089,118.418922 108.367735,122.263486 114.032191,121.340378 C119.697657,120.417852 123.542221,115.078206 122.619695,109.41274 C121.696587,103.748284 116.356941,99.9037203 110.691475,100.826246 L110.691475,100.826246 Z M83.6561918,94.2826633 C84.0578835,93.8712922 84.8899961,93.5442383 85.4205818,93.664853 C86.1947957,93.8413417 86.285493,94.7052175 86.0498603,95.3860698 C85.6878415,96.4326808 86.2691199,96.7265626 87.0975096,96.7486106 C88.6149355,96.7916524 90.1332064,96.7423225 91.6522773,96.7405573 C92.1352596,96.7408286 92.6179601,96.7718904 93.4214592,96.7997546 C92.9046964,97.4057728 92.6396007,97.8206434 92.2778592,98.1231922 C90.461888,99.6438551 87.0854592,99.9419434 84.9912062,98.8001154 C83.1826392,97.8138077 82.4527088,95.5163501 83.6561918,94.2826633 L83.6561918,94.2826633 Z M97.4756133,106.010683 C97.3085787,105.635667 97.1803981,105.300578 97.0155577,104.984698 C96.4764499,103.953446 95.9671441,103.826276 94.9207937,104.347246 C94.5617709,104.526206 94.1233559,104.548974 93.7213385,104.643897 C93.6822536,104.233743 93.5487058,103.805388 93.6201189,103.415965 C94.1829532,100.319918 97.3869145,98.7891 100.190777,100.331201 C100.999074,100.774993 101.75745,101.424131 102.341778,102.136968 C104.250751,104.469166 102.886178,107.012162 101.312647,108.17351 C100.527553,108.752456 100.051703,108.54636 99.9366978,107.687291 C99.6632609,105.657427 99.6632609,105.657427 97.4756133,106.010683 L97.4756133,106.010683 Z M115.512497,112.902348 C114.521832,114.618232 112.326343,115.206511 110.61046,114.215845 C108.893568,113.224597 108.306298,111.029691 109.296963,109.313808 C110.288212,107.596916 112.482108,107.009063 114.199,108.000311 C115.914883,108.990977 116.503746,111.185456 115.512497,112.902348 L115.512497,112.902348 Z" id="Minute" sketch:type="MSShapeGroup" transform="translate(62.500948, 84.513440) rotate(60.000000) translate(-62.500948, -84.513440) "></path>
            </g>
        </g>
    </g>
</svg>