<svg width="31" height="31" viewBox="0 0 31 31" xmlns="http://www.w3.org/2000/svg" xmlns:sketch="http://www.bohemiancoding.com/sketch/ns"><title>Fill 143</title><desc>Created with Sketch.</desc><path d="M15.846 15.05l14.089-14.089c.22-.22.22-.576 0-.796-.22-.22-.577-.22-.797 0l-14.088 14.088-14.089-14.088c-.22-.22-.576-.22-.796 0-.22.22-.22.576 0 .796l14.088 14.089-14.088 14.088c-.22.22-.22.576 0 .796.11.11.254.165.398.165.144 0 .288-.055.398-.165l14.089-14.088 14.088 14.088c.11.11.254.165.398.165.144 0 .288-.055.399-.165.22-.22.22-.576 0-.796l-14.089-14.088" sketch:type="MSShapeGroup" fill="#5B5B58"/></svg>