<?xml version="1.0" encoding="UTF-8" standalone="no"?>
<svg width="31px" height="31px" viewBox="0 0 31 31" version="1.1" xmlns="http://www.w3.org/2000/svg" xmlns:xlink="http://www.w3.org/1999/xlink" xmlns:sketch="http://www.bohemiancoding.com/sketch/ns">
    <!-- Generator: Sketch 3.2.2 (9983) - http://www.bohemiancoding.com/sketch -->
    <title>Fill 143</title>
    <desc>Created with Sketch.</desc>
    <defs></defs>
    <g id="UI" stroke="none" stroke-width="1" fill="none" fill-rule="evenodd" sketch:type="MSPage">
        <g id="Story" sketch:type="MSArtboardGroup" transform="translate(-1367.000000, -599.000000)" fill="#5B5B58">
            <path d="M1382.84583,614.05 L1396.93502,599.960814 C1397.155,599.740835 1397.155,599.384964 1396.93502,599.164984 C1396.71504,598.945005 1396.35841,598.945005 1396.13844,599.164984 L1382.05,613.25342 L1367.96081,599.164984 C1367.74083,598.945005 1367.38496,598.945005 1367.16498,599.164984 C1366.94501,599.384964 1366.94501,599.740835 1367.16498,599.960814 L1381.25342,614.05 L1367.16498,628.138436 C1366.94501,628.358415 1366.94501,628.714286 1367.16498,628.934265 C1367.2746,629.04463 1367.41875,629.099437 1367.5629,629.099437 C1367.70705,629.099437 1367.8512,629.04463 1367.96081,628.934265 L1382.05,614.846581 L1396.13844,628.934265 C1396.2488,629.04463 1396.3922,629.099437 1396.53635,629.099437 C1396.6805,629.099437 1396.82465,629.04463 1396.93502,628.934265 C1397.155,628.714286 1397.155,628.358415 1396.93502,628.138436 L1382.84583,614.05" id="Fill-143" sketch:type="MSShapeGroup"></path>
        </g>
    </g>
</svg>