<svg xmlns:sketch="http://www.bohemiancoding.com/sketch/ns" xmlns="http://www.w3.org/2000/svg" width="35" height="35" viewBox="-0.106 17.295 35 35" enable-background="new -0.106 17.295 35 35"><title>Fill 190</title><desc>Created with Sketch.</desc><path sketch:type="MSShapeGroup" d="M11.199 34.512c-1.736 0-3.148 1.427-3.148 3.181s1.412 3.181 3.148 3.181c1.737 0 3.151-1.427 3.151-3.181-.001-1.754-1.414-3.181-3.151-3.181zm0 5.418c-1.22 0-2.214-1.004-2.214-2.238 0-1.233.993-2.237 2.214-2.237 1.222 0 2.216 1.004 2.216 2.237 0 1.235-.994 2.238-2.216 2.238zm16.281-14.16c-1.202 0-2.178.986-2.178 2.198 0 1.213.976 2.199 2.178 2.199 1.2 0 2.176-.986 2.176-2.199 0-1.212-.976-2.198-2.176-2.198zm0 3.454c-.687 0-1.244-.563-1.244-1.255s.557-1.255 1.244-1.255c.685 0 1.242.563 1.242 1.255s-.557 1.255-1.242 1.255zm6.446-2.667h-.933l-.078-.09-.558-1.365.009-.072.655-.664c.166-.164.257-.383.257-.617s-.091-.453-.253-.613l-.762-.776c-.329-.321-.892-.318-1.212.006l-.713.679-1.415-.582-.045-.06v-.945c0-.479-.387-.869-.862-.869h-1.075c-.474 0-.859.39-.859.869l.001.94-.09.079-1.352.565-.072-.007-.663-.669c-.325-.326-.888-.327-1.216.001l-.763.769c-.333.339-.333.889.002 1.228l.659.664-.011.118-.552 1.364-.059.047h-.937c-.475 0-.862.39-.862.869v1.084c0 .479.387.869.862.869l.932-.001.078.089.558 1.365-.007.071-.664.668c-.333.34-.333.891.002 1.228l.763.772c.326.321.888.322 1.214-.006l.712-.677 1.414.581.049.06v.945c0 .479.385.869.859.869h1.075c.475 0 .862-.39.862-.869v-.942l.087-.078 1.353-.564.07.007.662.667c.322.328.882.335 1.22.001l.751-.764c.166-.163.257-.382.258-.616.001-.235-.09-.455-.254-.616l-.657-.663.011-.12.553-1.362.059-.048h.936c.475 0 .862-.39.862-.869v-1.084c.001-.476-.386-.866-.861-.866zm-.073 1.88h-.862c-.423 0-.833.308-.938.673l-.517 1.274c-.203.375-.132.886.168 1.189l.608.615-.652.663-.61-.616c-.181-.182-.44-.286-.71-.286-.168 0-.33.041-.42.094l-1.265.526c-.406.12-.711.535-.711.964v.87h-.926v-.87c0-.428-.307-.842-.668-.947l-1.262-.52c-.362-.203-.888-.126-1.179.169l-.609.616-.656-.664.609-.614c.302-.302.374-.814.192-1.142l-.521-1.274c-.12-.411-.53-.72-.953-.72h-.864v-.936h.864c.424 0 .834-.31.937-.674l.515-1.272c.207-.376.135-.889-.168-1.191l-.61-.614.658-.662.609.617c.181.181.44.284.712.284.167 0 .328-.04.419-.094l1.264-.528c.406-.122.713-.536.713-.963v-.87h.926v.87c0 .429.305.843.665.947l1.263.521c.362.201.884.125 1.177-.169l.61-.617.652.664-.603.611c-.303.301-.378.813-.194 1.144l.522 1.277c.121.41.531.719.954.719h.862v.936h-.001zm-12.541 7.31h-1.465c-.134 0-.309-.132-.363-.306l-.868-2.121c-.063-.116-.032-.331.062-.425l1.035-1.046c.204-.206.318-.481.318-.774 0-.292-.112-.568-.317-.774l-1.194-1.21c-.41-.406-1.12-.406-1.529.003l-1.037 1.049c-.056.057-.166.095-.27.095l-.202-.056-2.099-.87c-.126-.038-.254-.214-.254-.35v-1.481c0-.604-.488-1.096-1.087-1.096h-1.685c-.598 0-1.083.492-1.083 1.096v1.481c0 .133-.133.312-.303.365l-2.102.877c-.106.059-.332.027-.419-.061l-1.04-1.05c-.41-.411-1.125-.409-1.531.001l-1.193 1.203c-.206.207-.321.483-.321.776.001.293.115.568.319.773l1.038 1.047c.094.094.125.308.038.473l-.859 2.117c-.038.128-.216.262-.346.262h-1.47c-.597 0-1.083.491-1.083 1.095v1.702c0 .604.486 1.095 1.083 1.095h1.47c.133 0 .307.131.361.304l.867 2.122c.063.116.032.33-.061.425l-1.036 1.045c-.206.207-.321.483-.321.777.001.294.115.569.319.772l1.195 1.209c.411.408 1.121.406 1.532-.005l1.039-1.048c.055-.056.162-.094.265-.094l.203.058 2.099.868c.125.038.258.217.258.349v1.482c0 .604.485 1.096 1.083 1.096h1.685c.599 0 1.087-.492 1.087-1.096v-1.482c0-.135.128-.311.298-.365l2.101-.875c.111-.061.339-.029.425.058l1.038 1.05c.407.412 1.121.413 1.533 0l1.189-1.204c.206-.206.319-.481.319-.774 0-.294-.112-.57-.318-.776l-1.036-1.044c-.094-.096-.123-.311-.037-.475l.86-2.117c.038-.13.213-.261.347-.261h1.465c.6 0 1.087-.491 1.087-1.095v-1.702c-.002-.601-.489-1.092-1.089-1.092zm.153 2.797c0 .082-.069.152-.153.152h-1.465c-.551 0-1.085.401-1.227.89l-.822 2.024c-.26.478-.167 1.157.216 1.548l1.04 1.047.043.107-.044.107-1.189 1.204c-.076.076-.137.077-.211.001l-1.04-1.052c-.233-.233-.571-.368-.927-.368-.218 0-.427.053-.559.129l-2.009.836c-.519.154-.924.705-.924 1.254v1.482c0 .082-.07.153-.152.153h-1.685c-.081 0-.149-.07-.149-.153v-1.482c0-.548-.407-1.099-.882-1.238l-2.006-.828c-.178-.099-.388-.152-.606-.152-.356 0-.694.135-.927.369l-1.037 1.047c-.075.077-.141.076-.214.004l-1.194-1.208-.044-.104.046-.108 1.039-1.048c.389-.394.483-1.06.239-1.498l-.827-2.029c-.155-.524-.701-.934-1.241-.934h-1.47c-.08 0-.148-.07-.148-.152v-1.702c0-.082.068-.152.148-.152h1.47c.54 0 1.086-.411 1.225-.892l.82-2.023c.263-.479.168-1.16-.219-1.548l-1.038-1.048-.044-.104.046-.107 1.196-1.205c.071-.074.135-.076.209 0l1.04 1.049c.232.235.57.369.927.369.217 0 .427-.052.556-.128l2.009-.837c.52-.155.927-.706.927-1.254v-1.481c0-.084.066-.153.149-.153h1.685c.082 0 .152.07.152.153v1.481c0 .548.405 1.099.878 1.238l2.007.831c.469.259 1.155.16 1.535-.22l1.035-1.049c.077-.076.144-.07.211-.002l1.192 1.208.044.107-.044.106-1.034 1.047c-.386.387-.482 1.067-.242 1.499l.829 2.029c.157.534.691.936 1.242.936h1.465c.083 0 .153.07.153.152v1.7z"/></svg>