<?xml version="1.0" encoding="utf-8"?>
<!-- Generator: Adobe Illustrator 17.0.0, SVG Export Plug-In . SVG Version: 6.00 Build 0)  -->
<!DOCTYPE svg PUBLIC "-//W3C//DTD SVG 1.1//EN" "http://www.w3.org/Graphics/SVG/1.1/DTD/svg11.dtd">
<svg version="1.1" id="Layer_1" xmlns:sketch="http://www.bohemiancoding.com/sketch/ns"
	 xmlns="http://www.w3.org/2000/svg" xmlns:xlink="http://www.w3.org/1999/xlink" x="0px" y="0px" width="35px" height="35px"
	 viewBox="-0.106 17.295 35 35" enable-background="new -0.106 17.295 35 35" xml:space="preserve">
<title>Fill 190</title>
<desc>Created with Sketch.</desc>
<g id="Page-1" sketch:type="MSPage">
	<g id="Canvas-view" transform="translate(-1894.000000, -256.000000)" sketch:type="MSArtboardGroup">
		<path id="Fill-190" sketch:type="MSShapeGroup" d="M1905.199,290.512c-1.736,0-3.148,1.427-3.148,3.181
			c0,1.754,1.412,3.181,3.148,3.181c1.737,0,3.151-1.427,3.151-3.181C1908.349,291.939,1906.936,290.512,1905.199,290.512
			L1905.199,290.512z M1905.199,295.93c-1.22,0-2.214-1.004-2.214-2.238c0-1.233,0.993-2.237,2.214-2.237
			c1.222,0,2.216,1.004,2.216,2.237C1907.415,294.927,1906.421,295.93,1905.199,295.93L1905.199,295.93z M1921.48,281.77
			c-1.202,0-2.178,0.986-2.178,2.198c0,1.213,0.976,2.199,2.178,2.199c1.2,0,2.176-0.986,2.176-2.199
			C1923.656,282.756,1922.68,281.77,1921.48,281.77L1921.48,281.77z M1921.48,285.224c-0.687,0-1.244-0.563-1.244-1.255
			c0-0.692,0.557-1.255,1.244-1.255c0.685,0,1.242,0.563,1.242,1.255C1922.722,284.661,1922.165,285.224,1921.48,285.224
			L1921.48,285.224z M1927.926,282.557h-0.933c-0.019-0.003-0.054-0.03-0.078-0.09l-0.558-1.365
			c-0.005-0.017-0.001-0.058,0.009-0.072l0.655-0.664c0.166-0.164,0.257-0.383,0.257-0.617s-0.091-0.453-0.253-0.613l-0.762-0.776
			c-0.329-0.321-0.892-0.318-1.212,0.006l-0.713,0.679l-1.415-0.582c-0.017-0.009-0.043-0.044-0.045-0.06v-0.945
			c0-0.479-0.387-0.869-0.862-0.869h-1.075c-0.474,0-0.859,0.39-0.859,0.869l0.001,0.94c-0.004,0.019-0.032,0.056-0.09,0.079
			l-1.352,0.565l-0.072-0.007l-0.663-0.669c-0.325-0.326-0.888-0.327-1.216,0.001l-0.763,0.769
			c-0.333,0.339-0.333,0.889,0.002,1.228l0.659,0.664c0.01,0.015,0.017,0.056-0.011,0.118l-0.552,1.364
			c-0.009,0.017-0.045,0.044-0.059,0.047h-0.937c-0.475,0-0.862,0.39-0.862,0.869v1.084c0,0.479,0.387,0.869,0.862,0.869
			l0.932-0.001c0.019,0.004,0.055,0.03,0.078,0.089l0.558,1.365c0.007,0.018,0.001,0.059-0.007,0.071l-0.664,0.668
			c-0.333,0.34-0.333,0.891,0.002,1.228l0.763,0.772c0.326,0.321,0.888,0.322,1.214-0.006l0.712-0.677l1.414,0.581
			c0.018,0.009,0.045,0.045,0.049,0.06v0.945c0,0.479,0.385,0.869,0.859,0.869h1.075c0.475,0,0.862-0.39,0.862-0.869v-0.942
			c0.002-0.02,0.028-0.055,0.087-0.078l1.353-0.564l0.07,0.007l0.662,0.667c0.322,0.328,0.882,0.335,1.22,0.001l0.751-0.764
			c0.166-0.163,0.257-0.382,0.258-0.616c0.001-0.235-0.09-0.455-0.254-0.616l-0.657-0.663c-0.011-0.016-0.016-0.059,0.011-0.12
			l0.553-1.362c0.008-0.018,0.044-0.045,0.059-0.048h0.936c0.475,0,0.862-0.39,0.862-0.869v-1.084
			C1928.788,282.947,1928.401,282.557,1927.926,282.557L1927.926,282.557z M1927.853,284.437h-0.862
			c-0.423,0-0.833,0.308-0.938,0.673l-0.517,1.274c-0.203,0.375-0.132,0.886,0.168,1.189l0.608,0.615l-0.652,0.663l-0.61-0.616
			c-0.181-0.182-0.44-0.286-0.71-0.286c-0.168,0-0.33,0.041-0.42,0.094l-1.265,0.526c-0.406,0.12-0.711,0.535-0.711,0.964v0.87
			h-0.926v-0.87c0-0.428-0.307-0.842-0.668-0.947l-1.262-0.52c-0.362-0.203-0.888-0.126-1.179,0.169l-0.609,0.616l-0.656-0.664
			l0.609-0.614c0.302-0.302,0.374-0.814,0.192-1.142l-0.521-1.274c-0.12-0.411-0.53-0.72-0.953-0.72h-0.864v-0.936h0.864
			c0.424,0,0.834-0.31,0.937-0.674l0.515-1.272c0.207-0.376,0.135-0.889-0.168-1.191l-0.61-0.614l0.658-0.662l0.609,0.617
			c0.181,0.181,0.44,0.284,0.712,0.284c0.167,0,0.328-0.04,0.419-0.094l1.264-0.528c0.406-0.122,0.713-0.536,0.713-0.963v-0.87
			h0.926v0.87c0,0.429,0.305,0.843,0.665,0.947l1.263,0.521c0.362,0.201,0.884,0.125,1.177-0.169l0.61-0.617l0.652,0.664
			l-0.603,0.611c-0.303,0.301-0.378,0.813-0.194,1.144l0.522,1.277c0.121,0.41,0.531,0.719,0.954,0.719h0.862V284.437
			L1927.853,284.437z M1915.312,291.747h-1.465c-0.134,0-0.309-0.132-0.363-0.306l-0.868-2.121
			c-0.063-0.116-0.032-0.331,0.062-0.425l1.035-1.046c0.204-0.206,0.318-0.481,0.318-0.774c0-0.292-0.112-0.568-0.317-0.774
			l-1.194-1.21c-0.41-0.406-1.12-0.406-1.529,0.003l-1.037,1.049c-0.056,0.057-0.166,0.095-0.27,0.095
			c-0.06,0-0.115-0.012-0.202-0.056l-2.099-0.87c-0.126-0.038-0.254-0.214-0.254-0.35v-1.481c0-0.604-0.488-1.096-1.087-1.096
			h-1.685c-0.598,0-1.083,0.492-1.083,1.096v1.481c0,0.133-0.133,0.312-0.303,0.365l-2.102,0.877
			c-0.106,0.059-0.332,0.027-0.419-0.061l-1.04-1.05c-0.41-0.411-1.125-0.409-1.531,0.001l-1.193,1.203
			c-0.206,0.207-0.321,0.483-0.321,0.776c0.001,0.293,0.115,0.568,0.319,0.773l1.038,1.047c0.094,0.094,0.125,0.308,0.038,0.473
			l-0.859,2.117c-0.038,0.128-0.216,0.262-0.346,0.262h-1.47c-0.597,0-1.083,0.491-1.083,1.095v1.702
			c0,0.604,0.486,1.095,1.083,1.095h1.47c0.133,0,0.307,0.131,0.361,0.304l0.867,2.122c0.063,0.116,0.032,0.33-0.061,0.425
			l-1.036,1.045c-0.206,0.207-0.321,0.483-0.321,0.777c0.001,0.294,0.115,0.569,0.319,0.772l1.195,1.209
			c0.411,0.408,1.121,0.406,1.532-0.005l1.039-1.048c0.055-0.056,0.162-0.094,0.265-0.094c0.06,0,0.115,0.013,0.203,0.058
			l2.099,0.868c0.125,0.038,0.258,0.217,0.258,0.349v1.482c0,0.604,0.485,1.096,1.083,1.096h1.685c0.599,0,1.087-0.492,1.087-1.096
			v-1.482c0-0.135,0.128-0.311,0.298-0.365l2.101-0.875c0.111-0.061,0.339-0.029,0.425,0.058l1.038,1.05
			c0.407,0.412,1.121,0.413,1.533,0l1.189-1.204c0.206-0.206,0.319-0.481,0.319-0.774c0-0.294-0.112-0.57-0.318-0.776l-1.036-1.044
			c-0.094-0.096-0.123-0.311-0.037-0.475l0.86-2.117c0.038-0.13,0.213-0.261,0.347-0.261h1.465c0.6,0,1.087-0.491,1.087-1.095
			v-1.702C1916.399,292.238,1915.912,291.747,1915.312,291.747L1915.312,291.747z M1915.465,294.544
			c0,0.082-0.069,0.152-0.153,0.152h-1.465c-0.551,0-1.085,0.401-1.227,0.89l-0.822,2.024c-0.26,0.478-0.167,1.157,0.216,1.548
			l1.04,1.047c0.037,0.038,0.043,0.083,0.043,0.107s-0.006,0.069-0.044,0.107l-1.189,1.204c-0.076,0.076-0.137,0.077-0.211,0.001
			l-1.04-1.052c-0.233-0.233-0.571-0.368-0.927-0.368c-0.218,0-0.427,0.053-0.559,0.129l-2.009,0.836
			c-0.519,0.154-0.924,0.705-0.924,1.254v1.482c0,0.082-0.07,0.153-0.152,0.153h-1.685c-0.081,0-0.149-0.07-0.149-0.153v-1.482
			c0-0.548-0.407-1.099-0.882-1.238l-2.006-0.828c-0.178-0.099-0.388-0.152-0.606-0.152c-0.356,0-0.694,0.135-0.927,0.369
			l-1.037,1.047c-0.075,0.077-0.141,0.076-0.214,0.004l-1.194-1.208c-0.037-0.036-0.042-0.081-0.044-0.104
			c0-0.023,0.007-0.068,0.046-0.108l1.039-1.048c0.389-0.394,0.483-1.06,0.239-1.498l-0.827-2.029
			c-0.155-0.524-0.701-0.934-1.241-0.934h-1.47c-0.08,0-0.148-0.07-0.148-0.152v-1.702c0-0.082,0.068-0.152,0.148-0.152h1.47
			c0.54,0,1.086-0.411,1.225-0.892l0.82-2.023c0.263-0.479,0.168-1.16-0.219-1.548l-1.038-1.048
			c-0.036-0.036-0.043-0.077-0.044-0.104c0-0.024,0.007-0.069,0.046-0.107l1.196-1.205c0.071-0.074,0.135-0.076,0.209,0l1.04,1.049
			c0.232,0.235,0.57,0.369,0.927,0.369c0.217,0,0.427-0.052,0.556-0.128l2.009-0.837c0.52-0.155,0.927-0.706,0.927-1.254v-1.481
			c0-0.084,0.066-0.153,0.149-0.153h1.685c0.082,0,0.152,0.07,0.152,0.153v1.481c0,0.548,0.405,1.099,0.878,1.238l2.007,0.831
			c0.469,0.259,1.155,0.16,1.535-0.22l1.035-1.049c0.077-0.076,0.144-0.07,0.211-0.002l1.192,1.208
			c0.039,0.038,0.044,0.082,0.044,0.107c0,0.023-0.006,0.067-0.044,0.106l-1.034,1.047c-0.386,0.387-0.482,1.067-0.242,1.499
			l0.829,2.029c0.157,0.534,0.691,0.936,1.242,0.936h1.465c0.083,0,0.153,0.07,0.153,0.152V294.544L1915.465,294.544z"/>
	</g>
</g>
</svg>
