<?xml version="1.0" encoding="UTF-8" standalone="no"?>
<svg width="35px" height="35px" viewBox="0 0 39 40" version="1.1" xmlns="http://www.w3.org/2000/svg" xmlns:xlink="http://www.w3.org/1999/xlink" xmlns:sketch="http://www.bohemiancoding.com/sketch/ns">
    <!-- Generator: Sketch 3.3 (11970) - http://www.bohemiancoding.com/sketch -->
    <title>Fill 192 Copy 14</title>
    <desc>Created with Sketch.</desc>
    <defs></defs>
    <g id="Stories" stroke="none" stroke-width="1" fill="none" fill-rule="evenodd" sketch:type="MSPage">
        <g id="Artboard-1" sketch:type="MSArtboardGroup" transform="translate(-2157.000000, -2125.000000)" fill="#FFFFFF" opacity="0.299999982">
            <path d="M2176.3148,2140.01184 C2173.32007,2140.01184 2170.88517,2142.47323 2170.88517,2145.49763 C2170.88517,2148.52311 2173.32007,2150.9845 2176.3148,2150.9845 C2179.31061,2150.9845 2181.74874,2148.52311 2181.74874,2145.49763 C2181.74874,2142.47323 2179.31061,2140.01184 2176.3148,2140.01184 L2176.3148,2140.01184 Z M2176.3148,2149.35732 C2174.20979,2149.35732 2172.49697,2147.62599 2172.49697,2145.49763 C2172.49697,2143.37036 2174.20979,2141.63903 2176.3148,2141.63903 C2178.42197,2141.63903 2180.13693,2143.37036 2180.13693,2145.49763 C2180.13693,2147.62599 2178.42197,2149.35732 2176.3148,2149.35732 L2176.3148,2149.35732 Z M2193.75776,2142.14237 L2191.23045,2142.14237 C2190.99943,2142.14237 2190.69748,2141.91457 2190.60507,2141.61408 L2189.10824,2137.95508 C2188.99971,2137.75439 2189.05344,2137.38448 2189.21462,2137.22176 L2190.99943,2135.41776 C2191.35188,2135.06194 2191.54744,2134.58789 2191.54744,2134.08346 C2191.54744,2133.57903 2191.35402,2133.1039 2191.0005,2132.74809 L2188.94061,2130.66095 C2188.23357,2129.96126 2187.00967,2129.96017 2186.30263,2130.66637 L2184.5146,2132.4758 C2184.41789,2132.57452 2184.22877,2132.63961 2184.04825,2132.63961 C2183.94509,2132.63961 2183.85053,2132.61899 2183.7001,2132.54306 L2180.07998,2131.04279 C2179.86185,2130.97771 2179.64157,2130.67397 2179.64157,2130.43965 L2179.64157,2127.88497 C2179.64157,2126.84248 2178.80021,2125.99418 2177.76758,2125.99418 L2174.86095,2125.99418 C2173.8294,2125.99418 2172.99233,2126.84248 2172.99233,2127.88497 L2172.99233,2130.43965 C2172.99233,2130.66854 2172.76346,2130.97771 2172.46904,2131.06991 L2168.84355,2132.5832 C2168.66088,2132.68517 2168.27082,2132.62984 2168.12038,2132.47797 L2166.32698,2130.66746 C2165.61994,2129.95909 2164.38744,2129.96234 2163.68684,2130.66963 L2161.62911,2132.74483 C2161.27343,2133.10173 2161.07572,2133.57795 2161.07572,2134.08346 C2161.07787,2134.58897 2161.27343,2135.06303 2161.62588,2135.41667 L2163.41606,2137.22285 C2163.57724,2137.38557 2163.63097,2137.75331 2163.48161,2138.03861 L2161.99982,2141.69002 C2161.93427,2141.91023 2161.62803,2142.14237 2161.40345,2142.14237 L2158.86755,2142.14237 C2157.83814,2142.14237 2157,2142.98959 2157,2144.03099 L2157,2146.96644 C2157,2148.00784 2157.83814,2148.85506 2158.86755,2148.85506 L2161.40345,2148.85506 C2161.63233,2148.85506 2161.93213,2149.08178 2162.02668,2149.3801 L2163.52137,2153.04018 C2163.62989,2153.24087 2163.57724,2153.6097 2163.41606,2153.77242 L2161.62911,2155.57534 C2161.27343,2155.93223 2161.07572,2156.40846 2161.07572,2156.91614 C2161.07787,2157.42274 2161.27343,2157.89787 2161.62588,2158.24826 L2163.68684,2160.33323 C2164.39604,2161.03617 2165.61994,2161.03292 2166.32913,2160.32455 L2168.12038,2158.51729 C2168.21494,2158.42074 2168.39976,2158.35566 2168.57814,2158.35566 C2168.68129,2158.35566 2168.77585,2158.37735 2168.92736,2158.45546 L2172.54748,2159.95247 C2172.76346,2160.01756 2172.99233,2160.32672 2172.99233,2160.55453 L2172.99233,2163.11029 C2172.99233,2164.15169 2173.8294,2165 2174.86095,2165 L2177.76758,2165 C2178.80021,2165 2179.64157,2164.15169 2179.64157,2163.11029 L2179.64157,2160.55453 C2179.64157,2160.3213 2179.86185,2160.01756 2180.15627,2159.92535 L2183.77961,2158.4164 C2183.97195,2158.31118 2184.36416,2158.3665 2184.51245,2158.51621 L2186.30263,2160.32781 C2187.00537,2161.03834 2188.23572,2161.04051 2188.94599,2160.32781 L2190.99728,2158.25152 C2191.35188,2157.89679 2191.54744,2157.42165 2191.54744,2156.91614 C2191.54744,2156.40954 2191.35402,2155.93332 2190.99943,2155.57751 L2189.21247,2153.77675 C2189.05129,2153.61187 2188.99971,2153.24087 2189.148,2152.95665 L2190.63194,2149.30525 C2190.69748,2149.08178 2190.99943,2148.85506 2191.23045,2148.85506 L2193.75776,2148.85506 C2194.79254,2148.85506 2195.63283,2148.00784 2195.63283,2146.96644 L2195.63283,2144.03099 C2195.63283,2142.98959 2194.79254,2142.14237 2193.75776,2142.14237 L2193.75776,2142.14237 Z" id="Fill-192-Copy-14" sketch:type="MSShapeGroup"></path>
        </g>
    </g>
</svg>