<svg width="48" height="38" viewBox="0 0 48 38" xmlns="http://www.w3.org/2000/svg"><path d="M41.737 10.5h.75v-1.5h-22.289v1.5h21.539z"/><path d="M41.737 19.5h.75v-1.5h-22.289v1.5h21.539z"/><path d="M41.557 28.5h.75v-1.5h-36.557v1.5h35.807z"/><path d="M44.122 2c1.036 0 1.878.833 1.878 1.84v30.32c0 1.017-.832 1.84-1.878 1.84h-40.245c-1.036 0-1.878-.833-1.878-1.84v-30.32c0-1.017.832-1.84 1.878-1.84h40.245zm-44.122 1.84v30.32c0 2.117 1.742 3.84 3.878 3.84h40.245c2.146 0 3.878-1.713 3.878-3.84v-30.32c0-2.117-1.742-3.84-3.878-3.84h-40.245c-2.146 0-3.878 1.713-3.878 3.84z"/><path d="M16 10l-1-1v10l1-1h-9l1 1v-10l-1 1h9zm-10-2v12h11v-12h-11z"/></svg>