<?xml version="1.0" encoding="UTF-8" standalone="no"?>
<svg width="86px" height="91px" viewBox="0 0 86 91" version="1.1" xmlns="http://www.w3.org/2000/svg" xmlns:xlink="http://www.w3.org/1999/xlink" xmlns:sketch="http://www.bohemiancoding.com/sketch/ns">
    <!-- Generator: Sketch 3.3.2 (12043) - http://www.bohemiancoding.com/sketch -->
    <title>Group + Response</title>
    <desc>Created with Sketch.</desc>
    <defs></defs>
    <g id="Stories" stroke="none" stroke-width="1" fill="none" fill-rule="evenodd" sketch:type="MSPage">
        <g id="Artboard-1" sketch:type="MSArtboardGroup" transform="translate(-1158.000000, -3264.000000)">
            <g id="Group-+-Response" sketch:type="MSLayerGroup" transform="translate(1157.000000, 3264.000000)">
                <g id="Group" transform="translate(28.000000, 0.000000)" fill="#0A0B09" sketch:type="MSShapeGroup">
                    <path d="M15.8087083,10.605875 C15.7622083,10.605875 15.717,10.5916667 15.6705,10.57875 L6.53583333,8.58958333 C6.18708333,8.51208333 5.96620833,8.17625 6.04241667,7.8275 C6.11604167,7.47875 6.46220833,7.24625 6.80966667,7.32375 L15.945625,9.327125 C16.2930833,9.404625 16.5139583,9.73916667 16.4390417,10.0879167 C16.3731667,10.3979167 16.1057917,10.605875 15.8087083,10.605875" id="Fill-4033"></path>
                    <path d="M15.8074167,10.605875 C15.5103333,10.605875 15.2429583,10.3979167 15.1770833,10.0879167 C15.0995833,9.73916667 15.3204583,9.404625 15.6705,9.327125 L24.80775,7.32375 C25.1552083,7.24625 25.5000833,7.47875 25.5762917,7.8275 C25.6525,8.17625 25.431625,8.51208333 25.082875,8.58958333 L15.945625,10.57875 C15.899125,10.5916667 15.8513333,10.605875 15.8074167,10.605875" id="Fill-4034"></path>
                    <path d="M12.57825,34.824625 C12.4129167,34.824625 12.2475833,34.75875 12.1222917,34.630875 C11.869125,34.37125 11.869125,33.972125 12.1222917,33.7125 L15.3514583,30.484625 C15.6033333,30.2379167 16.0115,30.2379167 16.2646667,30.484625 C16.5165417,30.7416667 16.5165417,31.1420833 16.2646667,31.4004167 L13.0355,34.630875 C12.9089167,34.75875 12.7435833,34.824625 12.57825,34.824625" id="Fill-4035"></path>
                    <path d="M19.0365833,34.824625 C18.87125,34.824625 18.7059167,34.75875 18.580625,34.630875 L15.3514583,31.4004167 C15.0982917,31.1420833 15.0982917,30.7416667 15.3514583,30.484625 C15.6033333,30.2379167 16.0115,30.2379167 16.2646667,30.484625 L19.4938333,33.7125 C19.7457083,33.972125 19.7457083,34.37125 19.4938333,34.630875 C19.36725,34.75875 19.2019167,34.824625 19.0365833,34.824625" id="Fill-4036"></path>
                    <path d="M29.7083333,1.71791667 L1.29166667,1.71791667 C0.935166667,1.71791667 0.645833333,1.43375 0.645833333,1.073375 C0.645833333,0.710416667 0.935166667,0.42625 1.29166667,0.42625 L29.7083333,0.42625 C30.0648333,0.42625 30.3541667,0.710416667 30.3541667,1.073375 C30.3541667,1.43375 30.0648333,1.71791667 29.7083333,1.71791667" id="Fill-4037"></path>
                    <path d="M27.125,5.59291667 L3.875,5.59291667 C3.5185,5.59291667 3.22916667,5.30875 3.22916667,4.948375 C3.22916667,4.58541667 3.5185,4.30125 3.875,4.30125 L27.125,4.30125 C27.4815,4.30125 27.7708333,4.58541667 27.7708333,4.948375 C27.7708333,5.30875 27.4815,5.59291667 27.125,5.59291667" id="Fill-4038"></path>
                    <path d="M27.1237083,5.59291667 C27.001,5.59291667 26.8782917,5.55416667 26.7672083,5.490875 C26.470125,5.28291667 26.3900417,4.88379167 26.5876667,4.58541667 L29.171,0.710416667 C29.3673333,0.414625 29.76775,0.337125 30.066125,0.530875 C30.3632083,0.737541667 30.4432917,1.13666667 30.2456667,1.43375 L27.6623333,5.30875 C27.5370417,5.490875 27.3329583,5.59291667 27.1237083,5.59291667" id="Fill-4039"></path>
                    <path d="M3.875,5.59291667 C3.66833333,5.59291667 3.46425,5.490875 3.33895833,5.30875 L0.740125,1.43375 C0.541208333,1.13666667 0.62,0.737541667 0.917083333,0.530875 C1.212875,0.337125 1.61329167,0.414625 1.81220833,0.710416667 L4.41104167,4.58541667 C4.60866667,4.88379167 4.53116667,5.28291667 4.23408333,5.490875 C4.12429167,5.55416667 3.999,5.59291667 3.875,5.59291667" id="Fill-4040"></path>
                    <path d="M29.7083333,39.17625 L1.29166667,39.17625 C0.935166667,39.17625 0.645833333,38.8920833 0.645833333,38.5304167 C0.645833333,38.1700417 0.935166667,37.885875 1.29166667,37.885875 L29.7083333,37.885875 C30.0648333,37.885875 30.3541667,38.1700417 30.3541667,38.5304167 C30.3541667,38.8920833 30.0648333,39.17625 29.7083333,39.17625" id="Fill-4041"></path>
                    <path d="M27.125,35.30125 L3.875,35.30125 C3.5185,35.30125 3.22916667,35.0170833 3.22916667,34.6554167 C3.22916667,34.2950417 3.5185,34.010875 3.875,34.010875 L27.125,34.010875 C27.4815,34.010875 27.7708333,34.2950417 27.7708333,34.6554167 C27.7708333,35.0170833 27.4815,35.30125 27.125,35.30125" id="Fill-4042"></path>
                    <path d="M29.7083333,39.17625 C29.500375,39.17625 29.2962917,39.0729167 29.171,38.8920833 L26.5876667,35.0170833 C26.3900417,34.72 26.470125,34.320875 26.7672083,34.1129167 C27.063,33.9191667 27.4647083,33.9966667 27.6623333,34.2950417 L30.2456667,38.1700417 C30.4432917,38.467125 30.3632083,38.86625 30.066125,39.0729167 C29.9550417,39.1387917 29.8323333,39.17625 29.7083333,39.17625" id="Fill-4043"></path>
                    <path d="M1.290375,39.17625 C1.16766667,39.17625 1.04495833,39.1387917 0.933875,39.0729167 C0.636791667,38.86625 0.556708333,38.467125 0.754333333,38.1700417 L3.33766667,34.2950417 C3.534,33.9966667 3.93570833,33.9191667 4.23279167,34.1129167 C4.529875,34.320875 4.60995833,34.72 4.41233333,35.0170833 L1.829,38.8920833 C1.70370833,39.0729167 1.499625,39.17625 1.290375,39.17625" id="Fill-4044"></path>
                    <path d="M15.8074167,20.293375 C10.4831667,20.293375 6.386,14.0791667 5.61229167,4.84375 L6.89879167,4.7275 C7.614375,13.2667083 11.1935833,19.0004167 15.8074167,19.0004167 C20.4225417,19.0004167 24.0030417,13.2667083 24.718625,4.7275 L26.005125,4.84375 C25.230125,14.0791667 21.1316667,20.293375 15.8074167,20.293375" id="Fill-4045"></path>
                    <path d="M6.89879167,34.553375 L5.61229167,34.437125 C6.38729167,25.2004167 10.4844583,19.0004167 15.8074167,19.0004167 C21.1329583,19.0004167 25.2314167,25.2004167 26.005125,34.437125 L24.718625,34.553375 C24.0043333,26.0141667 20.4238333,20.293375 15.8074167,20.293375 C11.1961667,20.293375 7.61566667,26.0141667 6.89879167,34.553375" id="Fill-4046"></path>
                    <path d="M14.8541667,24.323375 C14.4976667,24.323375 14.2083333,24.0379167 14.2083333,23.67625 L14.2083333,22.385875 C14.2083333,22.0229167 14.4976667,21.73875 14.8541667,21.73875 C15.2106667,21.73875 15.5,22.0229167 15.5,22.385875 L15.5,23.67625 C15.5,24.0379167 15.2106667,24.323375 14.8541667,24.323375" id="Fill-4047"></path>
                    <path d="M16.1458333,26.9054167 C15.7893333,26.9054167 15.5,26.62125 15.5,26.260875 L15.5,24.9679167 C15.5,24.6075417 15.7893333,24.323375 16.1458333,24.323375 C16.5023333,24.323375 16.7916667,24.6075417 16.7916667,24.9679167 L16.7916667,26.260875 C16.7916667,26.62125 16.5023333,26.9054167 16.1458333,26.9054167" id="Fill-4048"></path>
                    <path d="M14.8541667,29.48875 C14.4976667,29.48875 14.2083333,29.2045833 14.2083333,28.8429167 L14.2083333,27.55125 C14.2083333,27.190875 14.4976667,26.9054167 14.8541667,26.9054167 C15.2106667,26.9054167 15.5,27.190875 15.5,27.55125 L15.5,28.8429167 C15.5,29.2045833 15.2106667,29.48875 14.8541667,29.48875" id="Fill-4049"></path>
                </g>
                <text id="Response" sketch:type="MSTextLayer" font-family="Helvetica Neue" font-size="20" font-weight="260" sketch:alignment="middle" fill="#000000">
                    <tspan x="0.16" y="66">Response</tspan>
                    <tspan x="25.17" y="90">time</tspan>
                </text>
            </g>
        </g>
    </g>
</svg>