<svg xmlns="http://www.w3.org/2000/svg" width="48" height="48" viewBox="1331.491 44.329 48 48" enable-background="new 1331.491 44.329 48 48"><path d="M1342.304 52.5h26.374c.414 0 .75-.336.75-.75s-.336-.75-.75-.75h-26.374c-.413 0-.75.336-.75.75s.337.75.75.75zm31.929 3.893h-37.483c-.414 0-.75.336-.75.75v27.765c0 .414.336.75.75.75h37.483c.414 0 .75-.336.75-.75v-27.765c0-.414-.336-.75-.75-.75zm-36.733 1.5h35.982v26.265h-35.982v-26.265zm2.028-2.616h31.931c.415 0 .749-.336.749-.75s-.334-.75-.749-.75h-31.931c-.415 0-.75.336-.75.75s.335.75.75.75z"/></svg>