<?xml version="1.0" encoding="utf-8"?>
<!-- Generator: Adobe Illustrator 17.0.0, SVG Export Plug-In . SVG Version: 6.00 Build 0)  -->
<!DOCTYPE svg PUBLIC "-//W3C//DTD SVG 1.1//EN" "http://www.w3.org/Graphics/SVG/1.1/DTD/svg11.dtd">
<svg version="1.1" id="Layer_1" xmlns="http://www.w3.org/2000/svg" xmlns:xlink="http://www.w3.org/1999/xlink" x="0px" y="0px"
	 width="48px" height="48px" viewBox="1331.491 44.329 48 48" enable-background="new 1331.491 44.329 48 48" xml:space="preserve">
<path d="M1342.304,52.5h26.374c0.414,0,0.75-0.336,0.75-0.75s-0.336-0.75-0.75-0.75h-26.374c-0.413,0-0.75,0.336-0.75,0.75
	S1341.891,52.5,1342.304,52.5L1342.304,52.5z M1374.233,56.393h-37.483c-0.414,0-0.75,0.336-0.75,0.75v27.765
	c0,0.414,0.336,0.75,0.75,0.75h37.483c0.414,0,0.75-0.336,0.75-0.75V57.143C1374.983,56.729,1374.647,56.393,1374.233,56.393
	L1374.233,56.393z M1337.5,57.893h35.982v26.265H1337.5V57.893z M1339.528,55.277h31.931c0.415,0,0.749-0.336,0.749-0.75
	s-0.334-0.75-0.749-0.75h-31.931c-0.415,0-0.75,0.336-0.75,0.75S1339.113,55.277,1339.528,55.277L1339.528,55.277z"/>
</svg>
