<?xml version="1.0" encoding="UTF-8" standalone="no"?>
<svg width="87px" height="87px" viewBox="0 0 87 87" version="1.1" xmlns="http://www.w3.org/2000/svg" xmlns:xlink="http://www.w3.org/1999/xlink" xmlns:sketch="http://www.bohemiancoding.com/sketch/ns">
    <!-- Generator: Sketch 3.3.3 (12081) - http://www.bohemiancoding.com/sketch -->
    <title>hebe</title>
    <desc>Created with Sketch.</desc>
    <defs>
        <path id="path-1" d="M0,86.7246377 L88,86.7246377 L88,0 L0,0 L0,86.7246377 Z"></path>
    </defs>
    <g id="UI" stroke="none" stroke-width="1" fill="none" fill-rule="evenodd" sketch:type="MSPage">
        <g id="3.0-Gallery-view---Browse-Copy-7" sketch:type="MSArtboardGroup" transform="translate(-1033.000000, -1386.000000)">
            <g id="Created-&amp;-Developed--+-hebe" sketch:type="MSLayerGroup" transform="translate(896.000000, 1339.000000)">
                <g id="hebe">
                    <g transform="translate(136.000000, 47.000000)">
                        <mask id="mask-2" sketch:name="Clip 2" fill="white">
                            <use xlink:href="#path-1"></use>
                        </mask>
                        <g id="Clip-2"></g>
                        <path d="M58.3890324,55.2649068 L58.3890324,71.9765987 L72.1460447,71.9765987 L72.1460447,66.3768201 L68.7286967,66.3768201 C69.8105244,64.4824428 71.0688205,62.763736 72.0585778,60.7771182 L68.7286967,60.7771182 C69.5435201,59.4485182 70.4818714,57.8775188 71.269841,56.5773418 C71.5253364,56.1561307 71.9741798,55.6944686 71.8836439,55.2649068 L58.3890324,55.2649068 L58.3890324,55.2649068 Z M45.2753623,44.0001532 L65.475541,44 L87.7297346,66.2674952 C88.0895766,66.626038 88.0903438,67.2082868 87.7305018,67.5676723 L68.8552936,86.4546765 C68.4962188,86.8139854 67.913106,86.8147515 67.553264,86.4562088 L45.2753623,64.2214267 L45.2753623,44.0001532 L45.2753623,44.0001532 Z" id="Fill-1" fill="#1A1918" sketch:type="MSShapeGroup" mask="url(#mask-2)"></path>
                        <path d="M58.3890324,15.3742813 L58.3888789,32.0861322 L72.1468119,32.0861322 L72.1468119,26.486326 L68.7286967,26.486326 C69.8105244,24.5918627 71.0688205,22.8733007 72.0585778,20.8865965 L68.7286967,20.8865965 C69.5435201,19.5579899 70.4818714,17.9869062 71.269841,16.6868759 C71.5253364,16.2655862 71.9741798,15.8038452 71.8836439,15.3742813 L58.3890324,15.3742813 L58.3890324,15.3742813 Z M45.2753623,22.5031112 L67.553264,0.268525912 C67.913106,-0.0900951955 68.4962188,-0.0894056868 68.8552936,0.269981541 L87.7305018,19.1569257 C88.0903438,19.5163896 88.0895766,20.0984881 87.7297346,20.4571092 L65.475541,42.7246377 L45.2753623,42.7244845 L45.2753623,22.5031112 L45.2753623,22.5031112 Z" id="Fill-3" fill="#1A1918" sketch:type="MSShapeGroup" mask="url(#mask-2)"></path>
                        <path d="M17.4494331,55.5194109 L17.4494331,71.9687843 C22.5398659,71.4719574 29.4870569,73.3590567 31.6448093,69.9561185 C32.7579434,68.2009445 32.7247213,64.5245792 31.1190859,63.0441348 C31.9950614,61.9048423 32.2840098,59.3433304 31.7324298,57.9693762 C30.0937257,53.8860496 22.9151306,55.6147924 17.5371304,55.2570158 C17.4350087,55.2715721 17.4418373,55.3952233 17.4494331,55.5194109 L17.4494331,55.5194109 Z M44,64.2213501 L21.7221251,86.4562088 C21.3622056,86.8147515 20.7792449,86.8139854 20.4200927,86.4546765 L1.54438177,67.5675957 C1.18515278,67.2082102 1.18576659,66.626038 1.54576283,66.2674186 L23.7996226,44 L44,44.0001532 L44,64.2213501 L44,64.2213501 Z" id="Fill-4" fill="#1A1918" sketch:type="MSShapeGroup" mask="url(#mask-2)"></path>
                        <path d="M17.6195337,15.2805847 C17.4152136,20.6759899 17.5903012,26.4509312 17.5320666,31.992359 L23.5972206,31.992359 L24.9800451,25.0857041 L26.3848897,31.992359 L32.3406332,31.992359 L32.3406332,15.2805847 L26.3848897,15.2805847 L24.8926547,22.2453882 C24.8661076,22.1438772 23.5972206,15.2805847 23.5972206,15.2805847 L17.6195337,15.2805847 L17.6195337,15.2805847 Z M44,42.7244845 L23.7996226,42.7246377 L1.54576283,20.4571092 C1.18576659,20.0984881 1.18515278,19.5163896 1.54438177,19.1569257 L20.4200927,0.269981541 C20.7792449,-0.0894056868 21.3622056,-0.0900951955 21.7221251,0.268525912 L44,22.5031112 L44,42.7244845 L44,42.7244845 Z" id="Fill-5" fill="#1A1918" sketch:type="MSShapeGroup" mask="url(#mask-2)"></path>
                    </g>
                </g>
            </g>
        </g>
    </g>
</svg>