<?xml version="1.0" encoding="utf-8"?>
<!-- Generator: Adobe Illustrator 17.0.0, SVG Export Plug-In . SVG Version: 6.00 Build 0)  -->
<!DOCTYPE svg PUBLIC "-//W3C//DTD SVG 1.1//EN" "http://www.w3.org/Graphics/SVG/1.1/DTD/svg11.dtd">
<svg version="1.1" id="Layer_1" xmlns:sketch="http://www.bohemiancoding.com/sketch/ns"
	 xmlns="http://www.w3.org/2000/svg" xmlns:xlink="http://www.w3.org/1999/xlink" x="0px" y="0px" width="48px" height="48px"
	 viewBox="-7.5 -3.5 48 48" enable-background="new -7.5 -3.5 48 48" xml:space="preserve">
<title>Fill 199</title>
<desc>Created with Sketch.</desc>
<g id="UI" sketch:type="MSPage">
	<g id="Toolbox-Expanded" transform="translate(-1149.000000, -205.000000)" sketch:type="MSArtboardGroup">
		
			<g id="Share-_x2B_-Fill-182-_x2B_-Fill-170-_x2B_-Fill-199" transform="translate(1144.000000, 205.000000)" sketch:type="MSLayerGroup">
			<path id="Fill-199" sketch:type="MSShapeGroup" d="M16.357,11.108c0.108,0.088,0.239,0.131,0.369,0.131
				c0.17,0,0.341-0.075,0.458-0.221l5.252-6.527c0.205-0.253,0.165-0.624-0.089-0.828c-0.25-0.202-0.622-0.163-0.826,0.089
				l-5.253,6.528C16.063,10.534,16.104,10.904,16.357,11.108L16.357,11.108z M18.61,12.959c0.099,0.217,0.312,0.346,0.537,0.346
				c0.081,0,0.164-0.016,0.242-0.053l7.535-3.411c0.295-0.134,0.427-0.483,0.294-0.779c-0.134-0.297-0.483-0.428-0.78-0.294
				l-7.534,3.411C18.606,12.315,18.475,12.663,18.61,12.959L18.61,12.959z M37.287,34.136l-6.106-5.665
				c-0.006-0.005-0.013-0.012-0.02-0.018c-0.706-0.662-1.869-0.628-2.536,0.075l-2.66,2.792c-0.593,0.628-1.476,0.233-4.28-1.913
				c-1.987-1.525-3.934-3.358-5.483-5.159c-1.524-1.779-1.891-2.712-1.358-3.287l0.721-0.62l2.248-2.185
				c0.036-0.035,0.067-0.076,0.095-0.119c0.713-0.989-0.396-1.99-0.86-2.383c-0.01-0.01-0.02-0.02-0.028-0.031
				c0,0-5.864-5.707-5.998-5.838c-0.005-0.005-0.009-0.009-0.013-0.013c-0.71-0.668-1.716-0.636-2.397,0.086l-2.026,2.205
				l-0.543,0.633c-0.053,0.071-5.151,7.192,7.696,19.573c7.313,7.053,12.798,8.607,16.21,8.607c0.129,0,0.255-0.002,0.377-0.007
				c2.229-0.075,3.681-0.835,4.226-1.439l2.736-2.784c0.345-0.366,0.532-0.864,0.51-1.366C37.78,34.82,37.596,34.412,37.287,34.136
				L37.287,34.136z M9.474,10.659c0.118-0.125,0.246-0.188,0.376-0.188c0.119,0,0.239,0.053,0.352,0.159l0.006-0.006
				c0.293,0.299,1.408,1.385,5.934,5.789c0.025,0.034,0.055,0.064,0.088,0.091c0.721,0.604,0.727,0.824,0.713,0.855l-1.794,1.745
				c-1.208-1.172-5.887-5.712-7.091-6.882L9.474,10.659L9.474,10.659z M33.702,38.617c-0.31,0.342-1.421,1.007-3.415,1.075
				c-2.576,0.093-8.056-0.867-15.732-8.271C4.51,21.74,5.684,15.132,6.959,13.433l0.307-0.338c0.589,0.571,2.264,2.197,7.012,6.803
				l-0.246,0.212c-1.53,1.629,0.295,3.759,1.276,4.903c1.6,1.861,3.611,3.753,5.661,5.327c2.444,1.871,4.374,3.35,5.848,1.791
				l0.136-0.142c1.25,1.203,5.573,5.363,6.818,6.561L33.702,38.617L33.702,38.617z M36.439,35.83L34.6,37.715
				c-4.567-4.395-6.233-5.997-6.838-6.578l1.713-1.798c0.222-0.235,0.625-0.252,0.866-0.038c0.007,0.006,0.013,0.012,0.02,0.018
				l6.131,5.689c0.076,0.068,0.124,0.185,0.129,0.322C36.631,35.516,36.561,35.701,36.439,35.83L36.439,35.83z M13.589,9.212
				c0.053,0.016,0.107,0.023,0.161,0.023c0.257,0,0.492-0.169,0.565-0.427l2.297-8.059c0.088-0.312-0.093-0.638-0.405-0.727
				c-0.314-0.089-0.638,0.093-0.728,0.404l-2.296,8.059C13.094,8.798,13.275,9.124,13.589,9.212L13.589,9.212z"/>
		</g>
	</g>
</g>
</svg>
