<svg xmlns:sketch="http://www.bohemiancoding.com/sketch/ns" xmlns="http://www.w3.org/2000/svg" width="48" height="48" viewBox="-7.5 -3.5 48 48" enable-background="new -7.5 -3.5 48 48"><title>Fill 199</title><desc>Created with Sketch.</desc><path sketch:type="MSShapeGroup" d="M11.357 11.108c.108.088.239.131.369.131.17 0 .341-.075.458-.221l5.252-6.527c.205-.253.165-.624-.089-.828-.25-.202-.622-.163-.826.089l-5.253 6.528c-.205.254-.164.624.089.828zm2.253 1.851c.099.217.312.346.537.346.081 0 .164-.016.242-.053l7.535-3.411c.295-.134.427-.483.294-.779-.134-.297-.483-.428-.78-.294l-7.534 3.411c-.298.136-.429.484-.294.78zm18.677 21.177l-6.106-5.665-.02-.018c-.706-.662-1.869-.628-2.536.075l-2.66 2.792c-.593.628-1.476.233-4.28-1.913-1.987-1.525-3.934-3.358-5.483-5.159-1.524-1.779-1.891-2.712-1.358-3.287l.721-.62 2.248-2.185.095-.119c.713-.989-.396-1.99-.86-2.383l-.028-.031-5.998-5.838-.013-.013c-.71-.668-1.716-.636-2.397.086l-2.026 2.205-.543.633c-.053.071-5.151 7.192 7.696 19.573 7.313 7.053 12.798 8.607 16.21 8.607l.377-.007c2.229-.075 3.681-.835 4.226-1.439l2.736-2.784c.345-.366.532-.864.51-1.366-.018-.46-.202-.868-.511-1.144zm-27.813-23.477c.118-.125.246-.188.376-.188.119 0 .239.053.352.159l.006-.006c.293.299 1.408 1.385 5.934 5.789l.088.091c.721.604.727.824.713.855l-1.794 1.745c-1.208-1.172-5.887-5.712-7.091-6.882l1.416-1.563zm24.228 27.958c-.31.342-1.421 1.007-3.415 1.075-2.576.093-8.056-.867-15.732-8.271-10.045-9.681-8.871-16.289-7.596-17.988l.307-.338 7.012 6.803-.246.212c-1.53 1.629.295 3.759 1.276 4.903 1.6 1.861 3.611 3.753 5.661 5.327 2.444 1.871 4.374 3.35 5.848 1.791l.136-.142 6.818 6.561-.069.067zm2.737-2.787l-1.839 1.885c-4.567-4.395-6.233-5.997-6.838-6.578l1.713-1.798c.222-.235.625-.252.866-.038l.02.018 6.131 5.689c.076.068.124.185.129.322.01.186-.06.371-.182.5zm-22.85-26.618l.161.023c.257 0 .492-.169.565-.427l2.297-8.059c.088-.312-.093-.638-.405-.727-.314-.089-.638.093-.728.404l-2.296 8.059c-.089.313.092.639.406.727z"/></svg>