<?xml version="1.0" encoding="UTF-8" standalone="no"?>
<svg width="132px" height="95px" viewBox="0 0 264 170" version="1.1" xmlns="http://www.w3.org/2000/svg" xmlns:xlink="http://www.w3.org/1999/xlink">
  <g stroke="none" stroke-width="1" fill-rule="evenodd">
    <g transform="translate(-2626.000000, -1156.000000)" >
      <path d="M2823,1215.31264 L2758,1157.95382 L2693,1215.31264 L2626,1156.1885 L2626,1326 L2890,1326 L2890,1156.1885 L2823,1215.31264 L2823,1215.31264 Z M2691,1321.85363 L2630,1321.85363 L2630,1165.16436 L2691,1218.99254 L2691,1321.85363 L2691,1321.85363 Z M2821,1321.85363 L2695,1321.85363 L2695,1218.99254 L2758,1163.39904 L2821,1218.99254 L2821,1321.85363 L2821,1321.85363 Z M2886,1321.85363 L2825,1321.85363 L2825,1218.99254 L2886,1165.16436 L2886,1321.85363 L2886,1321.85363 Z"></path>
    </g>
  </g>
</svg>