<svg width="401" height="61" viewBox="0 0 401 61" xmlns="http://www.w3.org/2000/svg"><g fill="none"><path d="M3.436 3.261v.982c.245-.368.491-.736.982-.982.491-.245.982-.245 1.472-.245.613 0 1.104.123 1.595.368.491.245.859.491 1.104.859.245.368.491.736.613 1.227.122.491.245.982.245 1.472s-.123 1.104-.245 1.472c-.123.491-.368.859-.613 1.227-.245.368-.613.614-1.104.859-.491.245-.982.368-1.472.368h-.613s-.491-.123-.736-.245c-.245-.123-.491-.245-.613-.368-.245-.123-.368-.368-.491-.614v3.926h-1.227v-10.552h1.104l-.001.246zm4.539 2.699c-.123-.368-.245-.614-.368-.859-.245-.245-.491-.491-.736-.613-.245-.123-.613-.245-1.104-.245-.368 0-.736.123-1.104.245-.245.123-.491.368-.736.613s-.368.614-.368.982c-.123.368-.123.736-.123 1.104 0 .368 0 .736.123 1.104l.368.982c.245.245.491.491.736.614s.613.245 1.104.245c.491 0 .736-.123 1.104-.245.368-.122.491-.368.736-.614.245-.245.245-.613.368-.982s.123-.736.123-1.104c0-.491 0-.859-.123-1.227zm2.7-.368c.123-.491.368-.859.736-1.227.368-.368.736-.613 1.104-.859.368-.246.982-.368 1.595-.368s1.104.123 1.595.368c.491.245.859.491 1.104.859.368.368.491.736.736 1.227.123.491.245.982.245 1.595s-.123 1.104-.245 1.595c-.123.491-.368.859-.736 1.227-.368.368-.736.613-1.104.859-.368.245-.982.245-1.595.245s-1.104-.123-1.595-.245c-.491-.122-.859-.491-1.104-.859-.368-.368-.491-.736-.736-1.227-.123-.491-.245-.982-.245-1.595-.001-.613.122-1.104.245-1.595zm1.35 2.822c.123.368.245.613.491.859l.736.614c.245.123.613.245.982.245s.613-.123.982-.245c.245-.123.491-.368.736-.614.245-.245.368-.491.491-.859s.123-.736.123-1.227c0-.491 0-.859-.123-1.227-.123-.368-.245-.614-.491-.859-.245-.245-.491-.491-.736-.613-.245-.123-.613-.245-.982-.245s-.613.123-.982.245c-.245.123-.491.368-.736.613s-.368.491-.491.859-.123.736-.123 1.227c0 .491 0 .859.123 1.227zm13.496 2.577l-1.595-6.012-1.472 6.012h-1.35l-2.454-7.607h1.35l1.718 6.258 1.472-6.258h1.35l1.595 6.258 1.718-6.258h1.35l-2.454 7.607h-1.228zm10.43-.491c-.613.491-1.227.614-2.209.614-.614 0-1.104-.123-1.595-.245-.491-.245-.859-.491-1.104-.859-.245-.368-.491-.736-.736-1.227-.123-.491-.245-.982-.245-1.595 0-.614.123-1.104.245-1.595.123-.491.368-.859.736-1.227.368-.368.736-.613 1.104-.859.491-.245.859-.245 1.472-.245.736 0 1.227.123 1.718.368.491.245.859.614 1.104 1.104.245.491.491.859.613 1.472.123.491.123.982.123 1.472h-5.644c0 .368 0 .613.123.982.123.245.245.613.368.736l.736.614c.245.245.613.245 1.104.245.491 0 .982-.123 1.35-.368.368-.245.613-.614.613-1.104h1.227c-.244.613-.612 1.226-1.103 1.717zm-.368-4.908c-.123-.245-.245-.491-.491-.736-.245-.245-.368-.368-.736-.491-.245-.123-.491-.123-.859-.123s-.613 0-.859.123-.491.245-.613.491-.368.368-.491.736l-.245.859h4.417c.122-.368 0-.614-.123-.859zm3.926-2.331v1.595c.245-.614.736-1.104 1.104-1.35.491-.245.982-.491 1.718-.368v1.35c-.491 0-.982.123-1.227.245-.368.123-.613.368-.859.613-.245.245-.368.614-.491.982s-.123.859-.123 1.35v3.436h-1.227v-7.607h1.104l.001-.246zm8.957 7.239c-.613.491-1.227.614-2.209.614-.614 0-1.104-.123-1.595-.245-.491-.245-.859-.491-1.104-.859-.245-.368-.491-.736-.736-1.227-.123-.491-.245-.982-.245-1.595 0-.614.123-1.104.245-1.595.123-.491.368-.859.736-1.227.368-.368.736-.613 1.104-.859.491-.245.859-.245 1.472-.245.736 0 1.227.123 1.718.368.491.245.859.614 1.104 1.104.245.491.491.859.613 1.472.123.491.123.982.123 1.472h-5.644c0 .368 0 .613.123.982.123.245.245.613.368.736l.736.614c.245.245.614.245 1.104.245.49 0 .982-.123 1.35-.368.368-.245.613-.614.613-1.104h1.227c-.244.613-.612 1.226-1.103 1.717zm-.368-4.908c-.123-.245-.245-.491-.491-.736-.245-.245-.368-.368-.736-.491-.245-.123-.491-.123-.859-.123s-.613 0-.859.123-.491.245-.613.491-.368.368-.491.736l-.245.859h4.417c.123-.368 0-.614-.123-.859zm8.466 5.399v-.982c-.245.368-.491.736-.982.859-.491.245-.982.245-1.472.245-.613 0-1.104-.123-1.595-.368-.491-.245-.859-.491-1.104-.859-.245-.368-.491-.736-.613-1.227-.122-.491-.245-.982-.245-1.472s.123-1.104.245-1.472c.123-.491.368-.859.613-1.227.245-.368.613-.614 1.104-.859.491-.245.982-.368 1.472-.368h.613s.491.123.736.245c.245.123.491.245.613.368.123.123.368.368.491.614v-4.049h1.227v10.552h-1.103zm-4.539-2.822c.123.368.245.614.368.859.245.245.491.491.736.614s.613.245 1.104.245c.368 0 .736-.123 1.104-.245.245-.123.491-.368.736-.614.245-.245.368-.613.368-.982.123-.368.123-.736.123-1.104 0-.368 0-.736-.123-1.104l-.368-.982c-.245-.245-.491-.491-.736-.614s-.613-.245-1.104-.245c-.368 0-.736.123-1.104.245-.245.123-.491.368-.736.614-.123.245-.245.613-.368.982-.123.368-.123.736-.123 1.104 0 .613 0 .981.123 1.227zm13.006-7.73v3.926c.245-.368.491-.736.982-.982.491-.245.982-.245 1.472-.245.613 0 1.104.123 1.595.368.491.245.859.491 1.104.859.245.368.491.736.613 1.227.122.491.245.982.245 1.472s-.123 1.104-.245 1.472c-.123.491-.368.859-.613 1.227-.245.368-.613.614-1.104.859-.491.245-.982.368-1.472.368h-.613c-.245 0-.491-.123-.736-.245-.245-.123-.491-.245-.613-.368-.245-.123-.368-.368-.491-.614v.982h-1.227v-10.307h1.103v.001zm4.54 5.521c-.123-.368-.245-.614-.368-.859-.245-.245-.491-.491-.736-.613s-.613-.245-1.104-.245c-.368 0-.736.123-1.104.245-.245.123-.491.368-.736.613s-.368.614-.368.982c-.123.368-.123.736-.123 1.104 0 .368 0 .736.123 1.104l.368.982c.245.245.491.491.736.614s.613.245 1.104.245c.491 0 .736-.123 1.104-.245.368-.122.491-.368.736-.614.245-.245.245-.613.368-.982.123-.368.123-.736.123-1.104-.001-.491-.001-.859-.123-1.227zm5.889 6.012c-.123.368-.245.736-.491.982-.123.245-.245.491-.491.613-.123.123-.368.245-.613.368s-.491.123-.736.123h-.491c-.245 0-.245 0-.368-.123v-1.227l.368.123h.368c.245 0 .491 0 .613-.245.123-.123.245-.245.368-.491l.491-1.227-3.067-7.607h1.472l2.209 6.258 2.086-6.258h1.35l-3.068 8.711zm4.663-6.993v-1.595h1.595v1.595h-1.595zm1.717 4.294v1.595h-1.595v-1.595h1.595z" id="Shape" fill="#181818"/><path d="M.368 60.071v-2.822l3.681-.614v-26.135l-3.681-.613v-2.945h11.902v2.945l-3.681.613v26.135h11.534l.368-3.804h3.804v7.362h-23.926v-.122h-.001zm27.362 0v-2.822l3.681-.614v-26.135l-3.681-.613v-2.945h25.399v7.975h-3.804l-.368-4.417h-13.006v10.675h12.638v3.558h-12.638v11.902h13.374l.368-4.417h3.804v7.975h-25.767v-.122zm29.693 0v-2.822l3.681-.614v-26.135l-3.681-.613v-2.945h25.399v7.975h-3.804l-.368-4.417h-13.006v10.675h12.638v3.558h-12.638v11.902h13.374l.368-4.417h3.804v7.975h-25.767v-.122zm43.559-33.252c4.294 0 7.853 1.35 10.429 4.049 2.577 2.699 3.926 6.135 3.926 10.307v4.54c0 4.294-1.35 7.73-3.926 10.307-2.577 2.699-6.135 3.926-10.429 3.926h-13.865v-2.822l3.681-.613v-26.135l-3.681-.614v-2.945h13.865zm-5.645 3.558v26.135h5.644c3.067 0 5.521-.982 7.239-3.067 1.718-1.963 2.699-4.663 2.699-7.73v-4.54c0-3.068-.859-5.644-2.699-7.73-1.718-1.963-4.172-3.068-7.239-3.068h-5.644zm48.099 6.258h-3.436l-.859-4.785c-.736-.613-1.595-1.104-2.699-1.472-1.104-.368-2.454-.613-3.926-.613-2.331 0-4.172.491-5.521 1.472-1.227.982-1.963 2.331-1.963 3.926 0 1.472.613 2.699 1.963 3.558 1.35.982 3.436 1.841 6.258 2.577 3.436.859 6.135 2.086 7.975 3.804 1.84 1.718 2.699 3.804 2.699 6.258 0 2.699-1.104 4.785-3.313 6.503-2.209 1.595-5.031 2.454-8.589 2.454-2.577 0-4.785-.368-6.748-1.227-1.963-.859-3.558-1.963-4.785-3.313v-6.135h3.313l.859 4.785c.859.736 1.84 1.35 3.067 1.718 1.227.491 2.577.736 4.294.736 2.209 0 4.049-.491 5.399-1.472 1.35-.982 1.963-2.209 1.963-3.926 0-1.472-.614-2.822-1.718-3.804-1.104-.982-3.19-1.841-6.012-2.577-3.558-.859-6.258-2.086-8.221-3.681-1.963-1.595-2.945-3.681-2.945-6.135 0-2.577 1.104-4.785 3.313-6.503s5.031-2.577 8.589-2.577c2.331 0 4.417.368 6.38 1.227 1.963.859 3.436 1.718 4.54 2.945v6.258l.123-.001zm29.938-9.816c4.294 0 7.853 1.35 10.429 4.049 2.577 2.699 3.926 6.135 3.926 10.307v4.54c0 4.294-1.35 7.73-3.926 10.307-2.577 2.699-6.135 3.926-10.429 3.926h-13.865v-2.822l3.681-.613v-26.135l-3.681-.614v-2.945h13.865zm-5.767 3.558v26.135h5.644c3.067 0 5.521-.982 7.239-3.067 1.718-1.963 2.699-4.663 2.699-7.73v-4.54c0-3.068-.859-5.644-2.699-7.73-1.718-1.963-4.172-3.068-7.239-3.068h-5.644zm21.964 26.749l2.454-.368 11.534-29.939h3.804l11.411 29.939 2.454.368v2.822h-9.571v-2.822l2.454-.491-2.209-6.135h-13.129l-2.209 6.135 2.454.491v2.822h-9.448l.001-2.822zm10.674-10.307h10.552l-5.153-14.233h-.123l-5.276 14.233zm46.503-20v7.362h-3.804l-.368-3.804h-7.362v26.135l3.681.614v2.822h-11.902v-2.822l3.681-.614v-26.135h-7.362l-.368 3.804h-3.804v-7.362h27.608zm-1.963 30.307l2.454-.368 11.534-29.939h3.804l11.411 29.939 2.454.368v2.822h-9.571v-2.822l2.454-.491-2.209-6.135h-13.128l-2.209 6.135 2.454.491v2.822h-9.448v-2.822zm10.552-10.307h10.553l-5.153-14.233h-.124l-5.276 14.233zm67.853-13.374l-10.798 26.503h-2.945l-10.675-26.503h-.122l.491 13.374v9.571l3.681.613v2.822h-12.024v-2.822l3.681-.613v-26.135l-3.681-.614v-2.945h9.448l10.552 26.994h.123l10.552-26.994h9.448v2.945l-3.681.614v26.135l3.681.613v2.822h-11.78v-2.822l3.681-.613v-9.571l.368-13.374zm11.043-3.681v-2.945h11.902v2.945l-3.681.613v26.135l3.681.614v2.822h-11.902v-2.822l3.681-.614v-26.135l-3.681-.613zm15.092 30.307v-2.822l3.681-.614v-26.135l-3.681-.613v-2.945h11.902v2.945l-3.681.613v26.135h11.534l.368-3.804h3.804v7.362h-23.927v-.122zm27.239 0v-2.822l3.681-.614v-26.135l-3.681-.613v-2.945h11.902v2.945l-3.681.613v26.135h11.534l.368-3.804h3.804v7.362h-23.926l-.001-.122z" fill="#000"/></g></svg>