<svg xmlns="http://www.w3.org/2000/svg" width="48" height="48" viewBox="51.5 -5.501 48 48" enable-background="new 51.5 -5.501 48 48"><path d="M58.167 28.241h-3.497v-26.54h35.591v4.445c0 .469.375.85.835.85.462 0 .836-.381.836-.85v-5.296c0-.469-.374-.85-.836-.85h-37.261c-.461 0-.835.381-.835.85v28.241c0 .469.374.85.835.85h4.331c.462 0 .836-.381.836-.85s-.373-.85-.835-.85zm38.998-21.182h-37.268c-.461 0-.835.381-.835.85v28.24c0 .471.374.85.835.85h37.268c.461.001.835-.379.835-.849v-28.241c0-.469-.374-.85-.835-.85zm-36.433 1.701h35.599v26.539h-35.599v-26.539z"/></svg>