<?xml version="1.0" encoding="utf-8"?>
<!-- Generator: Adobe Illustrator 17.0.0, SVG Export Plug-In . SVG Version: 6.00 Build 0)  -->
<!DOCTYPE svg PUBLIC "-//W3C//DTD SVG 1.1//EN" "http://www.w3.org/Graphics/SVG/1.1/DTD/svg11.dtd">
<svg version="1.1" id="Layer_1" xmlns="http://www.w3.org/2000/svg" xmlns:xlink="http://www.w3.org/1999/xlink" x="0px" y="0px"
	 width="16.74px" height="21.42px" viewBox="1824 3791 16.74 21.42" enable-background="new 1824 3791 16.74 21.42"
	 xml:space="preserve">
<title>Parking Icon</title>
<path d="M1824,3791h9.45c1.52,0,2.76,0.221,3.72,0.66c0.96,0.44,1.7,0.99,2.22,1.649c0.52,0.661,0.875,1.38,1.065,2.161
	c0.19,0.78,0.285,1.5,0.285,2.16c0,0.66-0.095,1.375-0.285,2.145c-0.19,0.77-0.545,1.485-1.065,2.145
	c-0.52,0.66-1.26,1.205-2.22,1.635c-0.96,0.43-2.2,0.645-3.72,0.645h-5.7v8.22H1824V3791L1824,3791z M1827.75,3801.14h5.49
	c0.42,0,0.85-0.06,1.29-0.18c0.44-0.12,0.845-0.316,1.215-0.585c0.37-0.271,0.67-0.63,0.9-1.08c0.23-0.45,0.345-1.015,0.345-1.695
	c0-0.7-0.1-1.28-0.3-1.74c-0.2-0.46-0.47-0.825-0.81-1.095c-0.34-0.27-0.73-0.455-1.17-0.555c-0.44-0.1-0.91-0.151-1.41-0.151h-5.55
	V3801.14L1827.75,3801.14z"/>
</svg>
