<svg xmlns:sketch="http://www.bohemiancoding.com/sketch/ns" xmlns="http://www.w3.org/2000/svg" width="48" height="48" viewBox="-2.5 -5 48 48" enable-background="new -2.5 -5 48 48"><title>Fill 169</title><desc>Created with Sketch.</desc><path d="M15.773 28.882l-7.605 7.529c-.294.291-.296.766-.005 1.06.147.149.34.223.533.223.191 0 .382-.072.528-.217l7.604-7.528c.295-.292.297-.767.005-1.062-.292-.294-.766-.295-1.06-.005zm10.922 0c-.294-.29-.769-.289-1.06.005-.292.295-.29.77.005 1.061l7.6 7.528c.147.146.337.218.528.218.193 0 .386-.074.533-.223.291-.294.289-.768-.005-1.06l-7.601-7.529zm-16.381-10.235c.192 0 .384-.073.53-.22l7.012-7.012 5.215 5.216c.141.14.331.219.531.219.198 0 .389-.079.53-.219l8.549-8.549c.293-.293.293-.768 0-1.061-.293-.293-.767-.293-1.06 0l-8.019 8.019-5.215-5.216c-.141-.141-.332-.22-.531-.22-.198 0-.389.079-.53.22l-7.542 7.543c-.293.293-.293.767 0 1.06.146.147.338.22.53.22zm31.399 7.102h-3.328v-24.249h3.328c.414 0 .75-.336.75-.75s-.336-.75-.75-.75h-40.963c-.414 0-.75.336-.75.75s.336.75.75.75h3.33v24.249h-3.33c-.414 0-.75.336-.75.75s.336.75.75.75h40.963c.414 0 .75-.336.75-.75s-.336-.75-.75-.75zm-36.133-24.249h31.305v24.249h-31.305v-24.249z" sketch:type="MSShapeGroup"/></svg>