<?xml version="1.0" encoding="utf-8"?>
<!-- Generator: Adobe Illustrator 17.0.0, SVG Export Plug-In . SVG Version: 6.00 Build 0)  -->
<!DOCTYPE svg PUBLIC "-//W3C//DTD SVG 1.1//EN" "http://www.w3.org/Graphics/SVG/1.1/DTD/svg11.dtd">
<svg version="1.1" id="Layer_1" xmlns:sketch="http://www.bohemiancoding.com/sketch/ns"
	 xmlns="http://www.w3.org/2000/svg" xmlns:xlink="http://www.w3.org/1999/xlink" x="0px" y="0px" width="48px" height="48px"
	 viewBox="-2.5 -5 48 48" enable-background="new -2.5 -5 48 48" xml:space="preserve">
<title>Fill 169</title>
<desc>Created with Sketch.</desc>
<g id="UI" sketch:type="MSPage">
	<g id="Toolbox-Expanded" transform="translate(-1026.000000, -209.000000)" sketch:type="MSArtboardGroup">
		<g id="Share-_x2B_-Fill-182-_x2B_-Fill-169" transform="translate(991.000000, 209.000000)" sketch:type="MSLayerGroup">
			<g id="Share-_x2B_-Fill-182" sketch:type="MSShapeGroup">
				<g id="Presentation-_x2B_-Fill-169">
					<path id="Fill-169" d="M50.773,28.882l-7.605,7.529c-0.294,0.291-0.296,0.766-0.005,1.06c0.147,0.149,0.34,0.223,0.533,0.223
						c0.191,0,0.382-0.072,0.528-0.217l7.604-7.528c0.295-0.292,0.297-0.767,0.005-1.062C51.541,28.593,51.067,28.592,50.773,28.882
						L50.773,28.882z M61.695,28.882c-0.294-0.29-0.769-0.289-1.06,0.005c-0.292,0.295-0.29,0.77,0.005,1.061l7.6,7.528
						c0.147,0.146,0.337,0.218,0.528,0.218c0.193,0,0.386-0.074,0.533-0.223c0.291-0.294,0.289-0.768-0.005-1.06L61.695,28.882
						L61.695,28.882z M45.314,18.647c0.192,0,0.384-0.073,0.53-0.22l7.012-7.012l5.215,5.216c0.141,0.14,0.331,0.219,0.531,0.219
						c0.198,0,0.389-0.079,0.53-0.219l8.549-8.549c0.293-0.293,0.293-0.768,0-1.061c-0.293-0.293-0.767-0.293-1.06,0l-8.019,8.019
						l-5.215-5.216c-0.141-0.141-0.332-0.22-0.531-0.22c-0.198,0-0.389,0.079-0.53,0.22l-7.542,7.543
						c-0.293,0.293-0.293,0.767,0,1.06C44.93,18.574,45.122,18.647,45.314,18.647L45.314,18.647z M76.713,25.749h-3.328V1.5h3.328
						c0.414,0,0.75-0.336,0.75-0.75S77.127,0,76.713,0H35.75C35.336,0,35,0.336,35,0.75s0.336,0.75,0.75,0.75h3.33v24.249h-3.33
						c-0.414,0-0.75,0.336-0.75,0.75c0,0.414,0.336,0.75,0.75,0.75h40.963c0.414,0,0.75-0.336,0.75-0.75
						C77.463,26.085,77.127,25.749,76.713,25.749L76.713,25.749z M40.58,1.5h31.305v24.249H40.58V1.5z"/>
				</g>
			</g>
		</g>
	</g>
</g>
</svg>
