<svg xmlns="http://www.w3.org/2000/svg" width="48" height="48" viewBox="7 -4 48 48" enable-background="new 7 -4 48 48"><path d="M50.793 38.802l-14.203-14.113c2.462-2.626 3.982-6.134 3.982-9.996 0-8.102-6.634-14.693-14.788-14.693-8.152 0-14.784 6.591-14.784 14.694 0 8.1 6.632 14.693 14.784 14.693 3.759 0 7.184-1.412 9.795-3.716l14.215 14.125c.138.136.319.204.5.204s.362-.068.499-.205c.276-.274.276-.719 0-.993zm-25.009-10.82c-7.372 0-13.371-5.962-13.371-13.289 0-7.328 5.999-13.29 13.371-13.29 7.374 0 13.375 5.962 13.375 13.29 0 7.327-6.001 13.289-13.375 13.289z"/></svg>