<?xml version="1.0" encoding="utf-8"?>
<!-- Generator: Adobe Illustrator 17.0.0, SVG Export Plug-In . SVG Version: 6.00 Build 0)  -->
<!DOCTYPE svg PUBLIC "-//W3C//DTD SVG 1.1//EN" "http://www.w3.org/Graphics/SVG/1.1/DTD/svg11.dtd">
<svg version="1.1" id="Layer_1" xmlns="http://www.w3.org/2000/svg" xmlns:xlink="http://www.w3.org/1999/xlink" x="0px" y="0px"
	 width="48px" height="48px" viewBox="7 -4 48 48" enable-background="new 7 -4 48 48" xml:space="preserve">
<path d="M50.793,38.802L36.59,24.689c2.462-2.626,3.982-6.134,3.982-9.996C40.572,6.591,33.938,0,25.784,0
	C17.632,0,11,6.591,11,14.694c0,8.1,6.632,14.693,14.784,14.693c3.759,0,7.184-1.412,9.795-3.716l14.215,14.125
	C49.932,39.932,50.113,40,50.294,40c0.181,0,0.362-0.068,0.499-0.205C51.069,39.521,51.069,39.076,50.793,38.802L50.793,38.802z
	 M25.784,27.982c-7.372,0-13.371-5.962-13.371-13.289c0-7.328,5.999-13.29,13.371-13.29c7.374,0,13.375,5.962,13.375,13.29
	C39.159,22.02,33.158,27.982,25.784,27.982L25.784,27.982z"/>
</svg>
