<svg xmlns="http://www.w3.org/2000/svg" width="48" height="48" viewBox="-4 -4 48 48" enable-background="new -4 -4 48 48"><path d="M32.787 25.855c-2.184 0-4.142.96-5.466 2.467l-10.467-7.246c.818-1.336 1.296-2.892 1.296-4.56 0-1.113-.219-2.173-.601-3.157l9.757-4.383c1.056 1.815 3.045 3.044 5.324 3.044 3.38 0 6.131-2.697 6.131-6.012 0-3.312-2.75-6.008-6.13-6.008s-6.131 2.696-6.131 6.009c0 .587.09 1.155.252 1.694l-9.805 4.405c-1.567-2.676-4.505-4.487-7.872-4.487-5.005 0-9.075 3.99-9.075 8.896 0 4.907 4.07 8.899 9.074 8.899 2.798 0 5.302-1.249 6.968-3.205l10.465 7.244c-.593 1.027-.937 2.21-.937 3.472 0 3.901 3.238 7.074 7.218 7.074 3.977-.001 7.212-3.174 7.212-7.075 0-3.899-3.235-7.071-7.213-7.071zm-.156-24.47c2.601 0 4.718 2.073 4.718 4.624 0 2.551-2.117 4.626-4.718 4.626s-4.718-2.075-4.718-4.626c0-2.55 2.117-4.624 4.718-4.624zm-23.557 22.645c-4.225 0-7.661-3.37-7.661-7.513 0-4.141 3.436-7.511 7.661-7.511 4.226 0 7.663 3.369 7.663 7.511 0 4.143-3.437 7.513-7.663 7.513zm23.713 14.585c-3.201 0-5.805-2.552-5.805-5.688 0-3.135 2.604-5.686 5.805-5.686 3.198 0 5.8 2.551 5.8 5.686 0 3.136-2.602 5.688-5.8 5.688z"/></svg>