<?xml version="1.0" encoding="utf-8"?>
<!-- Generator: Adobe Illustrator 17.0.0, SVG Export Plug-In . SVG Version: 6.00 Build 0)  -->
<!DOCTYPE svg PUBLIC "-//W3C//DTD SVG 1.1//EN" "http://www.w3.org/Graphics/SVG/1.1/DTD/svg11.dtd">
<svg version="1.1" id="Layer_1" xmlns:sketch="http://www.bohemiancoding.com/sketch/ns"
	 xmlns="http://www.w3.org/2000/svg" xmlns:xlink="http://www.w3.org/1999/xlink" x="0px" y="0px" width="48px" height="48px"
	 viewBox="-4 -4 48 48" enable-background="new -4 -4 48 48" xml:space="preserve">
<title>Fill 181</title>
<desc>Created with Sketch.</desc>
<g id="UI" sketch:type="MSPage">
	<g id="Toolbox-Expanded" transform="translate(-905.000000, -209.000000)" sketch:type="MSArtboardGroup">
		<g id="Share-_x2B_-Fill-181" transform="translate(898.000000, 209.000000)" sketch:type="MSLayerGroup">
			<path id="Fill-181" sketch:type="MSShapeGroup" d="M39.787,25.855c-2.184,0-4.142,0.96-5.466,2.467l-10.467-7.246
				c0.818-1.336,1.296-2.892,1.296-4.56c0-1.113-0.219-2.173-0.601-3.157l9.757-4.383c1.056,1.815,3.045,3.044,5.324,3.044
				c3.38,0,6.131-2.697,6.131-6.012C45.761,2.696,43.011,0,39.631,0S33.5,2.696,33.5,6.009c0,0.587,0.09,1.155,0.252,1.694
				l-9.805,4.405c-1.567-2.676-4.505-4.487-7.872-4.487C11.07,7.621,7,11.611,7,16.517c0,4.907,4.07,8.899,9.074,8.899
				c2.798,0,5.302-1.249,6.968-3.205l10.465,7.244c-0.593,1.027-0.937,2.21-0.937,3.472c0,3.901,3.238,7.074,7.218,7.074
				C43.765,40,47,36.827,47,32.926C47,29.027,43.765,25.855,39.787,25.855L39.787,25.855z M39.631,1.385
				c2.601,0,4.718,2.073,4.718,4.624c0,2.551-2.117,4.626-4.718,4.626s-4.718-2.075-4.718-4.626
				C34.913,3.459,37.03,1.385,39.631,1.385L39.631,1.385z M16.074,24.03c-4.225,0-7.661-3.37-7.661-7.513
				c0-4.141,3.436-7.511,7.661-7.511c4.226,0,7.663,3.369,7.663,7.511C23.737,20.66,20.3,24.03,16.074,24.03L16.074,24.03z
				 M39.787,38.615c-3.201,0-5.805-2.552-5.805-5.688c0-3.135,2.604-5.686,5.805-5.686c3.198,0,5.8,2.551,5.8,5.686
				C45.587,36.063,42.985,38.615,39.787,38.615L39.787,38.615z"/>
		</g>
	</g>
</g>
</svg>
