<svg width="81" height="80" viewBox="0 0 81 80" xmlns="http://www.w3.org/2000/svg"><g fill="#FFF" fill-rule="evenodd"><path d="M20.414 9.908c-2.05 0-3.88-1.303-4.552-3.242-.42-1.216-.342-2.523.22-3.68C16.646 1.83 17.626.96 18.84.54c2.465-.85 5.28.533 6.127 2.978.866 2.512-.47 5.26-2.98 6.125-.508.176-1.037.265-1.573.265zm0-5.998c-.13 0-.26.022-.385.066-.3.103-.54.315-.678.6-.136.283-.156.603-.053.9.207.6.885.945 1.5.732.615-.213.943-.887.73-1.503-.165-.475-.612-.795-1.116-.795z"/><path d="M23.357 19.14L19.695 8.542l3.436-1.188 3.663 10.596-3.436 1.19M17.708 71.25l-6.644-10.835 3.1-1.9 6.644 10.835-3.1 1.9M66.304 40.46L59.66 29.624l3.1-1.9 6.643 10.835-3.1 1.9M49.34 72.783c-2.71 0-5.17-1.376-6.584-3.683L24.87 39.928c-2.225-3.627-1.084-8.387 2.543-10.61l.916-.562c1.21-.744 2.604-1.138 4.024-1.138 2.71 0 5.17 1.378 6.584 3.684l17.885 29.17c1.08 1.758 1.408 3.83.927 5.834-.48 2.004-1.713 3.7-3.47 4.78l-.91.558c-1.217.745-2.61 1.14-4.03 1.14zM32.354 33.07c-.413 0-.82.117-1.176.336l-.916.56c-1.062.652-1.397 2.048-.744 3.112l17.885 29.17c.63 1.03 2.068 1.39 3.114.748l.91-.56c.52-.316.88-.814 1.02-1.402.14-.587.045-1.194-.27-1.71L34.288 34.153c-.416-.677-1.14-1.08-1.936-1.08z"/><path d="M46.123 49.166l-2.85-4.648 12.11-7.426 2.852 4.648-12.112 7.426M24.857 62.207l-2.85-4.65 12.11-7.426 2.85 4.65-12.11 7.427M59.964 49.183c-.916 0-1.813-.462-2.326-1.3l-7.934-12.94c-.378-.617-.497-1.358-.33-2.06.17-.705.612-1.312 1.228-1.69l17.495-10.726c.618-.38 1.36-.497 2.06-.327.704.17 1.312.61 1.69 1.226l7.93 12.94c.79 1.283.387 2.96-.897 3.75L61.387 48.78c-.445.274-.937.403-1.423.403zm-4.188-14.766l5.084 8.29 12.846-7.876-5.084-8.29-12.846 7.877z"/><path d="M10.977 79.22c-.213 0-.425-.026-.635-.077-.703-.168-1.312-.61-1.688-1.225L.72 64.978C.34 64.36.22 63.62.39 62.918c.17-.705.612-1.312 1.228-1.69L19.11 50.502c1.284-.786 2.963-.386 3.75.9l7.934 12.938c.378.617.497 1.358.33 2.06-.17.705-.612 1.312-1.228 1.69L12.403 78.817c-.433.265-.927.402-1.426.402zM6.792 64.45l5.085 8.293 12.845-7.876-5.086-8.29L6.792 64.45zM24.814 32.358c-6.827 0-12.716-4.64-14.323-11.282-.352-1.463.546-2.937 2.01-3.29l23.364-5.652c.7-.17 1.443-.054 2.06.324.618.377 1.06.983 1.23 1.686 1.912 7.902-2.962 15.886-10.864 17.797-1.142.277-2.31.418-3.476.418zm-7.99-10.008c1.635 2.772 4.633 4.555 7.99 4.555.733 0 1.472-.09 2.194-.264 4.058-.98 6.848-4.503 7.09-8.47l-17.273 4.18z"/></g></svg>