<?xml version="1.0" encoding="UTF-8" standalone="no"?>
<svg width="330px" height="362px" viewBox="0 0 330 362" version="1.1" xmlns="http://www.w3.org/2000/svg" xmlns:xlink="http://www.w3.org/1999/xlink" xmlns:sketch="http://www.bohemiancoding.com/sketch/ns">
    <!-- Generator: Sketch 3.3.1 (12005) - http://www.bohemiancoding.com/sketch -->
    <title>Oval 44 Copy 2 + Rectangle 89 + Imported Layers</title>
    <desc>Created with Sketch.</desc>
    <defs></defs>
    <g id="Stories" stroke="none" stroke-width="1" fill="none" fill-rule="evenodd" sketch:type="MSPage">
        <g id="Artboard-1" sketch:type="MSArtboardGroup" transform="translate(-3016.000000, -1715.000000)">
            <g id="Group" sketch:type="MSLayerGroup" transform="translate(2871.100000, 1557.000000)">
                <g id="Oval-44-Copy-2-+-Rectangle-89-+-Imported-Layers" transform="translate(148.500000, 151.000000)" sketch:type="MSShapeGroup">
                    <ellipse id="Oval-44-Copy-2" stroke="#FFFFFF" stroke-width="6.55500031" stroke-dasharray="2" cx="161.5" cy="203.387542" rx="161.5" ry="161.713195"></ellipse>
                    <rect id="Rectangle-89" fill="#000000" x="121.62963" y="30.6318167" width="76.5383887" height="38.8733642"></rect>
                    <path d="M191.959009,36.0772488 L186.20037,26.6711227 C185.926667,26.2233158 185.485259,25.9027267 184.97488,25.7798706 C184.465954,25.6562875 183.927261,25.7413418 183.478592,26.0175863 L170.777207,33.8149516 C170.32999,34.0897422 170.009098,34.5310064 169.886404,35.0427858 C169.764435,35.5538382 169.85083,36.092515 170.125258,36.5410489 L171.94752,39.5164932 L167.444137,42.2811194 L162.309132,33.8941901 C161.649197,32.8168365 160.673452,32.0237239 159.540165,31.5904561 C162.139248,29.0330134 163.383614,25.218658 162.466674,21.4210227 C162.342528,20.9099704 162.021636,20.469433 161.573693,20.1953694 C161.125025,19.9205788 160.58488,19.8355245 160.077406,19.9598346 L152.652594,21.7583318 L151.170827,17.4641834 C152.200296,16.5525764 152.641704,15.0768491 152.166174,13.6963534 C151.551251,11.9189379 149.507559,10.9135533 147.71724,11.5314686 C146.835875,11.8375185 146.124394,12.4685192 145.716382,13.3096111 C145.307643,14.1507029 145.251015,15.1008387 145.555936,15.9848212 C146.022754,17.3355116 147.264216,18.2514803 148.676287,18.327084 L150.076017,22.3820629 L143.115847,24.0678815 C142.052255,24.3252251 141.400307,25.3967631 141.656585,26.4603045 C142.810926,31.2393348 147.012293,34.5869823 151.904087,34.6553165 C151.033612,36.3433159 151.032886,38.431143 152.095026,40.1649409 L157.230756,48.5518701 L152.458752,51.4815161 L150.63649,48.5053447 C150.065127,47.5712021 148.846172,47.2804184 147.914713,47.8518084 L135.214779,55.6491736 C134.767562,55.9239642 134.44667,56.3652285 134.323976,56.8770079 C134.201282,57.3880602 134.287676,57.9267371 134.562104,58.3752709 L140.322921,67.7821241 C140.595898,68.229931 141.038032,68.55052 141.548411,68.6726492 C141.700871,68.7097241 141.854783,68.7278981 142.009421,68.7278981 C142.371696,68.7278981 142.73034,68.6283047 143.044699,68.4356605 L155.744632,60.6375682 C156.191849,60.3627776 156.512741,59.9215133 156.635435,59.409734 C156.757403,58.8986816 156.671009,58.3600048 156.396581,57.9114709 L154.528581,54.8611498 L159.299859,51.9315038 L165.081004,61.3717971 C166.108295,63.0488922 167.894257,64.0491881 169.860994,64.0491881 C170.891915,64.0491881 171.903234,63.7627662 172.786051,63.2211815 L173.447438,62.8148113 C174.723022,62.0311492 175.617455,60.7974993 175.966661,59.3406729 C176.315868,57.8838465 176.077739,56.3775868 175.293658,55.1003194 L169.513239,45.6600261 L174.016623,42.8961269 L175.885349,45.947175 C176.257787,46.5570939 176.90901,46.8929491 177.574027,46.8929491 C177.926863,46.8929491 178.284056,46.7991713 178.607126,46.6007114 L191.30706,38.8033462 C192.239245,38.2305022 192.531823,37.0106646 191.959009,36.0772488 L191.959009,36.0772488 Z M148.051201,15.1197397 C147.976423,14.9038328 147.990943,14.6712058 148.089679,14.4647494 C148.190593,14.2582929 148.364107,14.1041775 148.581181,14.0293007 C148.671931,13.9973145 148.766312,13.9813214 148.860692,13.9813214 C149.226596,13.9813214 149.551119,14.2139484 149.670909,14.5592541 C149.825547,15.007061 149.587419,15.4970315 149.140202,15.6518739 C148.694438,15.8067162 148.202209,15.5551883 148.051201,15.1197397 L148.051201,15.1197397 Z M142.662822,64.0201098 L138.971108,57.9921634 L142.53069,55.8069238 L146.222404,61.8348702 L142.662822,64.0201098 L142.662822,64.0201098 Z M148.473007,60.4529206 L144.782019,54.4249742 L148.295863,52.267359 L151.988304,58.2945785 L148.473007,60.4529206 L148.473007,60.4529206 Z M146.255075,27.3864506 L158.796014,24.3484878 C158.619596,27.2316083 156.594053,29.7919589 153.647942,30.5058329 C153.123769,30.6330508 152.587254,30.6977501 152.055096,30.6977501 C149.617911,30.6977501 147.44136,29.4015817 146.255075,27.3864506 L146.255075,27.3864506 Z M172.117404,58.4159807 C172.014312,58.8434327 171.752952,59.2054584 171.376157,59.4359045 L170.715497,59.8422748 C169.9561,60.3082557 168.911384,60.0465503 168.45473,59.2992362 L155.470204,38.0931069 C154.996125,37.3196223 155.239336,36.3047871 156.010349,35.8315366 L156.675365,35.4237124 C156.933822,35.2645084 157.229304,35.1801811 157.529142,35.1801811 C158.107765,35.1801811 158.632664,35.4738726 158.933954,35.9660241 L171.919932,57.1736072 C172.149348,57.5479913 172.219044,57.9892556 172.117404,58.4159807 L172.117404,58.4159807 Z M178.224524,42.1851607 L174.533535,36.1586683 L178.133774,33.9487121 L181.824036,39.9759315 L178.224524,42.1851607 L178.224524,42.1851607 Z M184.074639,38.5939819 L180.383651,32.5674894 L183.859743,30.433137 L187.550731,36.4596294 L184.074639,38.5939819 L184.074639,38.5939819 Z" id="Imported-Layers" fill="#7ED321" transform="translate(163.672470, 40.427073) rotate(32.000000) translate(-163.672470, -40.427073) "></path>
                </g>
            </g>
        </g>
    </g>
</svg>