<?xml version="1.0" encoding="UTF-8" standalone="no"?>
<svg width="81px" height="80px" viewBox="0 0 81 80" version="1.1" xmlns="http://www.w3.org/2000/svg" xmlns:xlink="http://www.w3.org/1999/xlink">
    <g stroke="none" stroke-width="1" fill="none" fill-rule="evenodd">
        <g transform="translate(-987.000000, -3550.000000)" fill="#FFFFFF">
            <g transform="translate(987.000000, 3550.000000)">
                <path d="M20.414,9.908 C18.364,9.908 16.533,8.605 15.862,6.666 C15.442,5.45 15.52,4.143 16.083,2.986 C16.645,1.829 17.625,0.961 18.839,0.54 C21.305,-0.31 24.12,1.073 24.967,3.518 C25.833,6.03 24.496,8.777 21.986,9.643 C21.479,9.819 20.95,9.908 20.414,9.908 L20.414,9.908 Z M20.414,3.91 C20.284,3.91 20.154,3.932 20.029,3.976 C19.73,4.079 19.491,4.291 19.352,4.575 C19.216,4.859 19.196,5.179 19.299,5.476 C19.507,6.075 20.185,6.421 20.799,6.208 C21.415,5.995 21.743,5.321 21.53,4.705 C21.365,4.23 20.918,3.91 20.414,3.91 L20.414,3.91 Z"></path>
                <path d="M23.357,19.139 L19.695,8.543 L23.131,7.355 L26.793,17.951 L23.357,19.139"></path>
                <path d="M17.708,71.251 L11.064,60.415 L14.164,58.514 L20.808,69.35 L17.708,71.251"></path>
                <path d="M66.304,40.46 L59.66,29.624 L62.759,27.723 L69.403,38.559 L66.304,40.46"></path>
                <path d="M49.34,72.783 C46.631,72.783 44.171,71.407 42.756,69.1 L24.869,39.928 C22.645,36.301 23.786,31.541 27.413,29.317 L28.329,28.756 C29.541,28.012 30.934,27.618 32.354,27.618 C35.063,27.618 37.523,28.996 38.938,31.302 L56.823,60.473 C57.903,62.23 58.231,64.302 57.75,66.306 C57.269,68.31 56.037,70.007 54.28,71.085 L53.369,71.644 C52.153,72.389 50.76,72.783 49.34,72.783 L49.34,72.783 Z M32.354,33.071 C31.941,33.071 31.534,33.187 31.178,33.406 L30.262,33.967 C29.2,34.618 28.865,36.014 29.518,37.078 L47.403,66.249 C48.032,67.277 49.471,67.637 50.517,66.996 L51.427,66.437 C51.946,66.12 52.306,65.622 52.448,65.034 C52.588,64.447 52.492,63.84 52.176,63.325 L34.289,34.152 C33.874,33.475 33.151,33.071 32.354,33.071 L32.354,33.071 Z"></path>
                <path d="M46.123,49.166 L43.273,44.518 L55.384,37.092 L58.235,41.74 L46.123,49.166"></path>
                <path d="M24.857,62.207 L22.006,57.558 L34.117,50.131 L36.968,54.78 L24.857,62.207"></path>
                <path d="M59.964,49.183 C59.048,49.183 58.151,48.721 57.638,47.882 L49.704,34.943 C49.326,34.326 49.207,33.585 49.375,32.882 C49.544,32.178 49.986,31.571 50.602,31.193 L68.097,20.467 C68.715,20.087 69.457,19.97 70.158,20.14 C70.861,20.309 71.469,20.75 71.846,21.366 L79.778,34.305 C80.567,35.589 80.164,37.267 78.88,38.055 L61.387,48.781 C60.942,49.054 60.45,49.183 59.964,49.183 L59.964,49.183 Z M55.776,34.417 L60.86,42.707 L73.706,34.831 L68.622,26.541 L55.776,34.417 L55.776,34.417 Z"></path>
                <path d="M10.977,79.219 C10.764,79.219 10.552,79.194 10.342,79.143 C9.639,78.975 9.03,78.534 8.654,77.918 L0.719,64.978 C0.341,64.361 0.222,63.62 0.391,62.917 C0.56,62.213 1.002,61.606 1.618,61.228 L19.111,50.502 C20.394,49.716 22.073,50.116 22.86,51.401 L30.794,64.34 C31.172,64.957 31.291,65.698 31.123,66.401 C30.954,67.105 30.512,67.712 29.896,68.09 L12.403,78.817 C11.97,79.082 11.476,79.219 10.977,79.219 L10.977,79.219 Z M6.792,64.451 L11.877,72.743 L24.722,64.867 L19.636,56.576 L6.792,64.451 L6.792,64.451 Z"></path>
                <path d="M24.814,32.358 C17.987,32.358 12.098,27.718 10.491,21.076 C10.138,19.613 11.036,18.139 12.501,17.785 L35.864,12.134 C36.563,11.963 37.307,12.08 37.925,12.458 C38.542,12.835 38.984,13.441 39.155,14.144 C41.066,22.046 36.192,30.03 28.29,31.941 C27.148,32.217 25.979,32.358 24.814,32.358 L24.814,32.358 Z M16.825,22.35 C18.459,25.122 21.457,26.905 24.814,26.905 C25.547,26.905 26.286,26.816 27.008,26.641 C31.066,25.659 33.856,22.137 34.099,18.171 L16.825,22.35 L16.825,22.35 Z"></path>
            </g>
        </g>
    </g>
</svg>