<svg xmlns="http://www.w3.org/2000/svg" width="48" height="48" viewBox="692.232 40.662 48 48" enable-background="new 692.232 40.662 48 48"><path d="M706.416 59.783l5.146 5.146c.146.147.338.22.53.22s.384-.073.531-.22c.293-.293.293-.767 0-1.06l-5.496-5.497c-.218-.217-.544-.28-.829-.157-2.506 1.088-5.242.679-6.969-1.041-1.46-1.463-1.972-3.671-1.417-5.849l3.579 3.577c.209.207.517.273.792.172l3.317-1.228c.204-.076.366-.237.442-.443l1.224-3.307c.102-.274.034-.583-.173-.79l-3.581-3.585c2.182-.557 4.388-.044 5.853 1.421 1.72 1.719 2.128 4.454 1.039 6.968-.122.282-.059.611.158.828l5.496 5.495c.293.293.767.293 1.061 0 .293-.293.293-.768 0-1.06l-5.147-5.146c1.084-2.949.5-6.101-1.547-8.146-2.146-2.147-5.519-2.685-8.588-1.37-.228.098-.394.303-.441.547s.029.496.205.673l4.092 4.095-.938 2.533-2.543.941-4.092-4.088c-.177-.176-.433-.254-.672-.206-.245.048-.451.214-.548.443-1.309 3.072-.772 6.442 1.371 8.586 2.05 2.047 5.201 2.63 8.145 1.548zm3.73 11.424l17.631-17.629.595.594c.141.142.332.22.531.22h.018c.204-.005.4-.093.537-.245l4.291-4.712c.27-.297.258-.753-.024-1.036l-1.829-1.825c-.284-.285-.739-.294-1.036-.025l-4.711 4.289c-.153.138-.241.332-.246.537-.005.206.076.403.219.548l.594.594-17.63 17.63-2.67-2.67c-.282-.281-.779-.281-1.061 0l-9.153 9.155c-1.602 1.603-1.603 4.212-.002 5.816l1.678 1.674c.772.775 1.805 1.202 2.906 1.202 1.103 0 2.136-.428 2.908-1.202l9.155-9.154c.14-.14.221-.332.221-.53 0-.199-.081-.39-.221-.53l-2.701-2.701zm21.195-23.067l.816.815-3.279 3.601-1.138-1.138 3.601-3.278zm-28.712 34.922c-.979.982-2.71.982-3.69 0l-1.677-1.675c-1.018-1.018-1.017-2.676.001-3.694l5.662-5.663 5.346 5.393-5.642 5.639zm6.702-6.699l-5.347-5.394 1.902-1.901 5.371 5.37-1.926 1.925zm26.052-5.322c-2.046-2.046-5.192-2.63-8.146-1.549l-6.314-6.316c-.293-.293-.768-.293-1.061 0-.293.293-.293.768 0 1.061l6.665 6.664c.218.217.547.28.828.158 2.514-1.086 5.249-.678 6.966 1.043 1.469 1.467 1.981 3.676 1.421 5.852l-3.58-3.582c-.208-.207-.517-.274-.792-.172l-3.303 1.226c-.204.075-.367.236-.443.441l-1.236 3.311c-.104.276-.035.585.173.793l3.583 3.582c-2.182.556-4.39.044-5.854-1.421-1.719-1.72-2.127-4.455-1.041-6.966.122-.282.06-.61-.158-.828l-6.664-6.666c-.293-.293-.768-.293-1.061 0-.293.292-.293.768 0 1.061l6.315 6.316c-1.081 2.946-.497 6.097 1.549 8.144 1.365 1.366 3.227 2.08 5.193 2.08 1.122 0 2.279-.233 3.396-.711.229-.098.395-.303.442-.547.047-.245-.031-.497-.207-.673l-4.092-4.091.947-2.538 2.532-.939 4.09 4.09c.175.175.427.254.672.206.243-.047.449-.212.548-.441 1.318-3.069.781-6.44-1.368-8.588z"/></svg>